STARTFONT 2.1
COMMENT
COMMENT Converted from OpenType font "C:\Users\Martin\Dropbox\Code\EEZ\psu-firmware\tools\font_tools\fonts\ttf\Oswald-Medium.ttf" by "otf2bdf.exe 3.0".
COMMENT
FONT -FreeType-Oswald-Medium-R-Normal--66-480-100-100-P-277-ISO10646-1
SIZE 48 100 100
FONTBOUNDINGBOX 136 96 -6 -22
STARTPROPERTIES 19
FOUNDRY "FreeType"
FAMILY_NAME "Oswald"
WEIGHT_NAME "Medium"
SLANT "R"
SETWIDTH_NAME "Normal"
ADD_STYLE_NAME ""
PIXEL_SIZE 66
POINT_SIZE 480
RESOLUTION_X 100
RESOLUTION_Y 100
SPACING "P"
AVERAGE_WIDTH 277
CHARSET_REGISTRY "ISO10646"
CHARSET_ENCODING "1"
FONT_ASCENT 73
FONT_DESCENT 17
COPYRIGHT "Copyright (c) 2010-13 by Vernon Adams"
_OTF_FONTFILE "C:\Users\Martin\Dropbox\Code\EEZ\psu-firmware\tools\font_tools\fonts\ttf\Oswald-Medium.ttf"
_OTF_PSNAME "Oswald-Medium"
ENDPROPERTIES
CHARS 554
STARTCHAR 0020
ENCODING 32
SWIDTH 240 0
DWIDTH 16 0
BBX 0 0 0 0
BITMAP
ENDCHAR
STARTCHAR 0021
ENCODING 33
SWIDTH 225 0
DWIDTH 15 0
BBX 9 54 3 0
BITMAP
FF80
FF80
FF80
FF80
FF80
7F80
7F80
7F80
7F80
7F00
7F00
7F00
7F00
7F00
7F00
7F00
7F00
7F00
7F00
7F00
3E00
3E00
3E00
3E00
3E00
3E00
3E00
3E00
3E00
3E00
3E00
3C00
3C00
3C00
1C00
1C00
1C00
1C00
1C00
1C00
1C00
0000
0000
0000
0000
FF80
FF80
FF80
FF80
FF80
FF80
FF80
FF80
FF80
ENDCHAR
STARTCHAR 0022
ENCODING 34
SWIDTH 375 0
DWIDTH 25 0
BBX 19 18 4 36
BITMAP
FF1FE0
FF1FE0
FF1FE0
FE1FE0
FE1FC0
FE1FC0
FE1FC0
FE1FC0
FC1FC0
FC1F80
FC1F80
FC1F80
FC1F80
F81F80
F81F00
F81F00
F81F00
F81F00
ENDCHAR
STARTCHAR 0023
ENCODING 35
SWIDTH 510 0
DWIDTH 34 0
BBX 30 54 2 0
BITMAP
007F03F8
00FF07F8
00FF07F8
00FE07F0
00FE07F0
00FE07F0
00FE07F0
00FE07F0
01FE0FF0
01FE0FF0
01FC0FE0
01FC0FE0
01FC0FE0
01FC0FE0
01FC0FE0
03FC1FE0
7FFFFFFC
7FFFFFFC
7FFFFFFC
7FFFFFFC
7FFFFFFC
7FFFFFFC
07F83FC0
07F83FC0
07F83FC0
07F03F80
07F03F80
07F03F80
07F03F80
7FFFFFFC
7FFFFFFC
7FFFFFFC
7FFFFFFC
FFFFFFFC
FFFFFFFC
0FE07F00
1FE0FF00
1FE0FF00
1FE0FF00
1FC0FF00
1FC0FE00
1FC0FE00
1FC0FE00
3FC1FE00
3FC1FE00
3FC1FE00
3F81FE00
3F81FC00
3F81FC00
3F81FC00
3F81FC00
7F83FC00
7F83FC00
7F03FC00
ENDCHAR
STARTCHAR 0024
ENCODING 36
SWIDTH 495 0
DWIDTH 33 0
BBX 29 66 2 -6
BITMAP
00070000
00070000
00070000
00070000
00070000
00078000
01FFF800
07FFFC00
0FFFFF00
1FFFFF80
3FFFFF80
3FFFFFC0
7FFDFFC0
7FE07FE0
7FC03FE0
FFC03FE0
FF801FE0
FF801FE0
FF801FF0
FFC01FF0
FFC01F80
FFC01000
FFE00000
7FF00000
7FF80000
7FFC0000
3FFE0000
3FFF0000
1FFF8000
0FFFC000
07FFF000
03FFF800
01FFFC00
00FFFE00
007FFF00
003FFF00
000FFF80
0007FFC0
0003FFC0
0001FFE0
0000FFE0
00007FF0
00003FF0
07803FF0
FF801FF0
FF801FF8
FF801FF8
FF801FF8
FF801FF8
7FC01FF8
7FC01FF0
7FE01FF0
3FF03FF0
3FFFFFE0
3FFFFFE0
1FFFFFC0
0FFFFFC0
07FFFF80
03FFFE00
00FFFC00
0003C000
00038000
00038000
00038000
00038000
00038000
ENDCHAR
STARTCHAR 0025
ENCODING 37
SWIDTH 975 0
DWIDTH 65 0
BBX 59 54 3 0
BITMAP
01FF00003F000000
07FFC0007F000000
1FFFF0007F000000
3FFFF8007E000000
3FFFF8007E000000
7FFFFC00FE000000
7FEFFC00FC000000
FF83FE00FC000000
FF01FE01FC000000
FF01FE01FC000000
FF01FE01F8000000
FF01FE01F8000000
FF01FE03F8000000
FF01FE03F0000000
FF01FE03F0000000
FF01FE07F0000000
FF01FE07F0000000
FF01FE07E0000000
FF01FE07E0000000
FF01FE0FE0000000
FF01FE0FC0000000
FF01FE0FC0000000
FF83FE1FC0000000
7FCFFC1FC0000000
7FFFFC1F80000000
3FFFF81F803FF800
3FFFF83F80FFFE00
1FFFF03F03FFFF00
07FFC03F03FFFF80
01FF007F07FFFFC0
0000007F07FFFFC0
0000007E0FF87FC0
0000007E0FF03FE0
000000FE0FF01FE0
000000FE0FF01FE0
000000FC0FE01FE0
000001FC1FE01FE0
000001FC1FE01FE0
000001F81FE01FE0
000001F81FE01FE0
000003F81FE01FE0
000003F81FE01FE0
000003F00FE01FE0
000007F00FF01FE0
000007F00FF01FE0
000007E00FF01FE0
000007E00FF83FC0
00000FE00FFCFFC0
00000FE007FFFFC0
00000FC007FFFF80
00000FC003FFFF80
00001FC001FFFF00
00001F8000FFFC00
00001F80001FF000
ENDCHAR
STARTCHAR 0026
ENCODING 38
SWIDTH 600 0
DWIDTH 40 0
BBX 33 56 3 -1
BITMAP
0004000000
007FE00000
01FFF80000
03FFFE0000
07FFFF0000
0FFFFF0000
0FFFFF8000
1FF0FF8000
1FE07FC000
1FE03FC000
3FE03FC000
3FE03FC000
3FE03FC000
3FE07FC000
1FE07F8000
1FE07F8000
1FE07F8000
1FF0FF0000
0FF0FF0000
0FF1FE0000
07F1FE0000
07FBFC0000
03FBF80000
03FFF00000
01FFF00000
01FFE00000
00FFC00000
01FF800000
01FF800000
03FF807F80
07FFC07F80
0FFFC07F80
1FFFE07F80
1FFFF07F80
3FEFF07F80
3FC7F87F00
7FC7F8FF00
7F83FCFF00
7F83FCFE00
7F81FFFE00
FF81FFFE00
FF80FFFC00
FF807FFC00
FF807FF800
FF803FF800
7F803FF800
7F803FFC00
7FC07FFF80
7FC1FFFF80
3FFFFFFF80
3FFFFFFF80
1FFFFCFF80
0FFFF87F80
07FFF01F80
01FFC00F80
0008000100
ENDCHAR
STARTCHAR 0027
ENCODING 39
SWIDTH 315 0
DWIDTH 21 0
BBX 7 18 5 36
BITMAP
FE
FE
FE
FE
FE
FC
FC
FC
FC
FC
F8
F8
F8
F8
F8
F8
F0
F0
ENDCHAR
STARTCHAR 0028
ENCODING 40
SWIDTH 315 0
DWIDTH 21 0
BBX 15 68 5 -13
BITMAP
0002
007C
01FC
03FC
07FC
0FFC
1FFC
1FF0
1FE0
3FE0
3FC0
7FC0
7FC0
7F80
7F80
7F80
FF80
FF80
FF80
FF00
FF00
FF00
FF00
FF00
FF00
FF00
FF00
FF00
FF00
FF00
FF00
FF00
FF00
FF00
FF00
FF00
FF00
FF00
FF00
FF00
FF00
FF00
FF00
FF00
FF00
FF00
FF00
FF00
FF00
FF80
FF80
FF80
FF80
7F80
7F80
7F80
7FC0
3FC0
3FC0
3FE0
1FF0
1FF8
0FFC
0FFC
07FC
03FC
00FC
003C
ENDCHAR
STARTCHAR 0029
ENCODING 41
SWIDTH 285 0
DWIDTH 19 0
BBX 15 68 2 -13
BITMAP
8000
F800
FE00
FF00
FF80
FFC0
FFE0
3FE0
1FF0
0FF0
0FF0
07F8
07F8
07F8
07FC
07FC
03FC
03FC
03FC
03FC
03FC
03FC
03FC
03FE
03FE
03FE
03FE
03FE
03FE
03FE
03FE
03FE
03FE
03FE
03FE
03FE
03FE
03FE
03FE
03FE
03FE
03FE
03FE
03FE
03FE
03FE
03FC
03FC
03FC
03FC
03FC
03FC
07FC
07FC
07F8
07F8
07F8
0FF8
0FF0
1FF0
1FF0
7FE0
FFE0
FFC0
FF80
FF00
FC00
F000
ENDCHAR
STARTCHAR 002A
ENCODING 42
SWIDTH 420 0
DWIDTH 28 0
BBX 23 23 3 30
BITMAP
00FE00
00FE00
00FE00
007E00
007E00
307E0C
7C7C3C
7E7CFC
7FFFFE
FFFFFE
7FFFFE
1FFFF0
03FFC0
01FF00
01FF80
03FFC0
07EFC0
0FE7E0
0FC7F0
1FC3F8
3F83F0
0781E0
030180
ENDCHAR
STARTCHAR 002B
ENCODING 43
SWIDTH 435 0
DWIDTH 29 0
BBX 25 28 2 14
BITMAP
007F0000
007F0000
007F0000
007F0000
007F0000
007F0000
007F0000
007F0000
007F0000
007F0000
007F0000
FFFFFF80
FFFFFF80
FFFFFF80
FFFFFF80
FFFFFF80
FFFFFF80
007F0000
007F0000
007F0000
007F0000
007F0000
007F0000
007F0000
007F0000
007F0000
007F0000
007F0000
ENDCHAR
STARTCHAR 002C
ENCODING 44
SWIDTH 210 0
DWIDTH 14 0
BBX 9 18 3 -10
BITMAP
FF80
FF80
FF80
FF80
FF80
FF80
FF80
FF80
FF80
0F80
0F00
0F00
1F00
3F00
7E00
FC00
7800
6000
ENDCHAR
STARTCHAR 002D
ENCODING 45
SWIDTH 360 0
DWIDTH 24 0
BBX 16 6 4 19
BITMAP
FFFF
FFFF
FFFF
FFFF
FFFF
FFFF
ENDCHAR
STARTCHAR 002E
ENCODING 46
SWIDTH 210 0
DWIDTH 14 0
BBX 9 9 3 0
BITMAP
FF80
FF80
FF80
FF80
FF80
FF80
FF80
FF80
FF80
ENDCHAR
STARTCHAR 002F
ENCODING 47
SWIDTH 405 0
DWIDTH 27 0
BBX 22 54 2 0
BITMAP
0000FC
0001FC
0001F8
0001F8
0003F8
0003F8
0003F0
0003F0
0007F0
0007E0
0007E0
000FE0
000FE0
000FC0
000FC0
001FC0
001F80
001F80
003F80
003F80
003F00
003F00
007F00
007E00
007E00
00FE00
00FE00
00FC00
00FC00
01FC00
01F800
01F800
03F800
03F800
03F000
03F000
07F000
07E000
07E000
0FE000
0FE000
0FC000
0FC000
1FC000
1F8000
1F8000
1F8000
3F8000
3F0000
3F0000
7F0000
7E0000
7E0000
FE0000
ENDCHAR
STARTCHAR 0030
ENCODING 48
SWIDTH 510 0
DWIDTH 34 0
BBX 28 56 3 -1
BITMAP
00020000
00FFF000
03FFFC00
07FFFE00
0FFFFF00
1FFFFF80
3FFFFFC0
3FFFFFC0
7FFFFFE0
7FE07FE0
7FC03FF0
FFC03FF0
FFC03FF0
FFC01FF0
FF801FF0
FF801FF0
FF801FF0
FF801FF0
FF801FF0
FF801FF0
FF801FF0
FF801FF0
FF801FF0
FF801FF0
FF801FF0
FF801FF0
FF801FF0
FF801FF0
FF801FF0
FF801FF0
FF801FF0
FF801FF0
FF801FF0
FF801FF0
FF801FF0
FF801FF0
FF801FF0
FF801FF0
FF801FF0
FF801FF0
FF801FF0
FF801FF0
FFC01FF0
FFC03FF0
FFC03FF0
7FE03FF0
7FE07FE0
7FFFFFE0
3FFFFFC0
3FFFFFC0
1FFFFF80
0FFFFF00
07FFFE00
03FFFC00
00FFF000
00020000
ENDCHAR
STARTCHAR 0031
ENCODING 49
SWIDTH 510 0
DWIDTH 34 0
BBX 18 54 6 0
BITMAP
003FC0
007FC0
00FFC0
03FFC0
0FFFC0
7FFFC0
FFFFC0
FFFFC0
FFFFC0
FFFFC0
FFFFC0
F87FC0
807FC0
007FC0
007FC0
007FC0
007FC0
007FC0
007FC0
007FC0
007FC0
007FC0
007FC0
007FC0
007FC0
007FC0
007FC0
007FC0
007FC0
007FC0
007FC0
007FC0
007FC0
007FC0
007FC0
007FC0
007FC0
007FC0
007FC0
007FC0
007FC0
007FC0
007FC0
007FC0
007FC0
007FC0
007FC0
007FC0
007FC0
007FC0
007FC0
007FC0
007FC0
007FC0
ENDCHAR
STARTCHAR 0032
ENCODING 50
SWIDTH 510 0
DWIDTH 34 0
BBX 28 55 3 0
BITMAP
00020000
00FFF800
03FFFE00
07FFFF00
0FFFFF80
1FFFFFC0
1FFFFFE0
3FFFFFE0
3FFFFFE0
7FF07FF0
7FE03FF0
7FC01FF0
7FC01FF0
7FC01FF0
FFC01FF0
FFC01FF0
FFC01FF0
FFC01FF0
FFC01FF0
00003FF0
00003FF0
00007FE0
00007FE0
0000FFC0
0000FFC0
0001FF80
0003FF80
0003FF00
0007FF00
0007FE00
000FFC00
001FFC00
001FF800
003FF000
007FF000
007FE000
00FFC000
01FFC000
01FF8000
03FF0000
07FF0000
07FE0000
0FFC0000
0FFC0000
1FF80000
3FF00000
3FE00000
7FE00000
FFFFFFE0
FFFFFFE0
FFFFFFE0
FFFFFFE0
FFFFFFE0
FFFFFFE0
FFFFFFE0
ENDCHAR
STARTCHAR 0033
ENCODING 51
SWIDTH 495 0
DWIDTH 33 0
BBX 28 56 3 -1
BITMAP
00040000
00FFF000
03FFFC00
0FFFFF00
1FFFFF80
3FFFFF80
3FFFFFC0
7FFFFFE0
7FE07FE0
FFC03FE0
FFC03FF0
FF803FF0
FF801FF0
FF801FF0
FF801FF0
FF801FF0
FF801FF0
00001FF0
00003FF0
00003FE0
00003FE0
00007FE0
0001FFC0
001FFF80
001FFF80
001FFE00
001FF800
001FFE00
001FFF00
001FFF80
001FFFC0
0001FFC0
00007FE0
00003FE0
00003FE0
00003FF0
00001FF0
00001FF0
FF801FF0
FF801FF0
FF801FF0
FF801FF0
FF801FF0
FF801FF0
FFC03FF0
FFC03FE0
FFE07FE0
7FFFFFE0
7FFFFFC0
3FFFFFC0
3FFFFF80
1FFFFF00
0FFFFE00
07FFFC00
00FFF000
00040000
ENDCHAR
STARTCHAR 0034
ENCODING 52
SWIDTH 510 0
DWIDTH 34 0
BBX 31 54 2 0
BITMAP
0003FF80
0007FF80
0007FF80
0007FF80
000FFF80
000FFF80
001FFF80
001FFF80
001FFF80
003FFF80
003FFF80
007FFF80
007FFF80
00FEFF80
00FEFF80
00FEFF80
01FCFF80
01FCFF80
03FCFF80
03F8FF80
07F8FF80
07F8FF80
07F0FF80
0FF0FF80
0FE0FF80
1FE0FF80
1FE0FF80
3FC0FF80
3FC0FF80
3FC0FF80
7F80FF80
7F80FF80
FF80FF80
FFFFFFFE
FFFFFFFE
FFFFFFFE
FFFFFFFE
FFFFFFFE
FFFFFFFE
FFFFFFFE
FFFFFFFE
0000FF80
0000FF80
0000FF80
0000FF80
0000FF80
0000FF80
0000FF80
0000FF80
0000FF80
0000FF80
0000FF80
0000FF80
0000FF80
ENDCHAR
STARTCHAR 0035
ENCODING 53
SWIDTH 495 0
DWIDTH 33 0
BBX 28 55 3 -1
BITMAP
3FFFFFC0
3FFFFFC0
3FFFFFC0
3FFFFFC0
3FFFFFC0
3FFFFFC0
3FFFFFC0
3FFFFFC0
3F800000
3F800000
3F800000
3F800000
3F800000
3F800000
7F800000
7F800000
7F800000
7F800000
7F800000
7F8FF800
7FBFFE00
7FFFFF00
7FFFFF80
7FFFFFC0
7FFFFFC0
7FF0FFE0
7FE03FE0
7FC03FE0
7F801FF0
7F801FF0
00001FF0
00001FF0
00001FF0
00001FF0
00001FF0
00001FF0
00001FF0
00001FF0
FF801FF0
FF801FF0
FF801FF0
FF801FF0
FFC01FF0
7FC01FE0
7FC03FE0
7FE03FE0
7FE07FE0
3FFFFFC0
3FFFFFC0
1FFFFF80
1FFFFF00
0FFFFE00
03FFFC00
00FFF000
00020000
ENDCHAR
STARTCHAR 0036
ENCODING 54
SWIDTH 510 0
DWIDTH 34 0
BBX 29 56 3 -1
BITMAP
00020000
007FF800
01FFFE00
07FFFF00
0FFFFF80
0FFFFFC0
1FFFFFE0
1FFFFFE0
3FF03FE0
3FE03FF0
7FE01FF0
7FC01FF0
7FC01FF0
7FC01FF0
7FC01FF0
7FC00000
FFC00000
FFC00000
FFC00000
FFC00000
FFC00000
FFC00000
FFC3F800
FFCFFE00
FFFFFF00
FFFFFF80
FFFFFFC0
FFFFFFE0
FFFFFFE0
FFF07FF0
FFE03FF0
FFC01FF0
FFC01FF0
FFC01FF0
FFC01FF8
FFC01FF8
FFC01FF8
FFC01FF8
FFC01FF8
FFC01FF8
7FC01FF8
7FC01FF0
7FC01FF0
7FC01FF0
7FC01FF0
7FC01FF0
3FE03FE0
3FF07FE0
1FFFFFE0
1FFFFFC0
0FFFFF80
07FFFF80
03FFFF00
01FFFC00
007FF000
00020000
ENDCHAR
STARTCHAR 0037
ENCODING 55
SWIDTH 435 0
DWIDTH 29 0
BBX 23 54 3 0
BITMAP
FFFFFE
FFFFFE
FFFFFE
FFFFFE
FFFFFE
FFFFFE
FFFFFE
0003FE
0003FC
0007FC
0007FC
0007FC
0007FC
0007F8
000FF8
000FF8
000FF8
000FF0
001FF0
001FF0
001FF0
001FF0
003FE0
003FE0
003FE0
003FE0
003FC0
007FC0
007FC0
007FC0
007FC0
00FF80
00FF80
00FF80
00FF80
00FF00
01FF00
01FF00
01FF00
01FF00
03FE00
03FE00
03FE00
03FE00
03FE00
07FC00
07FC00
07FC00
07FC00
0FF800
0FF800
0FF800
0FF800
1FF800
ENDCHAR
STARTCHAR 0038
ENCODING 56
SWIDTH 510 0
DWIDTH 34 0
BBX 28 56 3 -1
BITMAP
00040000
00FFF000
03FFFC00
07FFFE00
0FFFFF00
1FFFFF80
3FFFFF80
3FFFFFC0
7FE0FFC0
7FC07FC0
7FC03FE0
7FC03FE0
FF803FE0
FF803FE0
FF803FE0
FF803FE0
7F803FE0
7F803FE0
7FC03FE0
7FC07FC0
7FC07FC0
3FE07FC0
3FF0FF80
1FFFFF80
0FFFFF00
07FFFE00
03FFFC00
07FFFE00
0FFFFF00
1FFFFF80
3FFFFFC0
7FF0FFC0
7FC07FE0
FFC03FE0
FF803FE0
FF803FF0
FF801FF0
FF801FF0
FF801FF0
FF801FF0
FF801FF0
FF801FF0
FF801FF0
FF801FF0
FF803FE0
FF803FE0
FFC03FE0
7FE07FE0
7FFFFFC0
3FFFFFC0
3FFFFF80
1FFFFF00
0FFFFE00
07FFFC00
00FFF000
00040000
ENDCHAR
STARTCHAR 0039
ENCODING 57
SWIDTH 510 0
DWIDTH 34 0
BBX 28 56 3 -1
BITMAP
00040000
00FFF000
03FFFC00
07FFFE00
0FFFFF00
1FFFFF80
3FFFFF80
3FFFFFC0
7FE07FC0
7FE07FE0
7FC03FE0
7FC03FE0
FFC03FF0
FF801FF0
FF801FF0
FF801FF0
FF801FF0
FF801FF0
FF801FF0
FF801FF0
FF801FF0
FF801FF0
FF801FF0
FFC01FF0
FFC01FF0
7FC03FF0
7FE07FF0
7FF9FFF0
3FFFFFF0
3FFFFFF0
1FFFFFF0
0FFFDFF0
07FF9FF0
00FE1FF0
00001FF0
00001FF0
00001FF0
00001FF0
00001FF0
00001FF0
00001FF0
FF801FF0
FF803FF0
FF803FF0
FF803FE0
7FC03FE0
7FC07FE0
7FE07FC0
7FFFFFC0
3FFFFF80
3FFFFF80
1FFFFF00
0FFFFE00
03FFFC00
00FFF000
00040000
ENDCHAR
STARTCHAR 003A
ENCODING 58
SWIDTH 240 0
DWIDTH 16 0
BBX 9 31 4 5
BITMAP
FF80
FF80
FF80
FF80
FF80
FF80
FF80
FF80
FF80
0000
0000
0000
0000
0000
0000
0000
0000
0000
0000
0000
0000
0000
FF80
FF80
FF80
FF80
FF80
FF80
FF80
FF80
FF80
ENDCHAR
STARTCHAR 003B
ENCODING 59
SWIDTH 255 0
DWIDTH 17 0
BBX 9 44 4 -6
BITMAP
FF80
FF80
FF80
FF80
FF80
FF80
FF80
FF80
FF80
0000
0000
0000
0000
0000
0000
0000
0000
0000
0000
0000
0000
0000
0000
0000
0000
0000
FF80
FF80
FF80
FF80
FF80
FF80
FF80
FF80
FF80
0780
0780
0F80
0F80
1F00
FF00
7E00
7C00
4000
ENDCHAR
STARTCHAR 003C
ENCODING 60
SWIDTH 390 0
DWIDTH 26 0
BBX 20 36 2 3
BITMAP
000010
000030
000070
0000F0
0003F0
0007F0
001FF0
003FF0
00FFF0
01FFE0
07FFC0
0FFF00
3FFE00
7FF800
FFF000
FFC000
FF8000
FF0000
FE0000
FF8000
FFC000
FFE000
FFF800
3FFC00
1FFF00
07FF80
03FFE0
00FFF0
007FF0
003FF0
000FF0
0007F0
0001F0
0000F0
000030
000010
ENDCHAR
STARTCHAR 003D
ENCODING 61
SWIDTH 435 0
DWIDTH 29 0
BBX 21 18 4 19
BITMAP
FFFFF8
FFFFF8
FFFFF8
FFFFF8
FFFFF8
FFFFF8
000000
000000
000000
000000
000000
000000
FFFFF8
FFFFF8
FFFFF8
FFFFF8
FFFFF8
FFFFF8
ENDCHAR
STARTCHAR 003E
ENCODING 62
SWIDTH 390 0
DWIDTH 26 0
BBX 21 36 3 3
BITMAP
800000
400000
700000
780000
7E0000
7F0000
7FC000
7FE000
7FF800
3FFC00
1FFE00
0FFF80
03FFC0
01FFF0
007FF8
003FF8
000FF8
0007F8
0003F8
000FF8
001FF8
007FF8
00FFF0
01FFE0
07FFC0
0FFF00
3FFE00
7FF800
7FF000
7FC000
7F8000
7E0000
7C0000
700000
600000
400000
ENDCHAR
STARTCHAR 003F
ENCODING 63
SWIDTH 495 0
DWIDTH 33 0
BBX 27 55 3 0
BITMAP
00080000
01FFE000
07FFF800
0FFFFE00
1FFFFF00
3FFFFF80
7FFFFF80
7FFFFFC0
FFFFFFC0
FFC0FFE0
FF807FE0
FF803FE0
FF803FE0
FF803FE0
FF803FE0
FF803FE0
FF803FE0
78003FE0
00003FE0
00007FC0
00007FC0
0000FFC0
0000FF80
0001FF80
0001FF00
0003FF00
0007FE00
000FFC00
001FF800
003FF000
007FF000
00FFE000
01FFC000
01FF0000
01FE0000
01FE0000
01FE0000
01FE0000
01FE0000
01FE0000
01FE0000
00000000
00000000
00000000
00000000
00000000
03FE0000
03FE0000
03FE0000
03FE0000
03FE0000
03FE0000
03FE0000
03FE0000
03FE0000
ENDCHAR
STARTCHAR 0040
ENCODING 64
SWIDTH 945 0
DWIDTH 63 0
BBX 56 63 4 -9
BITMAP
0000007FF80000
000007FFFF8000
00003FFFFFE000
0000FFFFFFF800
0003FFFFFFFE00
0007FFFFFFFF00
001FFFF07FFF80
003FFE0003FFC0
007FF800007FE0
00FFE000003FF0
01FFC000000FF0
01FF00000007F8
03FE00000003F8
07FC00000003FC
07F8003F9FC1FC
0FF800FFDFC1FE
0FF003FFFFC0FE
1FE007FFFFC0FE
1FE00FFFFFC07E
3FC00FFFFFC07F
3FC01FFC3F807F
3FC03FF07F807F
7F803FE07F807F
7F807FC07F807F
7F807F807F803F
7F00FF807F803F
7F00FF007F803F
FF00FF007F003F
FF01FF00FF007F
FF01FE00FF007F
FF01FE00FF007F
FE01FE00FF007F
FE01FE00FF007E
FE01FE00FF007E
FE01FE00FE00FE
FE03FE01FE00FE
FE01FE01FE00FC
FE01FE01FE01FC
FE01FE03FE03F8
FE01FF03FE03F8
FF01FF8FFE07F0
FF00FFFFFE0FE0
FF00FFFEFE3FE0
7F007FFEFFFFC0
7F807FFEFFFF80
7F803FFC7FFE00
7F800FF83FFC00
3FC003C00FE000
3FE00000000000
1FE00000000000
1FF00000000000
0FF80000000000
0FFC0000000000
07FF0000000000
03FF8000000000
01FFF000038000
00FFFFE3FFC000
007FFFFFFFC000
001FFFFFFFC000
000FFFFFFFC000
0003FFFFFFE000
00007FFFFF0000
000007FFC00000
ENDCHAR
STARTCHAR 0041
ENCODING 65
SWIDTH 525 0
DWIDTH 35 0
BBX 33 54 1 0
BITMAP
001FFC0000
001FFC0000
001FFC0000
001FFC0000
003FFE0000
003FFE0000
003FFE0000
003FFE0000
003FFE0000
007FFF0000
007FFF0000
007FFF0000
007FFF0000
007FFF0000
00FFFF8000
00FF7F8000
00FF7F8000
00FF7F8000
01FE7F8000
01FE7FC000
01FE7FC000
01FE3FC000
01FE3FC000
03FE3FC000
03FC3FE000
03FC3FE000
03FC1FE000
03FC1FE000
07FC1FE000
07FC1FF000
07F81FF000
07F81FF000
07F80FF000
0FF80FF000
0FF80FF800
0FFFFFF800
0FFFFFF800
0FFFFFF800
1FFFFFF800
1FFFFFFC00
1FFFFFFC00
1FF007FC00
1FF007FC00
3FE003FC00
3FE003FE00
3FE003FE00
3FE003FE00
3FE003FE00
7FE003FE00
7FC001FF00
7FC001FF00
7FC001FF00
7FC001FF00
FFC001FF80
ENDCHAR
STARTCHAR 0042
ENCODING 66
SWIDTH 555 0
DWIDTH 37 0
BBX 31 54 4 0
BITMAP
FFFFE000
FFFFFC00
FFFFFF00
FFFFFFC0
FFFFFFC0
FFFFFFE0
FFC3FFF0
FFC03FF0
FFC01FF8
FFC00FF8
FFC00FF8
FFC00FF8
FFC007F8
FFC007F8
FFC007F8
FFC007F8
FFC00FF8
FFC00FF8
FFC00FF8
FFC00FF0
FFC01FF0
FFC03FF0
FFC1FFE0
FFFFFFC0
FFFFFF00
FFFFFC00
FFFFFF80
FFFFFFC0
FFFFFFF0
FFC07FF0
FFC01FF8
FFC00FFC
FFC00FFC
FFC007FC
FFC007FC
FFC007FE
FFC007FE
FFC007FE
FFC007FE
FFC007FE
FFC007FE
FFC007FE
FFC007FE
FFC007FC
FFC00FFC
FFC00FFC
FFC01FF8
FFC0FFF8
FFFFFFF0
FFFFFFF0
FFFFFFE0
FFFFFF80
FFFFFF00
FFFFF000
ENDCHAR
STARTCHAR 0043
ENCODING 67
SWIDTH 540 0
DWIDTH 36 0
BBX 30 56 3 -1
BITMAP
00010000
007FFC00
01FFFF00
07FFFFC0
0FFFFFE0
1FFFFFF0
1FFFFFF0
3FFFFFF8
3FF01FF8
7FE00FFC
7FE00FFC
7FE007FC
7FC007FC
FFC007FC
FFC007FC
FFC007FC
FFC007FC
FFC007FC
FFC007FC
FFC007FC
FFC007FC
FFC00000
FFC00000
FFC00000
FFC00000
FFC00000
FFC00000
FFC00000
FFC00000
FFC00000
FFC00000
FFC00000
FFC00000
FFC00000
FFC00000
FFC007FC
FFC007FC
FFC007FC
FFC007FC
FFC007FC
FFC007FC
FFC007FC
FFC007FC
7FC007FC
7FE00FFC
7FE00FFC
7FE00FF8
3FF01FF8
3FFFFFF8
1FFFFFF0
1FFFFFF0
0FFFFFE0
07FFFFC0
01FFFF00
007FFC00
00010000
ENDCHAR
STARTCHAR 0044
ENCODING 68
SWIDTH 555 0
DWIDTH 37 0
BBX 30 54 4 0
BITMAP
FFFFE000
FFFFFC00
FFFFFF00
FFFFFFC0
FFFFFFE0
FFFFFFE0
FFFFFFF0
FFC07FF0
FFC03FF8
FFC01FF8
FFC01FF8
FFC00FF8
FFC00FFC
FFC00FFC
FFC00FFC
FFC00FFC
FFC00FFC
FFC00FFC
FFC00FFC
FFC00FFC
FFC00FFC
FFC00FFC
FFC00FFC
FFC00FFC
FFC00FFC
FFC00FFC
FFC00FFC
FFC00FFC
FFC00FFC
FFC00FFC
FFC00FFC
FFC00FFC
FFC00FFC
FFC00FFC
FFC00FFC
FFC00FFC
FFC00FFC
FFC00FFC
FFC00FFC
FFC00FFC
FFC00FFC
FFC00FFC
FFC00FF8
FFC01FF8
FFC01FF8
FFC03FF8
FFC03FF0
FFC3FFF0
FFFFFFE0
FFFFFFC0
FFFFFF80
FFFFFF00
FFFFFC00
FFFFE000
ENDCHAR
STARTCHAR 0045
ENCODING 69
SWIDTH 435 0
DWIDTH 29 0
BBX 23 54 4 0
BITMAP
FFFFFE
FFFFFE
FFFFFE
FFFFFE
FFFFFE
FFFFFE
FFC000
FFC000
FFC000
FFC000
FFC000
FFC000
FFC000
FFC000
FFC000
FFC000
FFC000
FFC000
FFC000
FFC000
FFC000
FFC000
FFC000
FFFFF0
FFFFF0
FFFFF0
FFFFF0
FFFFF0
FFFFF0
FFC000
FFC000
FFC000
FFC000
FFC000
FFC000
FFC000
FFC000
FFC000
FFC000
FFC000
FFC000
FFC000
FFC000
FFC000
FFC000
FFC000
FFC000
FFC000
FFFFFE
FFFFFE
FFFFFE
FFFFFE
FFFFFE
FFFFFE
ENDCHAR
STARTCHAR 0046
ENCODING 70
SWIDTH 405 0
DWIDTH 27 0
BBX 22 54 4 0
BITMAP
FFFFFC
FFFFFC
FFFFFC
FFFFFC
FFFFFC
FFFFFC
FFC000
FFC000
FFC000
FFC000
FFC000
FFC000
FFC000
FFC000
FFC000
FFC000
FFC000
FFC000
FFC000
FFC000
FFC000
FFC000
FFC000
FFFFF0
FFFFF0
FFFFF0
FFFFF0
FFFFF0
FFFFF0
FFC000
FFC000
FFC000
FFC000
FFC000
FFC000
FFC000
FFC000
FFC000
FFC000
FFC000
FFC000
FFC000
FFC000
FFC000
FFC000
FFC000
FFC000
FFC000
FFC000
FFC000
FFC000
FFC000
FFC000
FFC000
ENDCHAR
STARTCHAR 0047
ENCODING 71
SWIDTH 555 0
DWIDTH 37 0
BBX 31 56 3 -1
BITMAP
00010000
007FFE00
01FFFF80
07FFFFC0
0FFFFFE0
1FFFFFF0
1FFFFFF8
3FFFFFF8
3FF01FFC
7FE00FFC
7FE007FC
7FE007FC
7FC007FC
7FC007FE
FFC007FE
FFC007FE
FFC007FE
FFC007FE
FFC007FE
FFC00000
FFC00000
FFC00000
FFC00000
FFC00000
FFC00000
FFC00000
FFC00000
FFC00000
FFC0FFFE
FFC0FFFE
FFC0FFFE
FFC0FFFE
FFC0FFFE
FFC0FFFE
FFC003FE
FFC003FE
FFC003FE
FFC003FE
FFC003FE
FFC003FE
FFC003FE
FFC003FE
7FC003FE
7FE003FE
7FE007FE
7FE007FE
7FF00FFE
3FF01FFE
3FFFFFFE
1FFFFFFE
1FFFFEFE
0FFFFEFE
07FFFCFE
03FFF8FE
00FFF0FE
00020000
ENDCHAR
STARTCHAR 0048
ENCODING 72
SWIDTH 585 0
DWIDTH 39 0
BBX 31 54 4 0
BITMAP
FFC007FE
FFC007FE
FFC007FE
FFC007FE
FFC007FE
FFC007FE
FFC007FE
FFC007FE
FFC007FE
FFC007FE
FFC007FE
FFC007FE
FFC007FE
FFC007FE
FFC007FE
FFC007FE
FFC007FE
FFC007FE
FFC007FE
FFC007FE
FFC007FE
FFC007FE
FFC007FE
FFFFFFFE
FFFFFFFE
FFFFFFFE
FFFFFFFE
FFFFFFFE
FFFFFFFE
FFFFFFFE
FFC007FE
FFC007FE
FFC007FE
FFC007FE
FFC007FE
FFC007FE
FFC007FE
FFC007FE
FFC007FE
FFC007FE
FFC007FE
FFC007FE
FFC007FE
FFC007FE
FFC007FE
FFC007FE
FFC007FE
FFC007FE
FFC007FE
FFC007FE
FFC007FE
FFC007FE
FFC007FE
FFC007FE
ENDCHAR
STARTCHAR 0049
ENCODING 73
SWIDTH 270 0
DWIDTH 18 0
BBX 10 54 4 0
BITMAP
FFC0
FFC0
FFC0
FFC0
FFC0
FFC0
FFC0
FFC0
FFC0
FFC0
FFC0
FFC0
FFC0
FFC0
FFC0
FFC0
FFC0
FFC0
FFC0
FFC0
FFC0
FFC0
FFC0
FFC0
FFC0
FFC0
FFC0
FFC0
FFC0
FFC0
FFC0
FFC0
FFC0
FFC0
FFC0
FFC0
FFC0
FFC0
FFC0
FFC0
FFC0
FFC0
FFC0
FFC0
FFC0
FFC0
FFC0
FFC0
FFC0
FFC0
FFC0
FFC0
FFC0
FFC0
ENDCHAR
STARTCHAR 004A
ENCODING 74
SWIDTH 330 0
DWIDTH 22 0
BBX 17 55 1 -1
BITMAP
01FF80
01FF80
01FF80
01FF80
01FF80
01FF80
01FF80
01FF80
01FF80
01FF80
01FF80
01FF80
01FF80
01FF80
01FF80
01FF80
01FF80
01FF80
01FF80
01FF80
01FF80
01FF80
01FF80
01FF80
01FF80
01FF80
01FF80
01FF80
01FF80
01FF80
01FF80
01FF80
01FF80
01FF80
01FF80
01FF80
01FF80
01FF80
01FF80
01FF80
01FF80
01FF80
01FF80
01FF80
01FF80
03FF00
03FF00
0FFF00
FFFF00
FFFE00
FFFE00
FFFC00
FFF800
FFE000
F00000
ENDCHAR
STARTCHAR 004B
ENCODING 75
SWIDTH 540 0
DWIDTH 36 0
BBX 31 54 4 0
BITMAP
FFC007FC
FFC00FF8
FFC00FF8
FFC01FF8
FFC01FF0
FFC03FF0
FFC03FE0
FFC07FE0
FFC07FC0
FFC07FC0
FFC0FFC0
FFC0FF80
FFC1FF80
FFC1FF00
FFC3FF00
FFC3FE00
FFC7FE00
FFC7FE00
FFCFFC00
FFCFFC00
FFDFF800
FFDFF800
FFFFF000
FFFFF000
FFFFF000
FFFFF000
FFFFF800
FFFFF800
FFFFF800
FFEFFC00
FFEFFC00
FFC7FE00
FFC7FE00
FFC7FE00
FFC3FF00
FFC3FF00
FFC1FF80
FFC1FF80
FFC1FF80
FFC0FFC0
FFC0FFC0
FFC0FFE0
FFC07FE0
FFC07FE0
FFC03FF0
FFC03FF0
FFC03FF8
FFC01FF8
FFC01FF8
FFC00FFC
FFC00FFC
FFC00FFE
FFC007FE
FFC007FE
ENDCHAR
STARTCHAR 004C
ENCODING 76
SWIDTH 420 0
DWIDTH 28 0
BBX 23 54 4 0
BITMAP
FFC000
FFC000
FFC000
FFC000
FFC000
FFC000
FFC000
FFC000
FFC000
FFC000
FFC000
FFC000
FFC000
FFC000
FFC000
FFC000
FFC000
FFC000
FFC000
FFC000
FFC000
FFC000
FFC000
FFC000
FFC000
FFC000
FFC000
FFC000
FFC000
FFC000
FFC000
FFC000
FFC000
FFC000
FFC000
FFC000
FFC000
FFC000
FFC000
FFC000
FFC000
FFC000
FFC000
FFC000
FFC000
FFC000
FFC000
FFC000
FFFFFE
FFFFFE
FFFFFE
FFFFFE
FFFFFE
FFFFFE
ENDCHAR
STARTCHAR 004D
ENCODING 77
SWIDTH 690 0
DWIDTH 46 0
BBX 38 54 4 0
BITMAP
7FE0001FF8
7FE0001FF8
7FF0001FF8
7FF0001FF8
7FF0003FF8
7FF0003FF8
7FF0003FF8
7FF8003FF8
7FF8003FF8
7FF8007FF8
7FF8007FF8
7FF8007FF8
7FFC007FF8
7FFC00FFF8
7FFC00FFF8
7FFC00FFF8
7FFC00FFF8
7FFE01FFF8
7FFE01FBF8
7FFE01FBF8
FFFE01FBF8
FF7E01FBF8
FF7F03F3F8
FF7F03F3F8
FF7F03F3F8
FF3F03F3F8
FF3F07F3F8
FF3F87E3F8
FF3F87E3F8
FF3F87E3F8
FF1F87E3F8
FF1F8FE3F8
FF1FCFC3F8
FF1FCFC3F8
FF0FCFC3F8
FF0FDFC3F8
FF0FFFC3F8
FF0FFF83F8
FF0FFF83F8
FF07FF83FC
FF07FF83FC
FF07FF03FC
FF07FF03FC
FF03FF03FC
FF03FF03FC
FF03FF03FC
FF03FE03FC
FF01FE03FC
FF01FE03FC
FF01FE03FC
FF01FE03FC
FF01FC03FC
FF00FC03FC
FF00FC03FC
ENDCHAR
STARTCHAR 004E
ENCODING 78
SWIDTH 540 0
DWIDTH 36 0
BBX 28 54 4 0
BITMAP
FE000FF0
FF000FF0
FF000FF0
FF000FF0
FF800FF0
FF800FF0
FFC00FF0
FFC00FF0
FFE00FF0
FFE00FF0
FFF00FF0
FFF00FF0
FFF00FF0
FFF80FF0
FFF80FF0
FFFC0FF0
FFFC0FF0
FFFE0FF0
FFFE0FF0
FFFF0FF0
FFFF0FF0
FFFF0FF0
FFFF8FF0
FF7F8FF0
FF7FCFF0
FF7FCFF0
FF3FEFF0
FF3FEFF0
FF1FFFF0
FF1FFFF0
FF0FFFF0
FF0FFFF0
FF07FFF0
FF07FFF0
FF07FFF0
FF03FFF0
FF03FFF0
FF01FFF0
FF01FFF0
FF00FFF0
FF00FFF0
FF00FFF0
FF007FF0
FF007FF0
FF003FF0
FF003FF0
FF001FF0
FF001FF0
FF001FF0
FF000FF0
FF000FF0
FF0007F0
FF0007F0
FF0003F0
ENDCHAR
STARTCHAR 004F
ENCODING 79
SWIDTH 570 0
DWIDTH 38 0
BBX 31 56 3 -1
BITMAP
00010000
007FFE00
01FFFF80
07FFFFC0
0FFFFFE0
1FFFFFF0
1FFFFFF8
3FFFFFF8
3FF01FFC
7FE00FFC
7FE007FE
7FE007FE
7FC007FE
FFC007FE
FFC007FE
FFC007FE
FFC007FE
FFC007FE
FFC007FE
FFC007FE
FFC007FE
FFC007FE
FFC007FE
FFC007FE
FFC007FE
FFC007FE
FFC007FE
FFC007FE
FFC007FE
FFC007FE
FFC007FE
FFC007FE
FFC007FE
FFC007FE
FFC007FE
FFC007FE
FFC007FE
FFC007FE
FFC007FE
FFC007FE
FFC007FE
FFC007FE
FFC007FE
7FC007FE
7FE007FE
7FE007FE
7FE00FFC
3FF01FFC
3FFFFFF8
1FFFFFF8
1FFFFFF0
0FFFFFE0
07FFFFC0
01FFFF80
007FFE00
00010000
ENDCHAR
STARTCHAR 0050
ENCODING 80
SWIDTH 525 0
DWIDTH 35 0
BBX 30 54 4 0
BITMAP
FFFFF000
FFFFFE00
FFFFFF80
FFFFFFC0
FFFFFFE0
FFFFFFE0
FFC3FFF0
FFC03FF0
FFC01FF8
FFC00FF8
FFC00FF8
FFC00FF8
FFC00FF8
FFC00FF8
FFC00FFC
FFC00FFC
FFC00FFC
FFC00FF8
FFC00FF8
FFC00FF8
FFC00FF8
FFC01FF8
FFC03FF0
FFC3FFF0
FFFFFFE0
FFFFFFE0
FFFFFFC0
FFFFFF00
FFFFFE00
FFFFF000
FFC00000
FFC00000
FFC00000
FFC00000
FFC00000
FFC00000
FFC00000
FFC00000
FFC00000
FFC00000
FFC00000
FFC00000
FFC00000
FFC00000
FFC00000
FFC00000
FFC00000
FFC00000
FFC00000
FFC00000
FFC00000
FFC00000
FFC00000
FFC00000
ENDCHAR
STARTCHAR 0051
ENCODING 81
SWIDTH 570 0
DWIDTH 38 0
BBX 31 66 3 -11
BITMAP
00010000
007FFE00
01FFFF80
07FFFFC0
0FFFFFE0
1FFFFFF0
1FFFFFF8
3FFFFFF8
3FF01FFC
7FE00FFC
7FE007FE
7FE007FE
7FC007FE
FFC007FE
FFC007FE
FFC007FE
FFC007FE
FFC007FE
FFC007FE
FFC007FE
FFC007FE
FFC007FE
FFC007FE
FFC007FE
FFC007FE
FFC007FE
FFC007FE
FFC007FE
FFC007FE
FFC007FE
FFC007FE
FFC007FE
FFC007FE
FFC007FE
FFC007FE
FFC007FE
FFC007FE
FFC007FE
FFC007FE
FFC007FE
FFC007FE
FFC007FE
FFC007FE
7FC007FE
7FE007FE
7FE007FE
7FE00FFC
3FF01FFC
3FFFFFF8
1FFFFFF8
1FFFFFF0
0FFFFFE0
07FFFFC0
01FFFF80
007FFF00
00017F80
00003FC0
00003FE0
00001FF0
00000FF8
000007F8
000003F0
000001F0
000000F0
00000070
00000010
ENDCHAR
STARTCHAR 0052
ENCODING 82
SWIDTH 555 0
DWIDTH 37 0
BBX 31 54 4 0
BITMAP
FFFFE000
FFFFFC00
FFFFFF00
FFFFFFC0
FFFFFFE0
FFFFFFF0
FFC3FFF0
FFC03FF8
FFC01FF8
FFC00FF8
FFC00FF8
FFC00FFC
FFC00FFC
FFC00FFC
FFC00FFC
FFC00FFC
FFC00FFC
FFC00FFC
FFC00FF8
FFC00FF8
FFC01FF8
FFC03FF8
FFC0FFF0
FFFFFFF0
FFFFFFE0
FFFFFFC0
FFFFFF80
FFFFFE00
FFFFFF00
FFC3FF00
FFC3FF00
FFC1FF00
FFC1FF80
FFC1FF80
FFC1FF80
FFC0FF80
FFC0FFC0
FFC0FFC0
FFC0FFC0
FFC07FE0
FFC07FE0
FFC07FE0
FFC03FE0
FFC03FF0
FFC03FF0
FFC03FF0
FFC01FF8
FFC01FF8
FFC01FF8
FFC00FF8
FFC00FFC
FFC00FFC
FFC00FFC
FFC007FE
ENDCHAR
STARTCHAR 0053
ENCODING 83
SWIDTH 495 0
DWIDTH 33 0
BBX 28 56 3 -1
BITMAP
00040000
01FFF000
07FFFC00
0FFFFE00
1FFFFF00
3FFFFF80
7FFFFF80
7FFBFFC0
FFC07FC0
FFC07FC0
FF803FE0
FF803FE0
FF801FE0
FF801FE0
FF801FE0
FF801F80
FFC01000
FFE00000
FFE00000
7FF00000
7FF80000
3FFE0000
3FFF0000
1FFF8000
0FFFC000
07FFE000
03FFF000
01FFF800
00FFFC00
003FFE00
001FFF00
000FFF80
0007FFC0
0003FFC0
0001FFE0
0000FFE0
00007FE0
03003FF0
7F003FF0
FF003FF0
FF801FF0
FF801FF0
FF801FF0
FF801FF0
FFC01FF0
7FC03FF0
7FE07FF0
7FFFFFE0
3FFFFFE0
3FFFFFC0
1FFFFFC0
0FFFFF80
07FFFF00
03FFFC00
007FF000
00020000
ENDCHAR
STARTCHAR 0054
ENCODING 84
SWIDTH 420 0
DWIDTH 28 0
BBX 28 54 0 0
BITMAP
FFFFFFF0
FFFFFFF0
FFFFFFF0
FFFFFFF0
FFFFFFF0
FFFFFFF0
FFFFFFF0
007FE000
007FE000
007FE000
007FE000
007FE000
007FE000
007FE000
007FE000
007FE000
007FE000
007FE000
007FE000
007FE000
007FE000
007FE000
007FE000
007FE000
007FE000
007FE000
007FE000
007FE000
007FE000
007FE000
007FE000
007FE000
007FE000
007FE000
007FE000
007FE000
007FE000
007FE000
007FE000
007FE000
007FE000
007FE000
007FE000
007FE000
007FE000
007FE000
007FE000
007FE000
007FE000
007FE000
007FE000
007FE000
007FE000
007FE000
ENDCHAR
STARTCHAR 0055
ENCODING 85
SWIDTH 570 0
DWIDTH 38 0
BBX 30 55 4 -1
BITMAP
FF8007FC
FF8007FC
FF8007FC
FF8007FC
FF8007FC
FF8007FC
FF8007FC
FF8007FC
FF8007FC
FF8007FC
FF8007FC
FF8007FC
FF8007FC
FF8007FC
FF8007FC
FF8007FC
FF8007FC
FF8007FC
FF8007FC
FF8007FC
FF8007FC
FF8007FC
FF8007FC
FF8007FC
FF8007FC
FF8007FC
FF8007FC
FF8007FC
FF8007FC
FF8007FC
FF8007FC
FF8007FC
FF8007FC
FF8007FC
FF8007FC
FF8007FC
FF8007FC
FF8007FC
FF800FFC
FF800FFC
FF800FFC
FF800FFC
FFC00FFC
FFC00FF8
FFC00FF8
7FE01FF8
7FF03FF8
3FFFFFF0
3FFFFFF0
1FFFFFE0
1FFFFFC0
0FFFFF80
03FFFF00
00FFFC00
00020000
ENDCHAR
STARTCHAR 0056
ENCODING 86
SWIDTH 525 0
DWIDTH 35 0
BBX 31 54 2 0
BITMAP
FF0003FE
FF8003FE
FF8003FE
FF8003FC
FF8007FC
7F8007FC
7FC007FC
7FC007FC
7FC007F8
7FC00FF8
3FC00FF8
3FC00FF8
3FE00FF8
3FE00FF0
3FE00FF0
1FE01FF0
1FE01FF0
1FF01FF0
1FF01FE0
1FF01FE0
0FF03FE0
0FF03FE0
0FF83FE0
0FF83FC0
07F83FC0
07F83FC0
07F87FC0
07FC7FC0
07FC7F80
03FC7F80
03FC7F80
03FC7F80
03FCFF00
03FEFF00
01FEFF00
01FEFF00
01FEFF00
01FFFE00
01FFFE00
00FFFE00
00FFFE00
00FFFE00
00FFFC00
00FFFC00
007FFC00
007FFC00
007FFC00
007FF800
007FF800
003FF800
003FF800
003FF800
003FF000
003FF000
ENDCHAR
STARTCHAR 0057
ENCODING 87
SWIDTH 720 0
DWIDTH 48 0
BBX 44 54 2 0
BITMAP
FF801F800FF0
FF801FC00FF0
7F801FC01FF0
7F801FC01FE0
7F803FC01FE0
7F803FC01FE0
7F803FE01FE0
7F803FE01FE0
7FC03FE01FE0
3FC03FE01FE0
3FC07FE03FC0
3FC07FE03FC0
3FC07FF03FC0
3FC07FF03FC0
3FC07FF03FC0
3FC0FFF03FC0
1FE0FFF03FC0
1FE0FFF87F80
1FE0FFF87F80
1FE0FFF87F80
1FE0FFF87F80
1FE1FFF87F80
1FE1FBFC7F80
0FE1F9FC7F80
0FF1F9FC7F00
0FF1F9FCFF00
0FF3F9FCFF00
0FF3F1FCFF00
0FF3F0FEFF00
0FF3F0FEFF00
07F3F0FEFF00
07FBF0FEFE00
07FFE0FEFE00
07FFE0FFFE00
07FFE07FFE00
07FFE07FFE00
07FFE07FFE00
03FFE07FFE00
03FFC07FFC00
03FFC03FFC00
03FFC03FFC00
03FFC03FFC00
03FFC03FFC00
03FF803FFC00
01FF801FFC00
01FF801FF800
01FF801FF800
01FF801FF800
01FF801FF800
01FF001FF800
01FF000FF800
00FF000FF800
00FF000FF000
00FF000FF000
ENDCHAR
STARTCHAR 0058
ENCODING 88
SWIDTH 495 0
DWIDTH 33 0
BBX 32 54 1 0
BITMAP
FF8003FE
FFC003FC
7FC003FC
7FE007FC
3FE007F8
3FF007F8
3FF00FF0
1FF00FF0
1FF81FF0
0FF81FE0
0FFC1FE0
07FC3FC0
07FE3FC0
07FE3FC0
03FF7F80
03FF7F80
01FFFF00
01FFFF00
00FFFF00
00FFFE00
00FFFE00
007FFC00
007FFC00
003FFC00
003FF800
001FF800
003FF000
003FF800
007FF800
007FFC00
007FFC00
00FFFC00
00FFFE00
01FFFE00
01FFFF00
01FFFF00
03FFFF80
03FDFF80
03FCFF80
07FCFFC0
07F87FC0
0FF87FE0
0FF03FE0
0FF03FF0
1FF03FF0
1FE01FF0
1FE01FF8
3FE00FF8
3FC00FFC
7FC007FC
7F8007FE
7F8007FE
FF8003FF
FF0003FF
ENDCHAR
STARTCHAR 0059
ENCODING 89
SWIDTH 495 0
DWIDTH 33 0
BBX 31 54 1 0
BITMAP
FF8003FE
FF8003FE
FFC007FC
7FC007FC
7FC007FC
7FE00FF8
3FE00FF8
3FE00FF8
3FF01FF0
1FF01FF0
1FF01FF0
1FF81FE0
0FF83FE0
0FF83FC0
0FFC3FC0
07FC7FC0
07FC7F80
07FE7F80
03FEFF80
03FEFF00
03FFFF00
01FFFF00
01FFFE00
01FFFE00
00FFFE00
00FFFC00
00FFFC00
007FFC00
007FF800
007FF800
003FF800
003FF000
003FF000
001FF000
001FF000
001FF000
001FF000
001FF000
001FF000
001FF000
001FF000
001FF000
001FF000
001FF000
001FF000
001FF000
001FF000
001FF000
001FF000
001FF000
001FF000
001FF000
001FF000
001FF000
ENDCHAR
STARTCHAR 005A
ENCODING 90
SWIDTH 420 0
DWIDTH 28 0
BBX 25 54 2 0
BITMAP
7FFFFF80
7FFFFF80
7FFFFF80
7FFFFF80
7FFFFF80
7FFFFF80
0001FF00
0003FF00
0003FE00
0003FE00
0007FE00
0007FC00
0007FC00
000FFC00
000FF800
000FF800
001FF800
001FF000
001FF000
003FF000
003FE000
003FE000
007FE000
007FC000
00FFC000
00FFC000
00FF8000
01FF8000
01FF0000
01FF0000
03FF0000
03FE0000
03FE0000
07FE0000
07FC0000
07FC0000
0FFC0000
0FF80000
0FF80000
1FF80000
1FF00000
1FF00000
3FF00000
3FE00000
3FE00000
7FE00000
7FC00000
7FC00000
FFFFFF80
FFFFFF80
FFFFFF80
FFFFFF80
FFFFFF80
FFFFFF80
ENDCHAR
STARTCHAR 005B
ENCODING 91
SWIDTH 345 0
DWIDTH 23 0
BBX 16 66 4 -12
BITMAP
FFFF
FFFF
FFFF
FFFF
FF00
FF00
FF00
FF00
FF00
FF00
FF00
FF00
FF00
FF00
FF00
FF00
FF00
FF00
FF00
FF00
FF00
FF00
FF00
FF00
FF00
FF00
FF00
FF00
FF00
FF00
FF00
FF00
FF00
FF00
FF00
FF00
FF00
FF00
FF00
FF00
FF00
FF00
FF00
FF00
FF00
FF00
FF00
FF00
FF00
FF00
FF00
FF00
FF00
FF00
FF00
FF00
FF00
FF00
FF00
FF00
FF00
FF00
FFFF
FFFF
FFFF
FFFF
ENDCHAR
STARTCHAR 005C
ENCODING 92
SWIDTH 405 0
DWIDTH 27 0
BBX 22 54 2 0
BITMAP
FE0000
7E0000
7E0000
7F0000
3F0000
3F0000
3F8000
1F8000
1F8000
1F8000
1FC000
0FC000
0FC000
0FE000
07E000
07E000
07E000
07F000
03F000
03F000
03F800
01F800
01F800
01F800
01FC00
00FC00
00FC00
00FE00
007E00
007E00
007E00
007F00
003F00
003F00
003F80
003F80
001F80
001F80
001FC0
000FC0
000FC0
000FE0
000FE0
0007E0
0007E0
0007F0
0003F0
0003F0
0003F8
0003F8
0001F8
0001F8
0001FC
0000FC
ENDCHAR
STARTCHAR 005D
ENCODING 93
SWIDTH 315 0
DWIDTH 21 0
BBX 17 66 1 -12
BITMAP
FFFF80
FFFF80
FFFF80
FFFF80
00FF80
00FF80
00FF80
00FF80
00FF80
00FF80
00FF80
00FF80
00FF80
00FF80
00FF80
00FF80
00FF80
00FF80
00FF80
00FF80
00FF80
00FF80
00FF80
00FF80
00FF80
00FF80
00FF80
00FF80
00FF80
00FF80
00FF80
00FF80
00FF80
00FF80
00FF80
00FF80
00FF80
00FF80
00FF80
00FF80
00FF80
00FF80
00FF80
00FF80
00FF80
00FF80
00FF80
00FF80
00FF80
00FF80
00FF80
00FF80
00FF80
00FF80
00FF80
00FF80
00FF80
00FF80
00FF80
00FF80
00FF80
00FF80
FFFF80
FFFF80
FFFF80
FFFF80
ENDCHAR
STARTCHAR 005E
ENCODING 94
SWIDTH 465 0
DWIDTH 31 0
BBX 27 22 2 32
BITMAP
003FC000
007FC000
007FE000
00FFE000
00FFF000
01FFF000
01FFF000
01FFF800
03FBF800
03FBFC00
07F3FC00
07F1FE00
0FF1FE00
0FE0FE00
1FE0FF00
1FE0FF00
1FC07F80
3FC07F80
3FC07FC0
7F803FC0
7F803FC0
FF001FE0
ENDCHAR
STARTCHAR 005F
ENCODING 95
SWIDTH 360 0
DWIDTH 24 0
BBX 24 6 0 -9
BITMAP
FFFFFF
FFFFFF
FFFFFF
FFFFFF
FFFFFF
FFFFFF
ENDCHAR
STARTCHAR 0060
ENCODING 96
SWIDTH 300 0
DWIDTH 20 0
BBX 14 13 3 41
BITMAP
FFC0
7FC0
3FC0
3FE0
1FE0
0FE0
0FF0
07F0
03F0
03F8
01F8
00F8
00FC
ENDCHAR
STARTCHAR 0061
ENCODING 97
SWIDTH 450 0
DWIDTH 30 0
BBX 25 40 3 -1
BITMAP
00080000
01FFC000
07FFF000
1FFFF800
1FFFFC00
3FFFFE00
7FFFFE00
7FC3FE00
7F81FF00
FF81FF00
FF81FF00
FF81FF00
FF81FF00
0001FF00
0001FF00
0003FF00
000FFF00
007FFF00
01FFFF00
03FFFF00
0FFDFF00
1FF1FF00
3FE1FF00
7FC1FF00
7FC1FF00
FF81FF00
FF81FF00
FF01FF00
FF01FF00
FF01FF00
FF81FF00
FF83FF00
FFFFFF00
FFFFFF00
FFFEFF00
7FFEFF00
3FFCFF80
1FF8FF80
0FF0FF80
01000000
ENDCHAR
STARTCHAR 0062
ENCODING 98
SWIDTH 480 0
DWIDTH 32 0
BBX 25 55 4 -1
BITMAP
FF800000
FF800000
FF800000
FF800000
FF800000
FF800000
FF800000
FF800000
FF800000
FF800000
FF800000
FF800000
FF800000
FF800000
FF800000
FF808000
FF8FF000
FF9FFC00
FFFFFE00
FFFFFE00
FFFFFF00
FFFFFF00
FFC3FF00
FF81FF80
FF80FF80
FF80FF80
FF80FF80
FF80FF80
FF80FF80
FF80FF80
FF80FF80
FF80FF80
FF80FF80
FF80FF80
FF80FF80
FF80FF80
FF80FF80
FF80FF80
FF80FF80
FF80FF80
FF80FF80
FF80FF80
FF80FF80
FF80FF80
FF80FF80
FF80FF80
FF81FF80
FFC1FF00
FFFFFF00
FFFFFF00
FFFFFE00
FFFFFC00
FFBFF800
FF8FF000
00010000
ENDCHAR
STARTCHAR 0063
ENCODING 99
SWIDTH 435 0
DWIDTH 29 0
BBX 24 40 3 -1
BITMAP
000800
03FFC0
0FFFF0
1FFFF8
3FFFFC
3FFFFE
7FFFFE
7FC3FE
FF81FF
FF81FF
FF81FF
FF81FF
FF81FF
FF81FF
FF81FF
FF8000
FF8000
FF8000
FF8000
FF8000
FF8000
FF8000
FF8000
FF8000
FF81FF
FF81FF
FF81FF
FF81FF
FF81FF
FF81FF
FF81FF
7F81FF
7FC3FE
7FFFFE
3FFFFC
3FFFFC
1FFFF8
0FFFF0
03FFC0
000800
ENDCHAR
STARTCHAR 0064
ENCODING 100
SWIDTH 480 0
DWIDTH 32 0
BBX 25 55 3 -1
BITMAP
0000FF80
0000FF80
0000FF80
0000FF80
0000FF80
0000FF80
0000FF80
0000FF80
0000FF80
0000FF80
0000FF80
0000FF80
0000FF80
0000FF80
0000FF80
0040FF80
07F8FF80
0FFEFF80
1FFFFF80
3FFFFF80
7FFFFF80
7FFFFF80
7FE1FF80
FFC0FF80
FF80FF80
FF80FF80
FF80FF80
FF80FF80
FF80FF80
FF80FF80
FF80FF80
FF80FF80
FF80FF80
FF80FF80
FF80FF80
FF80FF80
FF80FF80
FF80FF80
FF80FF80
FF80FF80
FF80FF80
FF80FF80
FF80FF80
FF80FF80
FF80FF80
FF80FF80
FFC0FF80
7FE1FF80
7FFFFF80
7FFFFF80
3FFFFF80
3FFFFF80
1FFEFF80
07F8FF80
00400000
ENDCHAR
STARTCHAR 0065
ENCODING 101
SWIDTH 450 0
DWIDTH 30 0
BBX 24 40 3 -1
BITMAP
000800
03FFC0
0FFFF0
1FFFF8
3FFFFC
3FFFFC
7FFFFE
7FC3FE
7F81FF
FF81FF
FF81FF
FF81FF
FF81FF
FF81FF
FF81FF
FFFFFF
FFFFFF
FFFFFF
FFFFFF
FFFFFF
FF8000
FF8000
FF8000
FF8000
FF8000
FF8000
FF81FF
FF81FF
FF81FF
FF81FF
FF81FF
FFC1FF
7FC3FE
7FFFFE
3FFFFE
3FFFFC
1FFFF8
0FFFF0
03FFC0
000800
ENDCHAR
STARTCHAR 0066
ENCODING 102
SWIDTH 300 0
DWIDTH 20 0
BBX 19 52 1 0
BITMAP
003FE0
00FFE0
01FFE0
03FFE0
07FFE0
07FFE0
07FF60
07FC00
0FFC00
0FFC00
0FFC00
0FFC00
0FFC00
0FFC00
FFFFE0
FFFFE0
FFFFE0
FFFFE0
FFFFE0
FFFFE0
0FFC00
0FFC00
0FFC00
0FFC00
0FFC00
0FFC00
0FFC00
0FFC00
0FFC00
0FFC00
0FFC00
0FFC00
0FFC00
0FFC00
0FFC00
0FFC00
0FFC00
0FFC00
0FFC00
0FFC00
0FFC00
0FFC00
0FFC00
0FFC00
0FFC00
0FFC00
0FFC00
0FFC00
0FFC00
0FFC00
0FFC00
0FFC00
ENDCHAR
STARTCHAR 0067
ENCODING 103
SWIDTH 465 0
DWIDTH 31 0
BBX 31 51 1 -11
BITMAP
00040018
00FFE03C
01FFF0FC
07FFF9FC
07FFFFFE
0FFFFFFC
1FFFFFE0
1FF0FF80
1FE07F80
3FE07F80
3FE07F80
3FE03F80
3FC03FC0
3FC03FC0
3FC03FC0
3FC03FC0
3FC03FC0
3FE03FC0
3FE07FC0
3FE07F80
1FE07F80
1FF9FF80
0FFFFF80
07FFFF00
03FFFE00
03FFFC00
07FFF800
0F9FC000
1F800000
3F800000
3F800000
3FFC0000
3FFFFC00
3FFFFF00
1FFFFFC0
0FFFFFE0
03FFFFE0
07FFFFF0
1FC03FF0
3F8007F0
3F8007F0
7F8007F0
7F8007F0
7F8007F0
FFFC3FF0
7FFFFFF0
7FFFFFE0
7FFFFFE0
3FFFFFC0
0FFFFF00
01FFF800
ENDCHAR
STARTCHAR 0068
ENCODING 104
SWIDTH 480 0
DWIDTH 32 0
BBX 25 54 4 0
BITMAP
FF800000
FF800000
FF800000
FF800000
FF800000
FF800000
FF800000
FF800000
FF800000
FF800000
FF800000
FF800000
FF800000
FF800000
FF800000
FF802000
FF83FC00
FF8FFE00
FFBFFF00
FFFFFF00
FFFFFF00
FFFFFF80
FFE1FF80
FFC1FF80
FF80FF80
FF80FF80
FF80FF80
FF80FF80
FF80FF80
FF80FF80
FF80FF80
FF80FF80
FF80FF80
FF80FF80
FF80FF80
FF80FF80
FF80FF80
FF80FF80
FF80FF80
FF80FF80
FF80FF80
FF80FF80
FF80FF80
FF80FF80
FF80FF80
FF80FF80
FF80FF80
FF80FF80
FF80FF80
FF80FF80
FF80FF80
FF80FF80
FF80FF80
FF80FF80
ENDCHAR
STARTCHAR 0069
ENCODING 105
SWIDTH 255 0
DWIDTH 17 0
BBX 9 52 4 0
BITMAP
FF80
FF80
FF80
FF80
FF80
FF80
FF80
FF80
0000
0000
0000
0000
0000
0000
FF80
FF80
FF80
FF80
FF80
FF80
FF80
FF80
FF80
FF80
FF80
FF80
FF80
FF80
FF80
FF80
FF80
FF80
FF80
FF80
FF80
FF80
FF80
FF80
FF80
FF80
FF80
FF80
FF80
FF80
FF80
FF80
FF80
FF80
FF80
FF80
FF80
FF80
ENDCHAR
STARTCHAR 006A
ENCODING 106
SWIDTH 255 0
DWIDTH 17 0
BBX 15 63 -1 -11
BITMAP
07FE
07FE
07FE
07FE
07FE
07FE
07FE
07FE
0000
0000
0000
0000
0000
0000
07FE
07FE
07FE
07FE
07FE
07FE
07FE
07FE
07FE
07FE
07FE
07FE
07FE
07FE
07FE
07FE
07FE
07FE
07FE
07FE
07FE
07FE
07FE
07FE
07FE
07FE
07FE
07FE
07FE
07FE
07FE
07FE
07FE
07FE
07FE
07FE
07FE
07FE
07FE
07FE
07FC
07FC
9FFC
FFFC
FFF8
FFF8
FFF0
FFE0
FF00
ENDCHAR
STARTCHAR 006B
ENCODING 107
SWIDTH 480 0
DWIDTH 32 0
BBX 28 54 4 0
BITMAP
FF800000
FF800000
FF800000
FF800000
FF800000
FF800000
FF800000
FF800000
FF800000
FF800000
FF800000
FF800000
FF800000
FF800000
FF800000
FF800000
FF803FF0
FF803FE0
FF807FE0
FF80FFC0
FF80FF80
FF81FF80
FF83FF00
FF83FF00
FF87FE00
FF8FFC00
FF8FFC00
FF9FF800
FFBFF000
FFBFF000
FFFFE000
FFFFE000
FFFFE000
FFFFF000
FFFFF000
FFFFF800
FFEFF800
FFCFF800
FF87FC00
FF87FC00
FF87FE00
FF83FE00
FF83FE00
FF83FF00
FF81FF00
FF81FF80
FF80FF80
FF80FF80
FF80FFC0
FF807FC0
FF807FE0
FF803FE0
FF803FF0
FF803FF0
ENDCHAR
STARTCHAR 006C
ENCODING 108
SWIDTH 255 0
DWIDTH 17 0
BBX 9 54 4 0
BITMAP
FF80
FF80
FF80
FF80
FF80
FF80
FF80
FF80
FF80
FF80
FF80
FF80
FF80
FF80
FF80
FF80
FF80
FF80
FF80
FF80
FF80
FF80
FF80
FF80
FF80
FF80
FF80
FF80
FF80
FF80
FF80
FF80
FF80
FF80
FF80
FF80
FF80
FF80
FF80
FF80
FF80
FF80
FF80
FF80
FF80
FF80
FF80
FF80
FF80
FF80
FF80
FF80
FF80
FF80
ENDCHAR
STARTCHAR 006D
ENCODING 109
SWIDTH 720 0
DWIDTH 48 0
BBX 42 39 3 0
BITMAP
000020002000
FF83FC03FC00
FF8FFE0FFF00
FFBFFF1FFF00
FFFFFF3FFF80
FFFFFFFFFF80
FFFFFFFFFFC0
FFF0FFF0FFC0
FFC07FC07FC0
FF807FC07FC0
FF807FC07FC0
FF807FC07FC0
FF807FC07FC0
FF807FC07FC0
FF807FC07FC0
FF807FC07FC0
FF807FC07FC0
FF807FC07FC0
FF807FC07FC0
FF807FC07FC0
FF807FC07FC0
FF807FC07FC0
FF807FC07FC0
FF807FC07FC0
FF807FC07FC0
FF807FC07FC0
FF807FC07FC0
FF807FC07FC0
FF807FC07FC0
FF807FC07FC0
FF807FC07FC0
FF807FC07FC0
FF807FC07FC0
FF807FC07FC0
FF807FC07FC0
FF807FC07FC0
FF807FC07FC0
FF807FC07FC0
FF807FC07FC0
ENDCHAR
STARTCHAR 006E
ENCODING 110
SWIDTH 480 0
DWIDTH 32 0
BBX 25 39 3 0
BITMAP
00001000
FFC3FE00
FFCFFF00
FFDFFF00
FFFFFF80
FFFFFF80
FFFFFF80
FFF0FF80
FFC0FF80
FFC0FF80
FFC0FF80
FFC0FF80
FFC0FF80
FFC0FF80
FFC0FF80
FFC0FF80
FFC0FF80
FFC0FF80
FFC0FF80
FFC0FF80
FFC0FF80
FFC0FF80
FFC0FF80
FFC0FF80
FFC0FF80
FFC0FF80
FFC0FF80
FFC0FF80
FFC0FF80
FFC0FF80
FFC0FF80
FFC0FF80
FFC0FF80
FFC0FF80
FFC0FF80
FFC0FF80
FFC0FF80
FFC0FF80
FFC0FF80
ENDCHAR
STARTCHAR 006F
ENCODING 111
SWIDTH 450 0
DWIDTH 30 0
BBX 25 40 3 -1
BITMAP
00080000
03FFC000
0FFFF000
1FFFF800
3FFFFC00
3FFFFE00
7FFFFE00
7FC3FF00
FF81FF00
FF81FF00
FF81FF00
FF81FF00
FF81FF80
FF80FF80
FF80FF80
FF80FF80
FF80FF80
FF80FF80
FF80FF80
FF80FF80
FF80FF80
FF80FF80
FF80FF80
FF80FF80
FF80FF80
FF80FF80
FF80FF80
FF81FF80
FF81FF80
FF81FF00
FF81FF00
FF81FF00
7FC3FF00
7FFFFE00
3FFFFE00
3FFFFC00
1FFFF800
0FFFF000
03FFC000
00080000
ENDCHAR
STARTCHAR 0070
ENCODING 112
SWIDTH 480 0
DWIDTH 32 0
BBX 26 52 3 -13
BITMAP
00004000
FFC7F800
FFDFFE00
FFFFFF00
FFFFFF00
FFFFFF80
FFFFFF80
FFE1FF80
FFC0FFC0
FFC0FFC0
FFC07FC0
FFC07FC0
FFC07FC0
FFC07FC0
FFC07FC0
FFC07FC0
FFC07FC0
FFC07FC0
FFC07FC0
FFC07FC0
FFC07FC0
FFC07FC0
FFC07FC0
FFC07FC0
FFC07FC0
FFC07FC0
FFC07FC0
FFC07FC0
FFC07FC0
FFC07FC0
FFC0FFC0
FFC0FF80
FFE1FF80
FFFFFF80
FFFFFF00
FFFFFF00
FFFFFE00
FFDFFC00
FFC7F800
FFC08000
FFC00000
FFC00000
FFC00000
FFC00000
FFC00000
FFC00000
FFC00000
FFC00000
FFC00000
FFC00000
FFC00000
FFC00000
ENDCHAR
STARTCHAR 0071
ENCODING 113
SWIDTH 480 0
DWIDTH 32 0
BBX 25 52 3 -13
BITMAP
00400000
07F8FF80
0FFEFF80
1FFFFF80
3FFFFF80
7FFFFF80
7FFFFF80
7FE1FF80
FFC0FF80
FF80FF80
FF80FF80
FF80FF80
FF80FF80
FF80FF80
FF80FF80
FF80FF80
FF80FF80
FF80FF80
FF80FF80
FF80FF80
FF80FF80
FF80FF80
FF80FF80
FF80FF80
FF80FF80
FF80FF80
FF80FF80
FF80FF80
FF80FF80
FF80FF80
FF80FF80
FFC0FF80
7FE1FF80
7FFFFF80
7FFFFF80
3FFFFF80
3FFFFF80
1FFEFF80
07F8FF80
0040FF80
0000FF80
0000FF80
0000FF80
0000FF80
0000FF80
0000FF80
0000FF80
0000FF80
0000FF80
0000FF80
0000FF80
0000FF80
ENDCHAR
STARTCHAR 0072
ENCODING 114
SWIDTH 345 0
DWIDTH 23 0
BBX 18 39 4 0
BITMAP
000080
FF83C0
FF8FC0
FF9FC0
FFBFC0
FFBFC0
FFFFC0
FFFFC0
FFFFC0
FFFFC0
FFF000
FFC000
FFC000
FF8000
FF8000
FF8000
FF8000
FF8000
FF8000
FF8000
FF8000
FF8000
FF8000
FF8000
FF8000
FF8000
FF8000
FF8000
FF8000
FF8000
FF8000
FF8000
FF8000
FF8000
FF8000
FF8000
FF8000
FF8000
FF8000
ENDCHAR
STARTCHAR 0073
ENCODING 115
SWIDTH 405 0
DWIDTH 27 0
BBX 24 40 1 -1
BITMAP
000800
01FF80
07FFE0
0FFFF0
1FFFF8
1FFFFC
3FFFFC
3FE1FE
3FC0FE
7FC0FE
7FC07E
7FC078
3FE040
3FF000
3FF800
1FFC00
1FFE00
0FFF00
07FF80
03FFE0
01FFF0
00FFF8
007FF8
001FFC
000FFE
0007FE
0003FF
0701FF
1F00FF
FF00FF
7F80FF
7F80FF
7FC1FF
3FFFFE
1FFFFE
1FFFFC
0FFFF8
07FFF0
01FFC0
000800
ENDCHAR
STARTCHAR 0074
ENCODING 116
SWIDTH 330 0
DWIDTH 22 0
BBX 20 51 1 -1
BITMAP
0FF800
0FF800
0FF800
0FF800
0FF800
0FF800
0FF800
0FF800
0FF800
0FF800
0FF800
0FF800
FFFFE0
FFFFE0
FFFFE0
FFFFE0
FFFFE0
FFFFE0
0FF800
0FF800
0FF800
0FF800
0FF800
0FF800
0FF800
0FF800
0FF800
0FF800
0FF800
0FF800
0FF800
0FF800
0FF800
0FF800
0FF800
0FF800
0FF800
0FF800
0FF800
0FF800
0FF800
0FF800
0FFC00
0FFFF0
07FFF0
07FFF0
07FFF0
03FFF0
01FFF0
00FFF0
000400
ENDCHAR
STARTCHAR 0075
ENCODING 117
SWIDTH 480 0
DWIDTH 32 0
BBX 25 39 3 -1
BITMAP
FF80FF80
FF80FF80
FF80FF80
FF80FF80
FF80FF80
FF80FF80
FF80FF80
FF80FF80
FF80FF80
FF80FF80
FF80FF80
FF80FF80
FF80FF80
FF80FF80
FF80FF80
FF80FF80
FF80FF80
FF80FF80
FF80FF80
FF80FF80
FF80FF80
FF80FF80
FF80FF80
FF80FF80
FF80FF80
FF80FF80
FF80FF80
FF80FF80
FF80FF80
FF80FF80
FFC0FF80
FFC3FF80
FFFFFF80
7FFFFF80
7FFFFF80
7FFEFF80
3FF8FF80
1FE0FF80
02000000
ENDCHAR
STARTCHAR 0076
ENCODING 118
SWIDTH 405 0
DWIDTH 27 0
BBX 26 38 0 0
BITMAP
FFC03FC0
7FC03FC0
7FC07FC0
7FC07FC0
7FC07F80
7FE07F80
3FE07F80
3FE07F80
3FE07F00
3FE0FF00
1FE0FF00
1FF0FF00
1FF0FF00
1FF0FE00
1FF0FE00
0FF1FE00
0FF1FE00
0FF1FE00
0FF9FC00
0FF9FC00
07F9FC00
07F9FC00
07FBFC00
07FBF800
03FFF800
03FFF800
03FFF800
03FFF000
03FFF000
01FFF000
01FFF000
01FFF000
01FFE000
01FFE000
00FFE000
00FFE000
00FFE000
00FFC000
ENDCHAR
STARTCHAR 0077
ENCODING 119
SWIDTH 600 0
DWIDTH 40 0
BBX 36 38 2 0
BITMAP
FE01F807F0
FE01FC07F0
FF01FC07F0
FF03FC0FF0
FF03FC0FE0
7F03FC0FE0
7F03FC0FE0
7F03FE0FE0
7F03FE0FE0
7F87FE1FE0
7F87FE1FC0
7F87FE1FC0
3F87FE1FC0
3F87FF1FC0
3F8FFF1FC0
3FCFFF1FC0
3FCFFF3F80
3FCF9F3F80
1FCF9F3F80
1FDF9F3F80
1FDF9FBF80
1FDF9FBF80
1FFF1FBF80
1FFF0FFF00
0FFF0FFF00
0FFF0FFF00
0FFF0FFF00
0FFE0FFF00
0FFE07FF00
0FFE07FE00
0FFE07FE00
07FE07FE00
07FC07FE00
07FC07FE00
07FC03FE00
07FC03FC00
07FC03FC00
03F803FC00
ENDCHAR
STARTCHAR 0078
ENCODING 120
SWIDTH 420 0
DWIDTH 28 0
BBX 26 38 1 0
BITMAP
FF803FC0
7F807F80
7FC07F80
7FC0FF00
3FE0FF00
3FE0FE00
1FF1FE00
1FF1FC00
0FFBFC00
0FFBFC00
07FFF800
07FFF800
03FFF000
03FFF000
03FFE000
01FFE000
01FFC000
00FFC000
00FF8000
00FFC000
01FFC000
01FFE000
03FFE000
03FFF000
07FFF000
07FFF800
07FFF800
0FFFFC00
0FE7FC00
1FE7FE00
1FE3FE00
3FC3FF00
3FC1FF00
3F81FF80
7F80FF80
7F80FFC0
FF007FC0
FF007FC0
ENDCHAR
STARTCHAR 0079
ENCODING 121
SWIDTH 420 0
DWIDTH 28 0
BBX 27 48 0 -11
BITMAP
FF801FE0
7FC01FE0
7FC03FE0
7FC03FE0
3FC03FC0
3FC03FC0
3FE03FC0
3FE07FC0
1FE07F80
1FE07F80
1FE07F80
1FF07F80
0FF07F00
0FF0FF00
0FF0FF00
0FF0FF00
07F8FE00
07F8FE00
07F9FE00
07F9FE00
03F9FC00
03F9FC00
03FDFC00
03FDFC00
01FFF800
01FFF800
01FFF800
00FFF800
00FFF000
00FFF000
00FFF000
007FF000
007FE000
007FE000
007FE000
003FE000
003FC000
003FC000
003FC000
003FC000
003FC000
007FC000
0FFF8000
0FFF8000
0FFF0000
0FFE0000
0FFC0000
0FE00000
ENDCHAR
STARTCHAR 007A
ENCODING 122
SWIDTH 375 0
DWIDTH 25 0
BBX 21 38 2 0
BITMAP
7FFFF8
7FFFF8
7FFFF8
7FFFF8
7FFFF8
7FFFF8
001FF0
001FF0
003FF0
003FE0
003FE0
007FC0
007FC0
00FF80
00FF80
01FF00
01FF00
01FF00
03FE00
03FE00
07FC00
07FC00
0FF800
0FF800
0FF800
1FF000
1FF000
3FE000
3FE000
7FC000
7FC000
7FC000
FFFFF8
FFFFF8
FFFFF8
FFFFF8
FFFFF8
FFFFF8
ENDCHAR
STARTCHAR 007B
ENCODING 123
SWIDTH 345 0
DWIDTH 23 0
BBX 18 68 3 -13
BITMAP
0003C0
00FFC0
01FFC0
03FFC0
07FFC0
07FFC0
0FFFC0
0FFC00
0FFC00
0FF800
0FF800
0FF800
0FF800
0FF800
0FF800
0FF800
0FF800
0FF800
0FF800
0FF800
0FF800
0FF800
0FF800
0FF800
0FF800
0FF800
0FF800
0FF800
0FF800
1FF000
3FF000
FFF000
FFE000
FFC000
FF8000
FFC000
FFE000
3FF000
1FF000
0FF000
0FF800
0FF800
0FF800
0FF800
0FF800
0FF800
0FF800
0FF800
0FF800
0FF800
0FF800
0FF800
0FF800
0FF800
0FF800
0FF800
0FF800
0FF800
0FF800
0FF800
0FFC00
0FFF00
07FFC0
07FFC0
07FFC0
03FFC0
01FFC0
003FC0
ENDCHAR
STARTCHAR 007C
ENCODING 124
SWIDTH 255 0
DWIDTH 17 0
BBX 8 65 4 -11
BITMAP
FF
FF
FF
FF
FF
FF
FF
FF
FF
FF
FF
FF
FF
FF
FF
FF
FF
FF
FF
FF
FF
FF
FF
FF
FF
FF
FF
FF
FF
FF
FF
FF
FF
FF
FF
FF
FF
FF
FF
FF
FF
FF
FF
FF
FF
FF
FF
FF
FF
FF
FF
FF
FF
FF
FF
FF
FF
FF
FF
FF
FF
FF
FF
FF
FF
ENDCHAR
STARTCHAR 007D
ENCODING 125
SWIDTH 360 0
DWIDTH 24 0
BBX 18 68 3 -13
BITMAP
F00000
FFC000
FFE000
FFF000
FFF800
FFF800
FFF800
1FF800
0FFC00
0FFC00
07FC00
07FC00
07FC00
07FC00
07FC00
07FC00
07FC00
07FC00
07FC00
07FC00
07FC00
07FC00
07FC00
07FC00
07FC00
07FC00
07FC00
07FC00
07FC00
07FC00
03FE00
03FFC0
01FFC0
00FFC0
007FC0
01FFC0
03FFC0
03FF00
03FE00
07FC00
07FC00
07FC00
07FC00
07FC00
07FC00
07FC00
07FC00
07FC00
07FC00
07FC00
07FC00
07FC00
07FC00
07FC00
07FC00
07FC00
07FC00
07FC00
07FC00
0FFC00
0FFC00
3FF800
FFF800
FFF800
FFF000
FFF000
FFE000
FF0000
ENDCHAR
STARTCHAR 007E
ENCODING 126
SWIDTH 465 0
DWIDTH 31 0
BBX 27 10 2 24
BITMAP
03F00000
0FFC0180
1FFF03C0
3FFFCFC0
7FFFFFE0
FFFFFFC0
3E3FFF80
380FFF00
1003FE00
00007800
ENDCHAR
STARTCHAR 00A0
ENCODING 160
SWIDTH 240 0
DWIDTH 16 0
BBX 0 0 0 0
BITMAP
ENDCHAR
STARTCHAR 00A1
ENCODING 161
SWIDTH 225 0
DWIDTH 15 0
BBX 9 54 3 -12
BITMAP
FF80
FF80
FF80
FF80
FF80
FF80
FF80
FF80
FF80
0000
0000
0000
0000
0C00
1C00
1C00
1C00
1C00
1E00
1E00
1E00
1E00
1E00
1E00
1E00
3E00
3E00
3E00
3E00
3E00
3E00
3E00
3E00
3F00
3F00
3F00
7F00
7F00
7F00
7F00
7F00
7F00
7F00
7F00
7F00
7F00
7F00
FF00
FF80
FF80
FF80
FF80
FF80
FF80
ENDCHAR
STARTCHAR 00A2
ENCODING 162
SWIDTH 420 0
DWIDTH 28 0
BBX 24 52 3 -7
BITMAP
003800
003800
003800
003800
003800
003800
003800
03FFC0
0FFFF0
1FFFF8
3FFFFC
3FFFFE
7FFFFE
7FC3FE
FF81FE
FF81FF
FF81FF
FF81FF
FF81FF
FF81FF
FF81FF
FF8000
FF8000
FF8000
FF8000
FF8000
FF8000
FF8000
FF8000
FF8000
FF81FF
FF81FF
FF81FF
FF81FF
FF81FF
FF81FF
FF81FF
FF81FE
7FC3FE
7FFFFE
3FFFFC
3FFFFC
1FFFF8
0FFFF0
03FFC0
003800
003800
003800
003800
003800
003800
003800
ENDCHAR
STARTCHAR 00A3
ENCODING 163
SWIDTH 450 0
DWIDTH 30 0
BBX 27 55 1 0
BITMAP
00010000
003FF800
007FFE00
01FFFF00
01FFFF00
03FFFF80
07FFFF80
07FFFFC0
07FFFFC0
0FFC3FC0
0FF81FC0
0FF81FE0
0FF81FE0
0FF81FE0
0FF81FE0
0FF81FE0
0FF80000
0FF80000
0FF80000
0FF80000
0FF80000
0FF80000
0FF80000
0FF80000
0FF80000
0FF80000
FFFFF000
FFFFF000
FFFFF000
FFFFF000
FFFFF000
FFFFF000
0FF80000
0FF80000
0FF80000
0FF80000
0FF80000
0FF80000
0FF80000
0FF80000
0FF80000
0FF80000
0FF80000
0FF80000
0FF80000
0FF80000
0FF80000
0FF80000
0FFFFFE0
3FFFFFE0
FFFFFFE0
FFFFFFE0
FFFFFFE0
FFFFFFE0
FFFFFFE0
ENDCHAR
STARTCHAR 00A4
ENCODING 164
SWIDTH 555 0
DWIDTH 37 0
BBX 32 32 3 12
BITMAP
80000002
C0000002
600FE004
307FFC0C
18FFFE18
0DF01FB0
07C007E0
078001E0
0F0000E0
1E0000F0
1C000078
3C000038
38000038
3800003C
3800003C
7800001C
7800001C
3800003C
3800003C
38000038
3C000038
1C000078
1E0000F0
0F0000F0
0F8001E0
07C007C0
0FF01FE0
19FFFF30
307FFC18
600FF00C
C0000007
80000002
ENDCHAR
STARTCHAR 00A5
ENCODING 165
SWIDTH 465 0
DWIDTH 31 0
BBX 32 54 0 0
BITMAP
FFC001FF
7FC001FE
7FC003FE
3FE003FE
3FE003FC
3FE003FC
3FF007FC
1FF007F8
1FF007F8
1FF00FF8
0FF80FF0
0FF80FF0
0FF81FF0
07FC1FF0
07FC1FE0
07FC1FE0
03FC3FE0
03FE3FC0
03FE3FC0
01FE7FC0
01FF7F80
01FF7F80
01FF7F80
00FFFF00
00FFFF00
00FFFF00
007FFE00
007FFE00
007FFE00
003FFC00
003FFC00
003FFC00
03FFFFE0
03FFFFE0
03FFFFE0
03FFFFE0
03FFFFE0
001FF800
001FF800
001FF800
001FF800
03FFFFE0
03FFFFE0
03FFFFE0
03FFFFE0
03FFFFE0
001FF800
001FF800
001FF800
001FF800
001FF800
001FF800
001FF800
001FF800
ENDCHAR
STARTCHAR 00A6
ENCODING 166
SWIDTH 210 0
DWIDTH 14 0
BBX 7 64 4 -10
BITMAP
FE
FE
FE
FE
FE
FE
FE
FE
FE
FE
FE
FE
FE
FE
FE
FE
FE
FE
FE
FE
FE
FE
FE
FE
FE
FE
FE
00
00
00
00
00
00
00
00
00
00
FE
FE
FE
FE
FE
FE
FE
FE
FE
FE
FE
FE
FE
FE
FE
FE
FE
FE
FE
FE
FE
FE
FE
FE
FE
FE
FE
ENDCHAR
STARTCHAR 00A7
ENCODING 167
SWIDTH 450 0
DWIDTH 30 0
BBX 24 56 3 -1
BITMAP
000800
03FF80
0FFFE0
1FFFF0
3FFFF8
7FFFFC
7FFFFC
FFC3FE
FF80FE
FF80FF
FF007F
FF807E
FF8030
7FC000
7FF000
3FF800
1FFE00
0FFF00
07FFC0
07FFE0
1FFFF8
3FFFFC
7FFFFC
7FCFFE
7F87FE
FF81FF
FF00FF
FF00FF
FF00FF
FF80FF
FFC0FF
7FF1FE
7FFBFE
3FFFFC
1FFFFC
0FFFF8
03FFE0
00FFF0
007FF8
001FFC
0007FE
0003FE
0001FF
0000FF
0E00FF
FE00FF
FF00FF
7F80FF
7FC1FF
3FFFFE
3FFFFE
1FFFFC
0FFFF8
07FFF0
01FFC0
000800
ENDCHAR
STARTCHAR 00A8
ENCODING 168
SWIDTH 420 0
DWIDTH 28 0
BBX 21 9 3 45
BITMAP
FF87F8
FF87F8
FF87F8
FF87F8
FF87F8
FF87F8
FF87F8
FF87F8
FF87F8
ENDCHAR
STARTCHAR 00A9
ENCODING 169
SWIDTH 870 0
DWIDTH 58 0
BBX 54 56 2 -1
BITMAP
000007FF800000
00007FFFF80000
0001FFFFFE0000
0007FC007F8000
001FC0000FE000
003F000001F000
007C000000FC00
00F80000003E00
01F001FF001E00
03E00FFFE00F00
07C03FFFF80780
07807FFFFC03C0
0F00FFFFFC01C0
0E00FFFFFE01E0
1E01FFEFFE00E0
1C01FF83FF00F0
3C03FF01FF0070
3C03FF01FF0070
3803FF01FF0078
7803FF01FF0038
7803FF01FF0038
7003FF01FF0038
7003FF01FF003C
7003FF0000001C
F003FF0000001C
F003FF0000001C
F003FF0000001C
F003FF0000001C
F003FF0000001C
F003FF0000001C
F003FF0000001C
7003FF0000001C
7003FF01FF003C
7003FF01FF003C
7003FF01FF0038
7803FF01FF0038
7803FF01FF0038
3803FF01FF0078
3C01FF03FF0070
3C01FF87FE00F0
1E01FFFFFE00E0
1E00FFFFFE01E0
0F007FFFFC01C0
0F003FFFF803C0
07801FFFF00780
03C007FF800780
01E00000000F00
01F00000001E00
00F80000007C00
007E000000F800
001F800003F000
000FE0001FC000
0003FFC7FF8000
0000FFFFFC0000
00001FFFE00000
00000010000000
ENDCHAR
STARTCHAR 00AA
ENCODING 170
SWIDTH 465 0
DWIDTH 31 0
BBX 22 34 5 20
BITMAP
001000
01FF80
07FFC0
0FFFE0
1FFFF0
3FFFF0
3FFFF8
7FC7F8
7F87F8
7F87F8
7F83FC
7F03FC
0003FC
0003FC
0003FC
001FFC
00FFFC
03FFFC
0FFBFC
1FE3FC
3FC3FC
7F83FC
FF03FC
FF03FC
FF03FC
FF03FC
FF07FC
FF8FFC
FFFFFC
FFFFFC
FFFFFC
7FFBFC
3FF3FC
1FE3FC
ENDCHAR
STARTCHAR 00AB
ENCODING 171
SWIDTH 480 0
DWIDTH 32 0
BBX 26 35 2 2
BITMAP
00100040
00100040
003000C0
003001C0
007001C0
00F003C0
01F007C0
03F00FC0
03F00FC0
07F01FC0
0FF03FC0
1FE07F80
1FC07F00
3F80FE00
7F81FE00
FF03FC00
FE03F800
FC03F000
FE03F800
FF03FC00
7F81FE00
3F80FE00
1FC0FF00
1FE07F80
0FF03FC0
07F01FC0
03F00FC0
03F00FC0
01F007C0
00F003C0
007001C0
007001C0
003000C0
00100040
00100040
ENDCHAR
STARTCHAR 00AC
ENCODING 172
SWIDTH 435 0
DWIDTH 29 0
BBX 24 15 3 16
BITMAP
FFFFFF
FFFFFF
FFFFFF
FFFFFF
FFFFFF
FFFFFF
00001F
00001F
00001F
00001F
00001F
00001F
00001F
00001F
00001F
ENDCHAR
STARTCHAR 00AD
ENCODING 173
SWIDTH 360 0
DWIDTH 24 0
BBX 16 6 4 27
BITMAP
FFFF
FFFF
FFFF
FFFF
FFFF
FFFF
ENDCHAR
STARTCHAR 00AE
ENCODING 174
SWIDTH 900 0
DWIDTH 60 0
BBX 53 56 3 -1
BITMAP
00000020000000
00001FFFE00000
0000FFFFFC0000
0003FFFFFF0000
000FFFFFFFC000
003FE0003FE000
007F800007F800
00FE000001FC00
01F8000000FE00
03F00000003E00
07E0FFFE001F00
07C0FFFFC00F80
0F80FFFFF00F80
0F00FFFFF807C0
1F00FFFFF803E0
1E00FF07FC03E0
3E00FF03FC01E0
3C00FF01FC01F0
3C00FF01FE00F0
7800FF01FE00F0
7800FF01FE00F8
7800FF01FE0078
7800FF01FC0078
F800FF01FC0078
F000FF03FC0078
F000FF0FF80078
F000FFFFF00078
F000FFFFE00078
F000FFFF800078
F000FFFFC00078
F000FF3FC00078
F000FF1FE00078
F800FF1FE00078
7800FF0FE00078
7800FF0FF00078
7800FF0FF000F8
7800FF07F800F0
3C00FF07F800F0
3C00FF07F801F0
3E00FF03FC01E0
1E00FF03FC03E0
1F00FF01FE03E0
0F00FF01FE07C0
0F80FF01FE0FC0
07C00000010F80
07E00000001F00
03F00000003E00
01F8000000FE00
00FE000001FC00
007F800007F800
003FE0003FE000
000FFFFFFFC000
0003FFFFFF0000
0000FFFFFC0000
00001FFFE00000
00000020000000
ENDCHAR
STARTCHAR 00AF
ENCODING 175
SWIDTH 240 0
DWIDTH 16 0
BBX 15 5 1 49
BITMAP
FFFE
FFFE
FFFE
FFFE
FFFE
ENDCHAR
STARTCHAR 00B0
ENCODING 176
SWIDTH 495 0
DWIDTH 33 0
BBX 25 24 4 31
BITMAP
00080000
01FFC000
07FFF000
0FFFFC00
1FFFFE00
3FFFFE00
7F80FF00
7F007F00
7E003F80
FE003F80
FE001F80
FC001F80
FC001F80
FE001F80
FE003F80
7E003F80
7F003F00
7F007F00
3FC1FF00
3FFFFE00
1FFFFC00
0FFFF800
03FFE000
00FF8000
ENDCHAR
STARTCHAR 00B1
ENCODING 177
SWIDTH 420 0
DWIDTH 28 0
BBX 20 32 4 0
BITMAP
01F800
01F800
01F800
01F800
01F800
01F800
01F800
FFFFF0
FFFFF0
FFFFF0
FFFFF0
FFFFF0
FFFFF0
01F800
01F800
01F800
01F800
01F800
01F800
01F800
000000
000000
000000
000000
000000
000000
FFFFF0
FFFFF0
FFFFF0
FFFFF0
FFFFF0
FFFFF0
ENDCHAR
STARTCHAR 00B2
ENCODING 178
SWIDTH 435 0
DWIDTH 29 0
BBX 21 40 5 20
BITMAP
01FC00
07FF80
0FFFC0
1FFFE0
3FFFE0
3FFFF0
7F87F0
7F87F0
7F03F8
7F03F8
7F03F8
7E03F8
7E03F8
7E03F0
0007F0
0007F0
000FF0
000FE0
001FE0
003FC0
003F80
007F80
007F00
00FE00
01FE00
01FC00
03F800
07F800
07F000
0FF000
0FE000
1FC000
3FC000
3F8000
7F0000
FFFFF0
FFFFF0
FFFFF0
FFFFF0
FFFFF0
ENDCHAR
STARTCHAR 00B3
ENCODING 179
SWIDTH 435 0
DWIDTH 29 0
BBX 21 40 5 20
BITMAP
01FE00
07FF80
1FFFC0
3FFFE0
3FFFF0
7FFFF8
7F87F8
FF03F8
FF03F8
FE03F8
FE03F8
FE03F8
FE03F8
FE03F8
0003F8
0007F0
000FF0
01FFE0
01FFC0
01FFC0
01FFE0
01FFF0
000FF0
0007F8
0003F8
FE03F8
FE03F8
FE03F8
FE03F8
FE03F8
FF03F8
FF03F8
7F07F8
7FCFF8
7FFFF0
3FFFF0
3FFFE0
1FFFC0
0FFF80
01FE00
ENDCHAR
STARTCHAR 00B4
ENCODING 180
SWIDTH 300 0
DWIDTH 20 0
BBX 13 13 4 41
BITMAP
0FF8
1FF0
1FE0
1FE0
3FC0
3FC0
3F80
3F00
7F00
7E00
7C00
FC00
F800
ENDCHAR
STARTCHAR 00B5
ENCODING 181
SWIDTH 465 0
DWIDTH 31 0
BBX 25 50 3 -12
BITMAP
FF80FF80
FF80FF80
FF80FF80
FF80FF80
FF80FF80
FF80FF80
FF80FF80
FF80FF80
FF80FF80
FF80FF80
FF80FF80
FF80FF80
FF80FF80
FF80FF80
FF80FF80
FF80FF80
FF80FF80
FF80FF80
FF80FF80
FF80FF80
FF80FF80
FF80FF80
FF80FF80
FF80FF80
FF80FF80
FF80FF80
FF80FF80
FF80FF80
FF80FF80
FF80FF80
FFC1FF80
FFC7FF80
FFFFFF80
FFFFFF80
FFFFFF80
FFFEFF80
FFF8FF80
FFF0FF80
FF800000
FF800000
FF800000
FF800000
FF800000
FF800000
FF800000
FF800000
FF800000
FF800000
FF800000
FF800000
ENDCHAR
STARTCHAR 00B6
ENCODING 182
SWIDTH 510 0
DWIDTH 34 0
BBX 28 61 2 -7
BITMAP
00FFFFF0
07FFFFF0
0FFFFFF0
1FFFFFF0
3FFFFFF0
7FFF83F0
7FFF83F0
7FFF83F0
FFFF83F0
FFFF83F0
FFFF83F0
FFFF83F0
FFFF83F0
7FFF83F0
7FFF83F0
7FFF83F0
3FFF83F0
1FFF83F0
0FFF83F0
07FF83F0
00FF83F0
001F83F0
001F83F0
001F83F0
001F83F0
001F83F0
001F83F0
001F83F0
001F83F0
001F83F0
001F83F0
001F83F0
001F83F0
001F83F0
001F83F0
001F83F0
001F83F0
001F83F0
001F83F0
001F83F0
001F83F0
001F83F0
001F83F0
001F83F0
001F83F0
001F83F0
001F83F0
001F83F0
001F83F0
001F83F0
001F83F0
001F83F0
001F83F0
001F83F0
001F83F0
001F83F0
001F83F0
001F83F0
001F83F0
001F83F0
001F83F0
ENDCHAR
STARTCHAR 00B7
ENCODING 183
SWIDTH 195 0
DWIDTH 13 0
BBX 9 9 2 21
BITMAP
FF80
FF80
FF80
FF80
FF80
FF80
FF80
FF80
FF80
ENDCHAR
STARTCHAR 00B8
ENCODING 184
SWIDTH 270 0
DWIDTH 18 0
BBX 15 17 2 -18
BITMAP
1E00
1E00
1E00
1E00
1F00
1FE0
1FF8
07FC
01FC
00FE
007E
00FE
81FE
7FFC
7FF8
7FF0
3FC0
ENDCHAR
STARTCHAR 00B9
ENCODING 185
SWIDTH 435 0
DWIDTH 29 0
BBX 14 39 6 20
BITMAP
00FC
01FC
07FC
1FFC
FFFC
FFFC
FFFC
FFFC
F9FC
01FC
01FC
01FC
01FC
01FC
01FC
01FC
01FC
01FC
01FC
01FC
01FC
01FC
01FC
01FC
01FC
01FC
01FC
01FC
01FC
01FC
01FC
01FC
01FC
01FC
01FC
01FC
01FC
01FC
01FC
ENDCHAR
STARTCHAR 00BA
ENCODING 186
SWIDTH 465 0
DWIDTH 31 0
BBX 22 35 5 20
BITMAP
002000
07FF00
1FFF80
3FFFE0
3FFFE0
7FFFF0
7FFFF8
FF8FF8
FF07F8
FE03F8
FE03FC
FE03FC
FE03FC
FE03FC
FE03FC
FE03FC
FE03FC
FE03FC
FE03FC
FE03FC
FE03FC
FE03FC
FE03FC
FE03FC
FE03FC
FE03F8
FF07F8
FF07F8
FFDFF8
7FFFF0
7FFFF0
3FFFE0
1FFFC0
0FFF80
01FC00
ENDCHAR
STARTCHAR 00BB
ENCODING 187
SWIDTH 495 0
DWIDTH 33 0
BBX 27 35 3 2
BITMAP
80020000
C0010000
C0010000
E0018000
F001C000
F801E000
FC01F000
FC01F000
FE01F800
FF01FC00
7F81FE00
3FC0FF00
3FE0FF80
1FE07F80
0FF03FC0
07F81FE0
03F80FE0
01F807E0
03F80FE0
07F81FE0
0FF03FC0
1FE07F80
1FC07F00
3FC0FF00
7F81FE00
FF01FC00
FE01F800
FC01F000
FC01F000
F801E000
F001C000
E0018000
C0010000
C0020000
80020000
ENDCHAR
STARTCHAR 00BC
ENCODING 188
SWIDTH 765 0
DWIDTH 51 0
BBX 43 54 4 0
BITMAP
01C0000F8000
03C0000F8000
07C0001F0000
1FC0001F0000
3FC0003F0000
FFC0003E0000
FFC0003E0000
FFC0007C0000
FFC0007C0000
FFC000FC0000
0FC000F80000
0FC000F80000
0FC001F00000
0FC001F00000
0FC003F00000
0FC003E00000
0FC003E00000
0FC007C00000
0FC007C00000
0FC00FC00000
0FC00F800000
0FC00F800000
0FC01F000000
0FC01F000000
0FC03F000000
0FC03E000000
0FC03E003E00
00007C007E00
00007C007E00
0000FC00FE00
0000F800FE00
0000F801FE00
0001F003FE00
0001F003FE00
0003F007BE00
0003E0073E00
0003E00F3E00
0007C01E3E00
0007C01E3E00
000FC03C3E00
000F807C3E00
000F80783E00
001F00FFFFE0
001F00FFFFE0
003F00FFFFE0
003E00FFFFE0
003E00003E00
007C00003E00
007C00003E00
00FC00003E00
00F800003E00
00F800003E00
01F000003E00
01F000003E00
ENDCHAR
STARTCHAR 00BD
ENCODING 189
SWIDTH 765 0
DWIDTH 51 0
BBX 44 54 3 0
BITMAP
01C00007C000
03C0000F8000
07C0000F8000
0FC0001F8000
3FC0001F0000
FFC0001F0000
FFC0003E0000
FFC0003E0000
FFC0007E0000
FFC0007C0000
0FC000FC0000
0FC000F80000
0FC000F80000
0FC001F80000
0FC001F00000
0FC003F00000
0FC003E00000
0FC003E00000
0FC007E00000
0FC007C00000
0FC00FC00000
0FC00F800000
0FC00F800000
0FC01F000000
0FC01F000000
0FC03F000000
0FC03E000000
00003E00FE00
00007C01FF80
00007C07FFC0
0000FC07FFE0
0000F80FE7E0
0000F80FC3F0
0001F00FC3F0
0001F00FC3F0
0003F00003F0
0003E00003F0
0003E00007E0
0007C00007E0
0007C0000FC0
000FC0001FC0
000F80003F80
000F80003F00
001F00007F00
001F0000FE00
003F0000FC00
003E0001F800
003E0003F000
007C0007F000
007C0007E000
00FC000FFFE0
00F8000FFFE0
00F8000FFFE0
01F0000FFFE0
ENDCHAR
STARTCHAR 00BE
ENCODING 190
SWIDTH 765 0
DWIDTH 51 0
BBX 46 55 3 0
BITMAP
010000000000
0FF00001F000
3FF80003F000
7FFC0003E000
7FFC0007E000
7C7E0007C000
FC7E0007C000
FC3E000FC000
003E000F8000
007E001F8000
007E001F0000
00FC001F0000
03F8003F0000
03F0003E0000
03F0007E0000
03FC007C0000
00FE007C0000
007E00F80000
007E00F80000
003E01F80000
FC7E01F00000
FC7E01F00000
7C7E03E00000
7FFC03E00000
3FFC07E00000
1FF807C00000
07E007C00000
00000F8007C0
00000F800FC0
00001F801FC0
00001F001FC0
00001F003FC0
00003E007FC0
00003E007FC0
00007E00FFC0
00007C00FFC0
00007C01EFC0
0000F803CFC0
0000F803CFC0
0001F8078FC0
0001F0078FC0
0001F00F0FC0
0003E01F0FC0
0003E01FFFFC
0007E01FFFFC
0007C01FFFFC
0007C01FFFFC
000F80000FC0
000F80000FC0
001F80000FC0
001F00000FC0
001F00000FC0
003E00000FC0
003E00000FC0
007E00000FC0
ENDCHAR
STARTCHAR 00BF
ENCODING 191
SWIDTH 525 0
DWIDTH 35 0
BBX 27 55 4 -12
BITMAP
000FF800
000FF800
000FF800
000FF800
000FF800
000FF800
000FF800
000FF800
000FF800
00000000
00000000
00000000
00000000
00000000
000FF800
000FF800
000FF800
000FF800
000FF800
000FF800
000FF800
001FF800
003FF800
007FF000
00FFE000
01FF8000
03FF8000
03FF0000
07FE0000
0FFC0000
1FF80000
1FF00000
3FF00000
3FE00000
7FE00000
7FC00000
7FC00000
7FC00020
FFC007E0
FF803FE0
FF801FE0
FF801FE0
FF801FE0
FFC01FE0
7FC03FE0
7FE03FE0
7FF07FE0
7FFFFFE0
3FFFFFC0
3FFFFFC0
1FFFFF80
0FFFFF00
07FFFE00
01FFFC00
003FE000
ENDCHAR
STARTCHAR 00C0
ENCODING 192
SWIDTH 525 0
DWIDTH 35 0
BBX 33 72 1 0
BITMAP
03FE000000
03FE000000
01FF000000
00FF000000
00FF000000
007F800000
007F800000
003F800000
001FC00000
001FC00000
000FC00000
0007C00000
0007E00000
0000000000
0000000000
0000000000
0000000000
0000000000
001FFC0000
001FFC0000
001FFC0000
001FFC0000
003FFE0000
003FFE0000
003FFE0000
003FFE0000
003FFE0000
007FFF0000
007FFF0000
007FFF0000
007FFF0000
007FFF0000
00FFFF8000
00FF7F8000
00FF7F8000
00FF7F8000
01FE7F8000
01FE7FC000
01FE7FC000
01FE3FC000
01FE3FC000
03FE3FC000
03FC3FE000
03FC3FE000
03FC1FE000
03FC1FE000
07FC1FE000
07FC1FF000
07F81FF000
07F81FF000
07F80FF000
0FF80FF000
0FF80FF800
0FFFFFF800
0FFFFFF800
0FFFFFF800
1FFFFFF800
1FFFFFFC00
1FFFFFFC00
1FF007FC00
1FF007FC00
3FE003FC00
3FE003FE00
3FE003FE00
3FE003FE00
3FE003FE00
7FE003FE00
7FC001FF00
7FC001FF00
7FC001FF00
7FC001FF00
FFC001FF80
ENDCHAR
STARTCHAR 00C1
ENCODING 193
SWIDTH 525 0
DWIDTH 35 0
BBX 33 72 1 0
BITMAP
00003FE000
00007FC000
00007F8000
00007F8000
00007F0000
0000FF0000
0000FE0000
0000FC0000
0001FC0000
0001F80000
0001F00000
0003F00000
0003E00000
0000000000
0000000000
0000000000
0000000000
0000000000
001FFC0000
001FFC0000
001FFC0000
001FFC0000
003FFE0000
003FFE0000
003FFE0000
003FFE0000
003FFE0000
007FFF0000
007FFF0000
007FFF0000
007FFF0000
007FFF0000
00FFFF8000
00FF7F8000
00FF7F8000
00FF7F8000
01FE7F8000
01FE7FC000
01FE7FC000
01FE3FC000
01FE3FC000
03FE3FC000
03FC3FE000
03FC3FE000
03FC1FE000
03FC1FE000
07FC1FE000
07FC1FF000
07F81FF000
07F81FF000
07F80FF000
0FF80FF000
0FF80FF800
0FFFFFF800
0FFFFFF800
0FFFFFF800
1FFFFFF800
1FFFFFFC00
1FFFFFFC00
1FF007FC00
1FF007FC00
3FE003FC00
3FE003FE00
3FE003FE00
3FE003FE00
3FE003FE00
7FE003FE00
7FC001FF00
7FC001FF00
7FC001FF00
7FC001FF00
FFC001FF80
ENDCHAR
STARTCHAR 00C2
ENCODING 194
SWIDTH 525 0
DWIDTH 35 0
BBX 33 71 1 0
BITMAP
000FF80000
000FF80000
001FFC0000
001FFE0000
003FFE0000
003F7F0000
007F7F0000
007E3F8000
00FE3F8000
00FC1FC000
01FC1FC000
03F80FE000
0000000000
0000000000
0000000000
0000000000
0000000000
001FFC0000
001FFC0000
001FFC0000
001FFC0000
003FFE0000
003FFE0000
003FFE0000
003FFE0000
003FFE0000
007FFF0000
007FFF0000
007FFF0000
007FFF0000
007FFF0000
00FFFF8000
00FF7F8000
00FF7F8000
00FF7F8000
01FE7F8000
01FE7FC000
01FE7FC000
01FE3FC000
01FE3FC000
03FE3FC000
03FC3FE000
03FC3FE000
03FC1FE000
03FC1FE000
07FC1FE000
07FC1FF000
07F81FF000
07F81FF000
07F80FF000
0FF80FF000
0FF80FF800
0FFFFFF800
0FFFFFF800
0FFFFFF800
1FFFFFF800
1FFFFFFC00
1FFFFFFC00
1FF007FC00
1FF007FC00
3FE003FC00
3FE003FE00
3FE003FE00
3FE003FE00
3FE003FE00
7FE003FE00
7FC001FF00
7FC001FF00
7FC001FF00
7FC001FF00
FFC001FF80
ENDCHAR
STARTCHAR 00C3
ENCODING 195
SWIDTH 525 0
DWIDTH 35 0
BBX 33 68 1 0
BITMAP
0010000000
00FF03E000
01FFC3E000
01FFF3E000
03FFFFE000
03FFFFC000
03FFFFC000
03E0FF8000
03E01F0000
0000000000
0000000000
0000000000
0000000000
0000000000
001FFC0000
001FFC0000
001FFC0000
001FFC0000
003FFE0000
003FFE0000
003FFE0000
003FFE0000
003FFE0000
007FFF0000
007FFF0000
007FFF0000
007FFF0000
007FFF0000
00FFFF8000
00FF7F8000
00FF7F8000
00FF7F8000
01FE7F8000
01FE7FC000
01FE7FC000
01FE3FC000
01FE3FC000
03FE3FC000
03FC3FE000
03FC3FE000
03FC1FE000
03FC1FE000
07FC1FE000
07FC1FF000
07F81FF000
07F81FF000
07F80FF000
0FF80FF000
0FF80FF800
0FFFFFF800
0FFFFFF800
0FFFFFF800
1FFFFFF800
1FFFFFFC00
1FFFFFFC00
1FF007FC00
1FF007FC00
3FE003FC00
3FE003FE00
3FE003FE00
3FE003FE00
3FE003FE00
7FE003FE00
7FC001FF00
7FC001FF00
7FC001FF00
7FC001FF00
FFC001FF80
ENDCHAR
STARTCHAR 00C4
ENCODING 196
SWIDTH 525 0
DWIDTH 35 0
BBX 33 67 1 0
BITMAP
03FE1FE000
03FE1FE000
03FE1FE000
03FE1FE000
03FE1FE000
03FE1FE000
03FE1FE000
03FE1FE000
03FE1FE000
0000000000
0000000000
0000000000
0000000000
001FFC0000
001FFC0000
001FFC0000
001FFC0000
003FFE0000
003FFE0000
003FFE0000
003FFE0000
003FFE0000
007FFF0000
007FFF0000
007FFF0000
007FFF0000
007FFF0000
00FFFF8000
00FF7F8000
00FF7F8000
00FF7F8000
01FE7F8000
01FE7FC000
01FE7FC000
01FE3FC000
01FE3FC000
03FE3FC000
03FC3FE000
03FC3FE000
03FC1FE000
03FC1FE000
07FC1FE000
07FC1FF000
07F81FF000
07F81FF000
07F80FF000
0FF80FF000
0FF80FF800
0FFFFFF800
0FFFFFF800
0FFFFFF800
1FFFFFF800
1FFFFFFC00
1FFFFFFC00
1FF007FC00
1FF007FC00
3FE003FC00
3FE003FE00
3FE003FE00
3FE003FE00
3FE003FE00
7FE003FE00
7FC001FF00
7FC001FF00
7FC001FF00
7FC001FF00
FFC001FF80
ENDCHAR
STARTCHAR 00C5
ENCODING 197
SWIDTH 525 0
DWIDTH 35 0
BBX 33 70 1 0
BITMAP
0000800000
000FF80000
001FFC0000
003FFE0000
007FFE0000
007C1F0000
00780F0000
00780F0000
00780F0000
00780F0000
00781F0000
007C3F0000
003FFE0000
003FFE0000
000FF80000
0007F00000
001FFC0000
001FFC0000
001FFC0000
001FFC0000
003FFE0000
003FFE0000
003FFE0000
003FFE0000
003FFE0000
007FFF0000
007FFF0000
007FFF0000
007FFF0000
007FFF0000
00FFFF8000
00FF7F8000
00FF7F8000
00FF7F8000
01FE7F8000
01FE7FC000
01FE7FC000
01FE3FC000
01FE3FC000
03FE3FC000
03FC3FE000
03FC3FE000
03FC1FE000
03FC1FE000
07FC1FE000
07FC1FF000
07F81FF000
07F81FF000
07F80FF000
0FF80FF000
0FF80FF800
0FFFFFF800
0FFFFFF800
0FFFFFF800
1FFFFFF800
1FFFFFFC00
1FFFFFFC00
1FF007FC00
1FF007FC00
3FE003FC00
3FE003FE00
3FE003FE00
3FE003FE00
3FE003FE00
7FE003FE00
7FC001FF00
7FC001FF00
7FC001FF00
7FC001FF00
FFC001FF80
ENDCHAR
STARTCHAR 00C6
ENCODING 198
SWIDTH 675 0
DWIDTH 45 0
BBX 46 54 -3 0
BITMAP
000000FFFFFC
000000FFFFFC
000001FFFFFC
000001FFFFFC
000001FFFFFC
000003FFFFFC
000003FF8000
000007FF8000
000007FF8000
00000FFF8000
00000FFF8000
00001FFF8000
00001FFF8000
00001FFF8000
00003FFF8000
00003FFF8000
00007FFF8000
00007F7F8000
0000FF7F8000
0000FE7F8000
0001FE7F8000
0001FE7F8000
0001FC7F8000
0003FC7FFFC0
0003FC7FFFC0
0007F87FFFC0
0007F87FFFC0
000FF07FFFC0
000FF07FFFC0
001FF07F8000
001FE07F8000
003FE07F8000
003FE07F8000
003FC07F8000
007FC07F8000
007FFFFF8000
00FFFFFF8000
00FFFFFF8000
01FFFFFF8000
01FFFFFF8000
03FFFFFF8000
03FE007F8000
03FE007F8000
07FC007F8000
07FC007F8000
0FFC007F8000
0FF8007F8000
1FF8007F8000
1FF0007FFFFC
3FF0007FFFFC
3FE0007FFFFC
3FE0007FFFFC
7FC0007FFFFC
FFC0007FFFFC
ENDCHAR
STARTCHAR 00C7
ENCODING 199
SWIDTH 540 0
DWIDTH 36 0
BBX 30 73 3 -18
BITMAP
00010000
007FFC00
01FFFF00
07FFFFC0
0FFFFFE0
1FFFFFF0
1FFFFFF0
3FFFFFF8
3FF01FF8
7FE00FFC
7FE00FFC
7FE007FC
7FC007FC
FFC007FC
FFC007FC
FFC007FC
FFC007FC
FFC007FC
FFC007FC
FFC007FC
FFC007FC
FFC00000
FFC00000
FFC00000
FFC00000
FFC00000
FFC00000
FFC00000
FFC00000
FFC00000
FFC00000
FFC00000
FFC00000
FFC00000
FFC00000
FFC007FC
FFC007FC
FFC007FC
FFC007FC
FFC007FC
FFC007FC
FFC007FC
FFC007FC
7FC007FC
7FE00FFC
7FE00FFC
7FE00FF8
3FF01FF8
3FFFFFF8
1FFFFFF0
1FFFFFF0
0FFFFFE0
07FFFFC0
01FFFF00
007FFC00
00010000
0003C000
0003C000
0003C000
0003C000
0003E000
0003FC00
0003FF00
0000FF80
00003F80
00001FC0
00000FC0
00001FC0
00103FC0
000FFF80
000FFF00
000FFE00
0007F800
ENDCHAR
STARTCHAR 00C8
ENCODING 200
SWIDTH 435 0
DWIDTH 29 0
BBX 23 72 4 0
BITMAP
7FC000
7FC000
3FE000
1FE000
1FE000
0FF000
0FF000
07F000
03F800
03F800
01F800
00F800
00FC00
000000
000000
000000
000000
000000
FFFFFE
FFFFFE
FFFFFE
FFFFFE
FFFFFE
FFFFFE
FFC000
FFC000
FFC000
FFC000
FFC000
FFC000
FFC000
FFC000
FFC000
FFC000
FFC000
FFC000
FFC000
FFC000
FFC000
FFC000
FFC000
FFFFF0
FFFFF0
FFFFF0
FFFFF0
FFFFF0
FFFFF0
FFC000
FFC000
FFC000
FFC000
FFC000
FFC000
FFC000
FFC000
FFC000
FFC000
FFC000
FFC000
FFC000
FFC000
FFC000
FFC000
FFC000
FFC000
FFC000
FFFFFE
FFFFFE
FFFFFE
FFFFFE
FFFFFE
FFFFFE
ENDCHAR
STARTCHAR 00C9
ENCODING 201
SWIDTH 435 0
DWIDTH 29 0
BBX 23 72 4 0
BITMAP
0007FC
000FF8
000FF0
000FF0
000FE0
001FE0
001FC0
001F80
003F80
003F00
003E00
007E00
007C00
000000
000000
000000
000000
000000
FFFFFE
FFFFFE
FFFFFE
FFFFFE
FFFFFE
FFFFFE
FFC000
FFC000
FFC000
FFC000
FFC000
FFC000
FFC000
FFC000
FFC000
FFC000
FFC000
FFC000
FFC000
FFC000
FFC000
FFC000
FFC000
FFFFF0
FFFFF0
FFFFF0
FFFFF0
FFFFF0
FFFFF0
FFC000
FFC000
FFC000
FFC000
FFC000
FFC000
FFC000
FFC000
FFC000
FFC000
FFC000
FFC000
FFC000
FFC000
FFC000
FFC000
FFC000
FFC000
FFC000
FFFFFE
FFFFFE
FFFFFE
FFFFFE
FFFFFE
FFFFFE
ENDCHAR
STARTCHAR 00CA
ENCODING 202
SWIDTH 435 0
DWIDTH 29 0
BBX 23 71 4 0
BITMAP
01FF00
01FF00
03FF80
03FFC0
07FFC0
07EFE0
0FEFE0
0FC7F0
1FC7F0
1F83F8
3F83F8
7F01FC
000000
000000
000000
000000
000000
FFFFFE
FFFFFE
FFFFFE
FFFFFE
FFFFFE
FFFFFE
FFC000
FFC000
FFC000
FFC000
FFC000
FFC000
FFC000
FFC000
FFC000
FFC000
FFC000
FFC000
FFC000
FFC000
FFC000
FFC000
FFC000
FFFFF0
FFFFF0
FFFFF0
FFFFF0
FFFFF0
FFFFF0
FFC000
FFC000
FFC000
FFC000
FFC000
FFC000
FFC000
FFC000
FFC000
FFC000
FFC000
FFC000
FFC000
FFC000
FFC000
FFC000
FFC000
FFC000
FFC000
FFFFFE
FFFFFE
FFFFFE
FFFFFE
FFFFFE
FFFFFE
ENDCHAR
STARTCHAR 00CB
ENCODING 203
SWIDTH 435 0
DWIDTH 29 0
BBX 23 67 4 0
BITMAP
7FC3FC
7FC3FC
7FC3FC
7FC3FC
7FC3FC
7FC3FC
7FC3FC
7FC3FC
7FC3FC
000000
000000
000000
000000
FFFFFE
FFFFFE
FFFFFE
FFFFFE
FFFFFE
FFFFFE
FFC000
FFC000
FFC000
FFC000
FFC000
FFC000
FFC000
FFC000
FFC000
FFC000
FFC000
FFC000
FFC000
FFC000
FFC000
FFC000
FFC000
FFFFF0
FFFFF0
FFFFF0
FFFFF0
FFFFF0
FFFFF0
FFC000
FFC000
FFC000
FFC000
FFC000
FFC000
FFC000
FFC000
FFC000
FFC000
FFC000
FFC000
FFC000
FFC000
FFC000
FFC000
FFC000
FFC000
FFC000
FFFFFE
FFFFFE
FFFFFE
FFFFFE
FFFFFE
FFFFFE
ENDCHAR
STARTCHAR 00CC
ENCODING 204
SWIDTH 270 0
DWIDTH 18 0
BBX 15 72 -1 0
BITMAP
FF80
FF80
7FC0
3FC0
3FC0
1FE0
1FE0
0FE0
07F0
07F0
03F0
01F0
01F8
0000
0000
0000
0000
0000
07FE
07FE
07FE
07FE
07FE
07FE
07FE
07FE
07FE
07FE
07FE
07FE
07FE
07FE
07FE
07FE
07FE
07FE
07FE
07FE
07FE
07FE
07FE
07FE
07FE
07FE
07FE
07FE
07FE
07FE
07FE
07FE
07FE
07FE
07FE
07FE
07FE
07FE
07FE
07FE
07FE
07FE
07FE
07FE
07FE
07FE
07FE
07FE
07FE
07FE
07FE
07FE
07FE
07FE
ENDCHAR
STARTCHAR 00CD
ENCODING 205
SWIDTH 270 0
DWIDTH 18 0
BBX 16 72 4 0
BITMAP
01FF
03FE
03FC
03FC
03F8
07F8
07F0
07E0
0FE0
0FC0
0F80
1F80
1F00
0000
0000
0000
0000
0000
FFC0
FFC0
FFC0
FFC0
FFC0
FFC0
FFC0
FFC0
FFC0
FFC0
FFC0
FFC0
FFC0
FFC0
FFC0
FFC0
FFC0
FFC0
FFC0
FFC0
FFC0
FFC0
FFC0
FFC0
FFC0
FFC0
FFC0
FFC0
FFC0
FFC0
FFC0
FFC0
FFC0
FFC0
FFC0
FFC0
FFC0
FFC0
FFC0
FFC0
FFC0
FFC0
FFC0
FFC0
FFC0
FFC0
FFC0
FFC0
FFC0
FFC0
FFC0
FFC0
FFC0
FFC0
ENDCHAR
STARTCHAR 00CE
ENCODING 206
SWIDTH 270 0
DWIDTH 18 0
BBX 21 71 -1 0
BITMAP
03FE00
03FE00
07FF00
07FF80
0FFF80
0FDFC0
1FDFC0
1F8FE0
3F8FE0
3F07F0
7F07F0
FE03F8
000000
000000
000000
000000
000000
07FE00
07FE00
07FE00
07FE00
07FE00
07FE00
07FE00
07FE00
07FE00
07FE00
07FE00
07FE00
07FE00
07FE00
07FE00
07FE00
07FE00
07FE00
07FE00
07FE00
07FE00
07FE00
07FE00
07FE00
07FE00
07FE00
07FE00
07FE00
07FE00
07FE00
07FE00
07FE00
07FE00
07FE00
07FE00
07FE00
07FE00
07FE00
07FE00
07FE00
07FE00
07FE00
07FE00
07FE00
07FE00
07FE00
07FE00
07FE00
07FE00
07FE00
07FE00
07FE00
07FE00
07FE00
ENDCHAR
STARTCHAR 00CF
ENCODING 207
SWIDTH 270 0
DWIDTH 18 0
BBX 21 67 -2 0
BITMAP
FF87F8
FF87F8
FF87F8
FF87F8
FF87F8
FF87F8
FF87F8
FF87F8
FF87F8
000000
000000
000000
000000
03FF00
03FF00
03FF00
03FF00
03FF00
03FF00
03FF00
03FF00
03FF00
03FF00
03FF00
03FF00
03FF00
03FF00
03FF00
03FF00
03FF00
03FF00
03FF00
03FF00
03FF00
03FF00
03FF00
03FF00
03FF00
03FF00
03FF00
03FF00
03FF00
03FF00
03FF00
03FF00
03FF00
03FF00
03FF00
03FF00
03FF00
03FF00
03FF00
03FF00
03FF00
03FF00
03FF00
03FF00
03FF00
03FF00
03FF00
03FF00
03FF00
03FF00
03FF00
03FF00
03FF00
03FF00
ENDCHAR
STARTCHAR 00D0
ENCODING 208
SWIDTH 540 0
DWIDTH 36 0
BBX 33 54 1 0
BITMAP
1FFFFC0000
1FFFFF8000
1FFFFFE000
1FFFFFF000
1FFFFFF800
1FFFFFFC00
1FFFFFFE00
1FF81FFE00
1FF807FF00
1FF803FF00
1FF803FF00
1FF803FF00
1FF803FF00
1FF801FF00
1FF801FF80
1FF801FF80
1FF801FF80
1FF801FF80
1FF801FF80
1FF801FF80
1FF801FF80
1FF801FF80
1FF801FF80
1FF801FF80
FFFF01FF80
FFFF01FF80
FFFF01FF80
FFFF01FF80
FFFF01FF80
1FF801FF80
1FF801FF80
1FF801FF80
1FF801FF80
1FF801FF80
1FF801FF80
1FF801FF80
1FF801FF80
1FF801FF80
1FF801FF80
1FF801FF00
1FF803FF00
1FF803FF00
1FF803FF00
1FF803FF00
1FF803FF00
1FF807FE00
1FF80FFE00
1FF87FFC00
1FFFFFFC00
1FFFFFF800
1FFFFFF000
1FFFFFE000
1FFFFF8000
1FFFFC0000
ENDCHAR
STARTCHAR 00D1
ENCODING 209
SWIDTH 540 0
DWIDTH 36 0
BBX 28 68 4 0
BITMAP
00400000
03FC0F80
07FF0F80
07FFCF80
0FFFFF80
0FFFFF00
0FFFFF00
0F83FE00
0F807C00
00000000
00000000
00000000
00000000
00000000
FE000FF0
FF000FF0
FF000FF0
FF000FF0
FF800FF0
FF800FF0
FFC00FF0
FFC00FF0
FFE00FF0
FFE00FF0
FFF00FF0
FFF00FF0
FFF00FF0
FFF80FF0
FFF80FF0
FFFC0FF0
FFFC0FF0
FFFE0FF0
FFFE0FF0
FFFF0FF0
FFFF0FF0
FFFF0FF0
FFFF8FF0
FF7F8FF0
FF7FCFF0
FF7FCFF0
FF3FEFF0
FF3FEFF0
FF1FFFF0
FF1FFFF0
FF0FFFF0
FF0FFFF0
FF07FFF0
FF07FFF0
FF07FFF0
FF03FFF0
FF03FFF0
FF01FFF0
FF01FFF0
FF00FFF0
FF00FFF0
FF00FFF0
FF007FF0
FF007FF0
FF003FF0
FF003FF0
FF001FF0
FF001FF0
FF001FF0
FF000FF0
FF000FF0
FF0007F0
FF0007F0
FF0003F0
ENDCHAR
STARTCHAR 00D2
ENCODING 210
SWIDTH 570 0
DWIDTH 38 0
BBX 31 73 3 -1
BITMAP
03FE0000
03FE0000
01FF0000
00FF0000
00FF0000
007F8000
007F8000
003F8000
001FC000
001FC000
000FC000
0007C000
0007E000
00000000
00000000
00000000
00000000
00010000
007FFE00
01FFFF80
07FFFFC0
0FFFFFE0
1FFFFFF0
1FFFFFF8
3FFFFFF8
3FF01FFC
7FE00FFC
7FE007FE
7FE007FE
7FC007FE
FFC007FE
FFC007FE
FFC007FE
FFC007FE
FFC007FE
FFC007FE
FFC007FE
FFC007FE
FFC007FE
FFC007FE
FFC007FE
FFC007FE
FFC007FE
FFC007FE
FFC007FE
FFC007FE
FFC007FE
FFC007FE
FFC007FE
FFC007FE
FFC007FE
FFC007FE
FFC007FE
FFC007FE
FFC007FE
FFC007FE
FFC007FE
FFC007FE
FFC007FE
FFC007FE
7FC007FE
7FE007FE
7FE007FE
7FE00FFC
3FF01FFC
3FFFFFF8
1FFFFFF8
1FFFFFF0
0FFFFFE0
07FFFFC0
01FFFF80
007FFE00
00010000
ENDCHAR
STARTCHAR 00D3
ENCODING 211
SWIDTH 570 0
DWIDTH 38 0
BBX 31 73 3 -1
BITMAP
00007FC0
0000FF80
0000FF00
0000FF00
0000FE00
0001FE00
0001FC00
0001F800
0003F800
0003F000
0003E000
0007E000
0007C000
00000000
00000000
00000000
00000000
00010000
007FFE00
01FFFF80
07FFFFC0
0FFFFFE0
1FFFFFF0
1FFFFFF8
3FFFFFF8
3FF01FFC
7FE00FFC
7FE007FE
7FE007FE
7FC007FE
FFC007FE
FFC007FE
FFC007FE
FFC007FE
FFC007FE
FFC007FE
FFC007FE
FFC007FE
FFC007FE
FFC007FE
FFC007FE
FFC007FE
FFC007FE
FFC007FE
FFC007FE
FFC007FE
FFC007FE
FFC007FE
FFC007FE
FFC007FE
FFC007FE
FFC007FE
FFC007FE
FFC007FE
FFC007FE
FFC007FE
FFC007FE
FFC007FE
FFC007FE
FFC007FE
7FC007FE
7FE007FE
7FE007FE
7FE00FFC
3FF01FFC
3FFFFFF8
1FFFFFF8
1FFFFFF0
0FFFFFE0
07FFFFC0
01FFFF80
007FFE00
00010000
ENDCHAR
STARTCHAR 00D4
ENCODING 212
SWIDTH 570 0
DWIDTH 38 0
BBX 31 72 3 -1
BITMAP
001FF000
001FF000
003FF800
003FFC00
007FFC00
007EFE00
00FEFE00
00FC7F00
01FC7F00
01F83F80
03F83F80
07F01FC0
00000000
00000000
00000000
00000000
00010000
007FFE00
01FFFF80
07FFFFC0
0FFFFFE0
1FFFFFF0
1FFFFFF8
3FFFFFF8
3FF01FFC
7FE00FFC
7FE007FE
7FE007FE
7FC007FE
FFC007FE
FFC007FE
FFC007FE
FFC007FE
FFC007FE
FFC007FE
FFC007FE
FFC007FE
FFC007FE
FFC007FE
FFC007FE
FFC007FE
FFC007FE
FFC007FE
FFC007FE
FFC007FE
FFC007FE
FFC007FE
FFC007FE
FFC007FE
FFC007FE
FFC007FE
FFC007FE
FFC007FE
FFC007FE
FFC007FE
FFC007FE
FFC007FE
FFC007FE
FFC007FE
7FC007FE
7FE007FE
7FE007FE
7FE00FFC
3FF01FFC
3FFFFFF8
1FFFFFF8
1FFFFFF0
0FFFFFE0
07FFFFC0
01FFFF80
007FFE00
00010000
ENDCHAR
STARTCHAR 00D5
ENCODING 213
SWIDTH 570 0
DWIDTH 38 0
BBX 31 69 3 -1
BITMAP
00200000
01FE07C0
03FF87C0
03FFE7C0
07FFFFC0
07FFFF80
07FFFF80
07C1FF00
07C03E00
00000000
00000000
00000000
00000000
00010000
007FFE00
01FFFF80
07FFFFC0
0FFFFFE0
1FFFFFF0
1FFFFFF8
3FFFFFF8
3FF01FFC
7FE00FFC
7FE007FE
7FE007FE
7FC007FE
FFC007FE
FFC007FE
FFC007FE
FFC007FE
FFC007FE
FFC007FE
FFC007FE
FFC007FE
FFC007FE
FFC007FE
FFC007FE
FFC007FE
FFC007FE
FFC007FE
FFC007FE
FFC007FE
FFC007FE
FFC007FE
FFC007FE
FFC007FE
FFC007FE
FFC007FE
FFC007FE
FFC007FE
FFC007FE
FFC007FE
FFC007FE
FFC007FE
FFC007FE
FFC007FE
7FC007FE
7FE007FE
7FE007FE
7FE00FFC
3FF01FFC
3FFFFFF8
1FFFFFF8
1FFFFFF0
0FFFFFE0
07FFFFC0
01FFFF80
007FFE00
00010000
ENDCHAR
STARTCHAR 00D6
ENCODING 214
SWIDTH 570 0
DWIDTH 38 0
BBX 31 68 3 -1
BITMAP
07FC3FC0
07FC3FC0
07FC3FC0
07FC3FC0
07FC3FC0
07FC3FC0
07FC3FC0
07FC3FC0
07FC3FC0
00000000
00000000
00000000
00010000
007FFE00
01FFFF80
07FFFFC0
0FFFFFE0
1FFFFFF0
1FFFFFF8
3FFFFFF8
3FF01FFC
7FE00FFC
7FE007FE
7FE007FE
7FC007FE
FFC007FE
FFC007FE
FFC007FE
FFC007FE
FFC007FE
FFC007FE
FFC007FE
FFC007FE
FFC007FE
FFC007FE
FFC007FE
FFC007FE
FFC007FE
FFC007FE
FFC007FE
FFC007FE
FFC007FE
FFC007FE
FFC007FE
FFC007FE
FFC007FE
FFC007FE
FFC007FE
FFC007FE
FFC007FE
FFC007FE
FFC007FE
FFC007FE
FFC007FE
FFC007FE
7FC007FE
7FE007FE
7FE007FE
7FE00FFC
3FF01FFC
3FFFFFF8
1FFFFFF8
1FFFFFF0
0FFFFFE0
07FFFFC0
01FFFF80
007FFE00
00010000
ENDCHAR
STARTCHAR 00D7
ENCODING 215
SWIDTH 435 0
DWIDTH 29 0
BBX 22 22 3 16
BITMAP
080020
1C0070
3E00F8
7F01FC
FF83FC
7FC7F8
1FEFF0
0FFFE0
07FFC0
03FF80
01FF00
01FF00
03FF80
07FFC0
0FFFE0
1FEFF0
3FC7F8
FF83FC
7F01FC
3E00F8
1C0070
080020
ENDCHAR
STARTCHAR 00D8
ENCODING 216
SWIDTH 555 0
DWIDTH 37 0
BBX 31 64 3 -6
BITMAP
00000100
000001E0
000001C0
000001C0
000101C0
007FFF80
01FFFF80
07FFFFC0
0FFFFFE0
1FFFFFF0
1FFFFFF8
3FFFFFF8
3FF01FFC
7FE00FFC
7FE00FFE
7FE01FFE
7FC01FFE
FFC01FFE
FFC03FFE
FFC03FFE
FFC037FE
FFC077FE
FFC077FE
FFC077FE
FFC067FE
FFC0E7FE
FFC0E7FE
FFC0C7FE
FFC1C7FE
FFC1C7FE
FFC187FE
FFC387FE
FFC387FE
FFC307FE
FFC707FE
FFC707FE
FFC607FE
FFCE07FE
FFCE07FE
FFCE07FE
FFDC07FE
FFDC07FE
FFDC07FE
FFF807FE
FFF807FE
FFF807FE
FFF007FE
7FF007FE
7FF007FE
7FE007FE
7FE00FFC
3FF01FFC
3FFFFFF8
1FFFFFF8
1FFFFFF0
0FFFFFE0
07FFFFC0
03FFFF80
03FFFE00
07010000
07000000
07000000
0E000000
06000000
ENDCHAR
STARTCHAR 00D9
ENCODING 217
SWIDTH 570 0
DWIDTH 38 0
BBX 30 73 4 -1
BITMAP
07FC0000
07FC0000
03FE0000
01FE0000
01FE0000
00FF0000
00FF0000
007F0000
003F8000
003F8000
001F8000
000F8000
000FC000
00000000
00000000
00000000
00000000
00000000
FF8007FC
FF8007FC
FF8007FC
FF8007FC
FF8007FC
FF8007FC
FF8007FC
FF8007FC
FF8007FC
FF8007FC
FF8007FC
FF8007FC
FF8007FC
FF8007FC
FF8007FC
FF8007FC
FF8007FC
FF8007FC
FF8007FC
FF8007FC
FF8007FC
FF8007FC
FF8007FC
FF8007FC
FF8007FC
FF8007FC
FF8007FC
FF8007FC
FF8007FC
FF8007FC
FF8007FC
FF8007FC
FF8007FC
FF8007FC
FF8007FC
FF8007FC
FF8007FC
FF8007FC
FF800FFC
FF800FFC
FF800FFC
FF800FFC
FFC00FFC
FFC00FF8
FFC00FF8
7FE01FF8
7FF03FF8
3FFFFFF0
3FFFFFF0
1FFFFFE0
1FFFFFC0
0FFFFF80
03FFFF00
00FFFC00
00020000
ENDCHAR
STARTCHAR 00DA
ENCODING 218
SWIDTH 570 0
DWIDTH 38 0
BBX 30 73 4 -1
BITMAP
0000FF80
0001FF00
0001FE00
0001FE00
0001FC00
0003FC00
0003F800
0003F000
0007F000
0007E000
0007C000
000FC000
000F8000
00000000
00000000
00000000
00000000
00000000
FF8007FC
FF8007FC
FF8007FC
FF8007FC
FF8007FC
FF8007FC
FF8007FC
FF8007FC
FF8007FC
FF8007FC
FF8007FC
FF8007FC
FF8007FC
FF8007FC
FF8007FC
FF8007FC
FF8007FC
FF8007FC
FF8007FC
FF8007FC
FF8007FC
FF8007FC
FF8007FC
FF8007FC
FF8007FC
FF8007FC
FF8007FC
FF8007FC
FF8007FC
FF8007FC
FF8007FC
FF8007FC
FF8007FC
FF8007FC
FF8007FC
FF8007FC
FF8007FC
FF8007FC
FF800FFC
FF800FFC
FF800FFC
FF800FFC
FFC00FFC
FFC00FF8
FFC00FF8
7FE01FF8
7FF03FF8
3FFFFFF0
3FFFFFF0
1FFFFFE0
1FFFFFC0
0FFFFF80
03FFFF00
00FFFC00
00020000
ENDCHAR
STARTCHAR 00DB
ENCODING 219
SWIDTH 570 0
DWIDTH 38 0
BBX 30 72 4 -1
BITMAP
003FE000
003FE000
007FF000
007FF800
00FFF800
00FDFC00
01FDFC00
01F8FE00
03F8FE00
03F07F00
07F07F00
0FE03F80
00000000
00000000
00000000
00000000
00000000
FF8007FC
FF8007FC
FF8007FC
FF8007FC
FF8007FC
FF8007FC
FF8007FC
FF8007FC
FF8007FC
FF8007FC
FF8007FC
FF8007FC
FF8007FC
FF8007FC
FF8007FC
FF8007FC
FF8007FC
FF8007FC
FF8007FC
FF8007FC
FF8007FC
FF8007FC
FF8007FC
FF8007FC
FF8007FC
FF8007FC
FF8007FC
FF8007FC
FF8007FC
FF8007FC
FF8007FC
FF8007FC
FF8007FC
FF8007FC
FF8007FC
FF8007FC
FF8007FC
FF8007FC
FF800FFC
FF800FFC
FF800FFC
FF800FFC
FFC00FFC
FFC00FF8
FFC00FF8
7FE01FF8
7FF03FF8
3FFFFFF0
3FFFFFF0
1FFFFFE0
1FFFFFC0
0FFFFF80
03FFFF00
00FFFC00
00020000
ENDCHAR
STARTCHAR 00DC
ENCODING 220
SWIDTH 570 0
DWIDTH 38 0
BBX 30 68 4 -1
BITMAP
0FF87F80
0FF87F80
0FF87F80
0FF87F80
0FF87F80
0FF87F80
0FF87F80
0FF87F80
0FF87F80
00000000
00000000
00000000
00000000
FF8007FC
FF8007FC
FF8007FC
FF8007FC
FF8007FC
FF8007FC
FF8007FC
FF8007FC
FF8007FC
FF8007FC
FF8007FC
FF8007FC
FF8007FC
FF8007FC
FF8007FC
FF8007FC
FF8007FC
FF8007FC
FF8007FC
FF8007FC
FF8007FC
FF8007FC
FF8007FC
FF8007FC
FF8007FC
FF8007FC
FF8007FC
FF8007FC
FF8007FC
FF8007FC
FF8007FC
FF8007FC
FF8007FC
FF8007FC
FF8007FC
FF8007FC
FF8007FC
FF8007FC
FF800FFC
FF800FFC
FF800FFC
FF800FFC
FFC00FFC
FFC00FF8
FFC00FF8
7FE01FF8
7FF03FF8
3FFFFFF0
3FFFFFF0
1FFFFFE0
1FFFFFC0
0FFFFF80
03FFFF00
00FFFC00
00020000
ENDCHAR
STARTCHAR 00DD
ENCODING 221
SWIDTH 495 0
DWIDTH 33 0
BBX 31 72 1 0
BITMAP
00007FC0
0000FF80
0000FF00
0000FF00
0000FE00
0001FE00
0001FC00
0001F800
0003F800
0003F000
0003E000
0007E000
0007C000
00000000
00000000
00000000
00000000
00000000
FF8003FE
FF8003FE
FFC007FC
7FC007FC
7FC007FC
7FE00FF8
3FE00FF8
3FE00FF8
3FF01FF0
1FF01FF0
1FF01FF0
1FF81FE0
0FF83FE0
0FF83FC0
0FFC3FC0
07FC7FC0
07FC7F80
07FE7F80
03FEFF80
03FEFF00
03FFFF00
01FFFF00
01FFFE00
01FFFE00
00FFFE00
00FFFC00
00FFFC00
007FFC00
007FF800
007FF800
003FF800
003FF000
003FF000
001FF000
001FF000
001FF000
001FF000
001FF000
001FF000
001FF000
001FF000
001FF000
001FF000
001FF000
001FF000
001FF000
001FF000
001FF000
001FF000
001FF000
001FF000
001FF000
001FF000
001FF000
ENDCHAR
STARTCHAR 00DE
ENCODING 222
SWIDTH 525 0
DWIDTH 35 0
BBX 30 54 4 0
BITMAP
FFC00000
FFC00000
FFC00000
FFC00000
FFC00000
FFC00000
FFC00000
FFFFF800
FFFFFF00
FFFFFF80
FFFFFFE0
FFFFFFE0
FFFFFFF0
FFFFFFF8
FFFFFFF8
FFC03FF8
FFC01FFC
FFC00FFC
FFC00FFC
FFC007FC
FFC007FC
FFC007FC
FFC007FC
FFC007FC
FFC007FC
FFC007FC
FFC007FC
FFC00FFC
FFC00FFC
FFC01FFC
FFC07FF8
FFFFFFF8
FFFFFFF0
FFFFFFE0
FFFFFFE0
FFFFFF80
FFFFFF00
FFFFF000
FFC00000
FFC00000
FFC00000
FFC00000
FFC00000
FFC00000
FFC00000
FFC00000
FFC00000
FFC00000
FFC00000
FFC00000
FFC00000
FFC00000
FFC00000
FFC00000
ENDCHAR
STARTCHAR 00DF
ENCODING 223
SWIDTH 540 0
DWIDTH 36 0
BBX 30 56 3 -1
BITMAP
00040000
00FFF000
03FFFC00
07FFFE00
0FFFFF00
1FFFFF80
3FFFFF80
3FF07FC0
7FE03FC0
7FC03FE0
7FC03FE0
7FC01FE0
7FC01FE0
7FC01FE0
FFC01FE0
FFC01FE0
FFC01FE0
FFC01FE0
FFC01FE0
FFC03FE0
FFC03FC0
FFC07FC0
FFC07F80
FFC1FF80
FFC7FF00
FFC7FC00
FFC7F800
FFC7FC00
FFC7FF00
FFC7FF80
FFC7FFC0
FFC0FFE0
FFC03FF0
FFC01FF0
FFC01FF8
FFC00FF8
FFC00FF8
FFC00FF8
FFC00FFC
FFC00FFC
FFC00FFC
FFC00FFC
FFC00FF8
FFC00FF8
FFC00FF8
FFC01FF8
FFC01FF8
FFC03FF0
FFC7FFF0
FFC7FFE0
FFC7FFE0
FFC7FFC0
FFC7FF00
FFC7FE00
FFC7F800
00040000
ENDCHAR
STARTCHAR 00E0
ENCODING 224
SWIDTH 450 0
DWIDTH 30 0
BBX 25 57 3 -1
BITMAP
3FE00000
3FE00000
1FF00000
0FF00000
0FF00000
07F80000
07F80000
03F80000
01FC0000
01FC0000
00FC0000
007C0000
007E0000
00000000
00000000
00000000
00000000
00080000
01FFC000
07FFF000
1FFFF800
1FFFFC00
3FFFFE00
7FFFFE00
7FC3FE00
7F81FF00
FF81FF00
FF81FF00
FF81FF00
FF81FF00
0001FF00
0001FF00
0003FF00
000FFF00
007FFF00
01FFFF00
03FFFF00
0FFDFF00
1FF1FF00
3FE1FF00
7FC1FF00
7FC1FF00
FF81FF00
FF81FF00
FF01FF00
FF01FF00
FF01FF00
FF81FF00
FF83FF00
FFFFFF00
FFFFFF00
FFFEFF00
7FFEFF00
3FFCFF80
1FF8FF80
0FF0FF80
01000000
ENDCHAR
STARTCHAR 00E1
ENCODING 225
SWIDTH 450 0
DWIDTH 30 0
BBX 25 57 3 -1
BITMAP
0003FE00
0007FC00
0007F800
0007F800
0007F000
000FF000
000FE000
000FC000
001FC000
001F8000
001F0000
003F0000
003E0000
00000000
00000000
00000000
00000000
00080000
01FFC000
07FFF000
1FFFF800
1FFFFC00
3FFFFE00
7FFFFE00
7FC3FE00
7F81FF00
FF81FF00
FF81FF00
FF81FF00
FF81FF00
0001FF00
0001FF00
0003FF00
000FFF00
007FFF00
01FFFF00
03FFFF00
0FFDFF00
1FF1FF00
3FE1FF00
7FC1FF00
7FC1FF00
FF81FF00
FF81FF00
FF01FF00
FF01FF00
FF01FF00
FF81FF00
FF83FF00
FFFFFF00
FFFFFF00
FFFEFF00
7FFEFF00
3FFCFF80
1FF8FF80
0FF0FF80
01000000
ENDCHAR
STARTCHAR 00E2
ENCODING 226
SWIDTH 450 0
DWIDTH 30 0
BBX 25 56 3 -1
BITMAP
00FF8000
00FF8000
01FFC000
01FFE000
03FFE000
03F7F000
07F7F000
07E3F800
0FE3F800
0FC1FC00
1FC1FC00
3F80FE00
00000000
00000000
00000000
00000000
00080000
01FFC000
07FFF000
1FFFF800
1FFFFC00
3FFFFE00
7FFFFE00
7FC3FE00
7F81FF00
FF81FF00
FF81FF00
FF81FF00
FF81FF00
0001FF00
0001FF00
0003FF00
000FFF00
007FFF00
01FFFF00
03FFFF00
0FFDFF00
1FF1FF00
3FE1FF00
7FC1FF00
7FC1FF00
FF81FF00
FF81FF00
FF01FF00
FF01FF00
FF01FF00
FF81FF00
FF83FF00
FFFFFF00
FFFFFF00
FFFEFF00
7FFEFF00
3FFCFF80
1FF8FF80
0FF0FF80
01000000
ENDCHAR
STARTCHAR 00E3
ENCODING 227
SWIDTH 450 0
DWIDTH 30 0
BBX 25 54 3 -1
BITMAP
01000000
0FF03E00
1FFC3E00
1FFF3E00
3FFFFE00
3FFFFC00
3FFFFC00
3E0FF800
3E01F000
00000000
00000000
00000000
00000000
00000000
00080000
01FFC000
07FFF000
1FFFF800
1FFFFC00
3FFFFE00
7FFFFE00
7FC3FE00
7F81FF00
FF81FF00
FF81FF00
FF81FF00
FF81FF00
0001FF00
0001FF00
0003FF00
000FFF00
007FFF00
01FFFF00
03FFFF00
0FFDFF00
1FF1FF00
3FE1FF00
7FC1FF00
7FC1FF00
FF81FF00
FF81FF00
FF01FF00
FF01FF00
FF01FF00
FF81FF00
FF83FF00
FFFFFF00
FFFFFF00
FFFEFF00
7FFEFF00
3FFCFF80
1FF8FF80
0FF0FF80
01000000
ENDCHAR
STARTCHAR 00E4
ENCODING 228
SWIDTH 450 0
DWIDTH 30 0
BBX 25 53 3 -1
BITMAP
7FC3FC00
7FC3FC00
7FC3FC00
7FC3FC00
7FC3FC00
7FC3FC00
7FC3FC00
7FC3FC00
7FC3FC00
00000000
00000000
00000000
00000000
00080000
01FFC000
07FFF000
1FFFF800
1FFFFC00
3FFFFE00
7FFFFE00
7FC3FE00
7F81FF00
FF81FF00
FF81FF00
FF81FF00
FF81FF00
0001FF00
0001FF00
0003FF00
000FFF00
007FFF00
01FFFF00
03FFFF00
0FFDFF00
1FF1FF00
3FE1FF00
7FC1FF00
7FC1FF00
FF81FF00
FF81FF00
FF01FF00
FF01FF00
FF01FF00
FF81FF00
FF83FF00
FFFFFF00
FFFFFF00
FFFEFF00
7FFEFF00
3FFCFF80
1FF8FF80
0FF0FF80
01000000
ENDCHAR
STARTCHAR 00E5
ENCODING 229
SWIDTH 450 0
DWIDTH 30 0
BBX 25 60 3 -1
BITMAP
00080000
00FF8000
01FFC000
03FFE000
07FFE000
07C1F000
0780F000
0780F000
0780F000
0780F000
0781F000
07C3F000
03FFE000
03FFE000
00FF8000
007F0000
00000000
00000000
00000000
00000000
00080000
01FFC000
07FFF000
1FFFF800
1FFFFC00
3FFFFE00
7FFFFE00
7FC3FE00
7F81FF00
FF81FF00
FF81FF00
FF81FF00
FF81FF00
0001FF00
0001FF00
0003FF00
000FFF00
007FFF00
01FFFF00
03FFFF00
0FFDFF00
1FF1FF00
3FE1FF00
7FC1FF00
7FC1FF00
FF81FF00
FF81FF00
FF01FF00
FF01FF00
FF01FF00
FF81FF00
FF83FF00
FFFFFF00
FFFFFF00
FFFEFF00
7FFEFF00
3FFCFF80
1FF8FF80
0FF0FF80
01000000
ENDCHAR
STARTCHAR 00E6
ENCODING 230
SWIDTH 675 0
DWIDTH 45 0
BBX 39 40 3 -1
BITMAP
0010001000
03FF01FF80
0FFFC7FFE0
1FFFEFFFF0
3FFFEFFFF8
7FFFFFFFF8
7FFFFFFFFC
FFFFFFC7FC
FFC3FF83FC
FF81FF03FC
FF81FF01FE
FF81FF01FE
FF81FF01FE
0001FF03FC
0001FF07FC
0001FF1FF8
0001FFFFF8
0001FFFFE0
003FFFFF80
01FFFFF800
07FFFF0000
0FFFFF0000
3FF9FF0000
7FE1FF0000
7FC1FF0000
FF81FF0000
FF81FF03FE
FF01FF03FE
FF01FF03FE
FF01FF03FE
FF03FF03FC
FF83FF87FC
FF87FF87FC
FFFFDFFFFC
FFFFDFFFF8
7FFF8FFFF8
3FFF0FFFF0
1FFE07FFE0
0FF801FF80
0080001000
ENDCHAR
STARTCHAR 00E7
ENCODING 231
SWIDTH 435 0
DWIDTH 29 0
BBX 24 57 3 -18
BITMAP
000800
03FFC0
0FFFF0
1FFFF8
3FFFFC
3FFFFE
7FFFFE
7FC3FE
FF81FF
FF81FF
FF81FF
FF81FF
FF81FF
FF81FF
FF81FF
FF8000
FF8000
FF8000
FF8000
FF8000
FF8000
FF8000
FF8000
FF8000
FF81FF
FF81FF
FF81FF
FF81FF
FF81FF
FF81FF
FF81FF
7F81FF
7FC3FE
7FFFFE
3FFFFC
3FFFFC
1FFFF8
0FFFF0
03FFC0
000800
001E00
001E00
001E00
001E00
001F00
001FE0
001FF8
0007FC
0001FC
0000FE
00007E
0000FE
0081FE
007FFC
007FF8
007FF0
003FC0
ENDCHAR
STARTCHAR 00E8
ENCODING 232
SWIDTH 450 0
DWIDTH 30 0
BBX 24 57 3 -1
BITMAP
3FE000
3FE000
1FF000
0FF000
0FF000
07F800
07F800
03F800
01FC00
01FC00
00FC00
007C00
007E00
000000
000000
000000
000000
000800
03FFC0
0FFFF0
1FFFF8
3FFFFC
3FFFFC
7FFFFE
7FC3FE
7F81FF
FF81FF
FF81FF
FF81FF
FF81FF
FF81FF
FF81FF
FFFFFF
FFFFFF
FFFFFF
FFFFFF
FFFFFF
FF8000
FF8000
FF8000
FF8000
FF8000
FF8000
FF81FF
FF81FF
FF81FF
FF81FF
FF81FF
FFC1FF
7FC3FE
7FFFFE
3FFFFE
3FFFFC
1FFFF8
0FFFF0
03FFC0
000800
ENDCHAR
STARTCHAR 00E9
ENCODING 233
SWIDTH 450 0
DWIDTH 30 0
BBX 24 57 3 -1
BITMAP
0003FE
0007FC
0007F8
0007F8
0007F0
000FF0
000FE0
000FC0
001FC0
001F80
001F00
003F00
003E00
000000
000000
000000
000000
000800
03FFC0
0FFFF0
1FFFF8
3FFFFC
3FFFFC
7FFFFE
7FC3FE
7F81FF
FF81FF
FF81FF
FF81FF
FF81FF
FF81FF
FF81FF
FFFFFF
FFFFFF
FFFFFF
FFFFFF
FFFFFF
FF8000
FF8000
FF8000
FF8000
FF8000
FF8000
FF81FF
FF81FF
FF81FF
FF81FF
FF81FF
FFC1FF
7FC3FE
7FFFFE
3FFFFE
3FFFFC
1FFFF8
0FFFF0
03FFC0
000800
ENDCHAR
STARTCHAR 00EA
ENCODING 234
SWIDTH 450 0
DWIDTH 30 0
BBX 24 56 3 -1
BITMAP
01FF00
01FF00
03FF80
03FFC0
07FFC0
07EFE0
0FEFE0
0FC7F0
1FC7F0
1F83F8
3F83F8
7F01FC
000000
000000
000000
000000
000800
03FFC0
0FFFF0
1FFFF8
3FFFFC
3FFFFC
7FFFFE
7FC3FE
7F81FF
FF81FF
FF81FF
FF81FF
FF81FF
FF81FF
FF81FF
FFFFFF
FFFFFF
FFFFFF
FFFFFF
FFFFFF
FF8000
FF8000
FF8000
FF8000
FF8000
FF8000
FF81FF
FF81FF
FF81FF
FF81FF
FF81FF
FFC1FF
7FC3FE
7FFFFE
3FFFFE
3FFFFC
1FFFF8
0FFFF0
03FFC0
000800
ENDCHAR
STARTCHAR 00EB
ENCODING 235
SWIDTH 450 0
DWIDTH 30 0
BBX 24 53 3 -1
BITMAP
7FC3FC
7FC3FC
7FC3FC
7FC3FC
7FC3FC
7FC3FC
7FC3FC
7FC3FC
7FC3FC
000000
000000
000000
000000
000800
03FFC0
0FFFF0
1FFFF8
3FFFFC
3FFFFC
7FFFFE
7FC3FE
7F81FF
FF81FF
FF81FF
FF81FF
FF81FF
FF81FF
FF81FF
FFFFFF
FFFFFF
FFFFFF
FFFFFF
FFFFFF
FF8000
FF8000
FF8000
FF8000
FF8000
FF8000
FF81FF
FF81FF
FF81FF
FF81FF
FF81FF
FFC1FF
7FC3FE
7FFFFE
3FFFFE
3FFFFC
1FFFF8
0FFFF0
03FFC0
000800
ENDCHAR
STARTCHAR 00EC
ENCODING 236
SWIDTH 255 0
DWIDTH 17 0
BBX 15 56 -2 0
BITMAP
FF80
FF80
7FC0
3FC0
3FC0
1FE0
1FE0
0FE0
07F0
07F0
03F0
01F0
01F8
0000
0000
0000
0000
0000
03FE
03FE
03FE
03FE
03FE
03FE
03FE
03FE
03FE
03FE
03FE
03FE
03FE
03FE
03FE
03FE
03FE
03FE
03FE
03FE
03FE
03FE
03FE
03FE
03FE
03FE
03FE
03FE
03FE
03FE
03FE
03FE
03FE
03FE
03FE
03FE
03FE
03FE
ENDCHAR
STARTCHAR 00ED
ENCODING 237
SWIDTH 255 0
DWIDTH 17 0
BBX 15 56 4 0
BITMAP
03FE
07FC
07F8
07F8
07F0
0FF0
0FE0
0FC0
1FC0
1F80
1F00
3F00
3E00
0000
0000
0000
0000
0000
FF80
FF80
FF80
FF80
FF80
FF80
FF80
FF80
FF80
FF80
FF80
FF80
FF80
FF80
FF80
FF80
FF80
FF80
FF80
FF80
FF80
FF80
FF80
FF80
FF80
FF80
FF80
FF80
FF80
FF80
FF80
FF80
FF80
FF80
FF80
FF80
FF80
FF80
ENDCHAR
STARTCHAR 00EE
ENCODING 238
SWIDTH 255 0
DWIDTH 17 0
BBX 21 55 -2 0
BITMAP
03FE00
03FE00
07FF00
07FF80
0FFF80
0FDFC0
1FDFC0
1F8FE0
3F8FE0
3F07F0
7F07F0
FE03F8
000000
000000
000000
000000
000000
03FE00
03FE00
03FE00
03FE00
03FE00
03FE00
03FE00
03FE00
03FE00
03FE00
03FE00
03FE00
03FE00
03FE00
03FE00
03FE00
03FE00
03FE00
03FE00
03FE00
03FE00
03FE00
03FE00
03FE00
03FE00
03FE00
03FE00
03FE00
03FE00
03FE00
03FE00
03FE00
03FE00
03FE00
03FE00
03FE00
03FE00
03FE00
ENDCHAR
STARTCHAR 00EF
ENCODING 239
SWIDTH 255 0
DWIDTH 17 0
BBX 21 52 -2 0
BITMAP
FF87F8
FF87F8
FF87F8
FF87F8
FF87F8
FF87F8
FF87F8
FF87F8
FF87F8
000000
000000
000000
000000
000000
03FE00
03FE00
03FE00
03FE00
03FE00
03FE00
03FE00
03FE00
03FE00
03FE00
03FE00
03FE00
03FE00
03FE00
03FE00
03FE00
03FE00
03FE00
03FE00
03FE00
03FE00
03FE00
03FE00
03FE00
03FE00
03FE00
03FE00
03FE00
03FE00
03FE00
03FE00
03FE00
03FE00
03FE00
03FE00
03FE00
03FE00
03FE00
ENDCHAR
STARTCHAR 00F0
ENCODING 240
SWIDTH 495 0
DWIDTH 33 0
BBX 28 56 3 -1
BITMAP
08000000
0FF80000
0FFF0000
0FFF8010
0FFFE070
0FFFF3F0
0FFFFFF0
003FFFE0
0007FF00
000FFE00
007FFE00
00FFFF00
00F8FF00
00C0FF00
00007F80
00007F80
00007F80
00FE7F80
03FFFFC0
07FFFFC0
0FFFFFC0
1FFFFFC0
1FFFFFC0
3FF9FFC0
3FE07FE0
7FE03FE0
7FC03FE0
7FC03FE0
7FC03FE0
7FC03FE0
7FC03FE0
FFC03FE0
FFC03FE0
FFC03FE0
FFC03FE0
FFC03FE0
FFC03FE0
FFC03FE0
FFC03FE0
FFC03FE0
FF803FE0
FF803FE0
7F803FE0
7F803FE0
7FC07FC0
7FC07FC0
7FC07FC0
7FC07FC0
3FE0FF80
3FFFFF80
1FFFFF00
1FFFFE00
0FFFFC00
07FFF800
01FFE000
00040000
ENDCHAR
STARTCHAR 00F1
ENCODING 241
SWIDTH 480 0
DWIDTH 32 0
BBX 25 53 3 0
BITMAP
01000000
0FF03E00
1FFC3E00
1FFF3E00
3FFFFE00
3FFFFC00
3FFFFC00
3E0FF800
3E01F000
00000000
00000000
00000000
00000000
00000000
00001000
FFC3FE00
FFCFFF00
FFDFFF00
FFFFFF80
FFFFFF80
FFFFFF80
FFF0FF80
FFC0FF80
FFC0FF80
FFC0FF80
FFC0FF80
FFC0FF80
FFC0FF80
FFC0FF80
FFC0FF80
FFC0FF80
FFC0FF80
FFC0FF80
FFC0FF80
FFC0FF80
FFC0FF80
FFC0FF80
FFC0FF80
FFC0FF80
FFC0FF80
FFC0FF80
FFC0FF80
FFC0FF80
FFC0FF80
FFC0FF80
FFC0FF80
FFC0FF80
FFC0FF80
FFC0FF80
FFC0FF80
FFC0FF80
FFC0FF80
FFC0FF80
ENDCHAR
STARTCHAR 00F2
ENCODING 242
SWIDTH 450 0
DWIDTH 30 0
BBX 25 57 3 -1
BITMAP
3FE00000
3FE00000
1FF00000
0FF00000
0FF00000
07F80000
07F80000
03F80000
01FC0000
01FC0000
00FC0000
007C0000
007E0000
00000000
00000000
00000000
00000000
00080000
03FFC000
0FFFF000
1FFFF800
3FFFFC00
3FFFFE00
7FFFFE00
7FC3FF00
FF81FF00
FF81FF00
FF81FF00
FF81FF00
FF81FF80
FF80FF80
FF80FF80
FF80FF80
FF80FF80
FF80FF80
FF80FF80
FF80FF80
FF80FF80
FF80FF80
FF80FF80
FF80FF80
FF80FF80
FF80FF80
FF80FF80
FF81FF80
FF81FF80
FF81FF00
FF81FF00
FF81FF00
7FC3FF00
7FFFFE00
3FFFFE00
3FFFFC00
1FFFF800
0FFFF000
03FFC000
00080000
ENDCHAR
STARTCHAR 00F3
ENCODING 243
SWIDTH 450 0
DWIDTH 30 0
BBX 25 57 3 -1
BITMAP
0003FE00
0007FC00
0007F800
0007F800
0007F000
000FF000
000FE000
000FC000
001FC000
001F8000
001F0000
003F0000
003E0000
00000000
00000000
00000000
00000000
00080000
03FFC000
0FFFF000
1FFFF800
3FFFFC00
3FFFFE00
7FFFFE00
7FC3FF00
FF81FF00
FF81FF00
FF81FF00
FF81FF00
FF81FF80
FF80FF80
FF80FF80
FF80FF80
FF80FF80
FF80FF80
FF80FF80
FF80FF80
FF80FF80
FF80FF80
FF80FF80
FF80FF80
FF80FF80
FF80FF80
FF80FF80
FF81FF80
FF81FF80
FF81FF00
FF81FF00
FF81FF00
7FC3FF00
7FFFFE00
3FFFFE00
3FFFFC00
1FFFF800
0FFFF000
03FFC000
00080000
ENDCHAR
STARTCHAR 00F4
ENCODING 244
SWIDTH 450 0
DWIDTH 30 0
BBX 25 56 3 -1
BITMAP
00FF8000
00FF8000
01FFC000
01FFE000
03FFE000
03F7F000
07F7F000
07E3F800
0FE3F800
0FC1FC00
1FC1FC00
3F80FE00
00000000
00000000
00000000
00000000
00080000
03FFC000
0FFFF000
1FFFF800
3FFFFC00
3FFFFE00
7FFFFE00
7FC3FF00
FF81FF00
FF81FF00
FF81FF00
FF81FF00
FF81FF80
FF80FF80
FF80FF80
FF80FF80
FF80FF80
FF80FF80
FF80FF80
FF80FF80
FF80FF80
FF80FF80
FF80FF80
FF80FF80
FF80FF80
FF80FF80
FF80FF80
FF81FF80
FF81FF80
FF81FF00
FF81FF00
FF81FF00
7FC3FF00
7FFFFE00
3FFFFE00
3FFFFC00
1FFFF800
0FFFF000
03FFC000
00080000
ENDCHAR
STARTCHAR 00F5
ENCODING 245
SWIDTH 450 0
DWIDTH 30 0
BBX 25 54 3 -1
BITMAP
01000000
0FF03E00
1FFC3E00
1FFF3E00
3FFFFE00
3FFFFC00
3FFFFC00
3E0FF800
3E01F000
00000000
00000000
00000000
00000000
00000000
00080000
03FFC000
0FFFF000
1FFFF800
3FFFFC00
3FFFFE00
7FFFFE00
7FC3FF00
FF81FF00
FF81FF00
FF81FF00
FF81FF00
FF81FF80
FF80FF80
FF80FF80
FF80FF80
FF80FF80
FF80FF80
FF80FF80
FF80FF80
FF80FF80
FF80FF80
FF80FF80
FF80FF80
FF80FF80
FF80FF80
FF80FF80
FF81FF80
FF81FF80
FF81FF00
FF81FF00
FF81FF00
7FC3FF00
7FFFFE00
3FFFFE00
3FFFFC00
1FFFF800
0FFFF000
03FFC000
00080000
ENDCHAR
STARTCHAR 00F6
ENCODING 246
SWIDTH 450 0
DWIDTH 30 0
BBX 25 53 3 -1
BITMAP
7FC3FC00
7FC3FC00
7FC3FC00
7FC3FC00
7FC3FC00
7FC3FC00
7FC3FC00
7FC3FC00
7FC3FC00
00000000
00000000
00000000
00000000
00080000
03FFC000
0FFFF000
1FFFF800
3FFFFC00
3FFFFE00
7FFFFE00
7FC3FF00
FF81FF00
FF81FF00
FF81FF00
FF81FF00
FF81FF80
FF80FF80
FF80FF80
FF80FF80
FF80FF80
FF80FF80
FF80FF80
FF80FF80
FF80FF80
FF80FF80
FF80FF80
FF80FF80
FF80FF80
FF80FF80
FF80FF80
FF81FF80
FF81FF80
FF81FF00
FF81FF00
FF81FF00
7FC3FF00
7FFFFE00
3FFFFE00
3FFFFC00
1FFFF800
0FFFF000
03FFC000
00080000
ENDCHAR
STARTCHAR 00F7
ENCODING 247
SWIDTH 390 0
DWIDTH 26 0
BBX 23 32 2 11
BITMAP
00FE00
00FE00
00FE00
00FE00
00FE00
00FE00
00FE00
00FE00
000000
000000
000000
000000
000000
FFFFFE
FFFFFE
FFFFFE
FFFFFE
FFFFFE
FFFFFE
000000
000000
000000
000000
000000
00FE00
00FE00
00FE00
00FE00
00FE00
00FE00
00FE00
00FE00
ENDCHAR
STARTCHAR 00F8
ENCODING 248
SWIDTH 450 0
DWIDTH 30 0
BBX 25 50 3 -6
BITMAP
00000C00
00000E00
00001C00
00001C00
00001800
00083800
03FFF800
0FFFF000
1FFFF800
3FFFFC00
3FFFFE00
7FFFFE00
7FC3FF00
FF81FF00
FF81FF00
FF83FF00
FF83FF00
FF83FF80
FF87FF80
FF87FF80
FF8EFF80
FF8EFF80
FF8EFF80
FF9CFF80
FF9CFF80
FF98FF80
FFB8FF80
FFB8FF80
FFF0FF80
FFF0FF80
FFE0FF80
FFE0FF80
FFE1FF80
FFC1FF80
FFC1FF00
FF81FF00
FF81FF00
7FC3FF00
7FFFFE00
3FFFFE00
3FFFFC00
1FFFF800
0FFFF000
0FFFC000
1C080000
1C000000
18000000
38000000
30000000
70000000
ENDCHAR
STARTCHAR 00F9
ENCODING 249
SWIDTH 480 0
DWIDTH 32 0
BBX 25 57 3 -1
BITMAP
3FE00000
3FE00000
1FF00000
0FF00000
0FF00000
07F80000
07F80000
03F80000
01FC0000
01FC0000
00FC0000
007C0000
007E0000
00000000
00000000
00000000
00000000
00000000
FF80FF80
FF80FF80
FF80FF80
FF80FF80
FF80FF80
FF80FF80
FF80FF80
FF80FF80
FF80FF80
FF80FF80
FF80FF80
FF80FF80
FF80FF80
FF80FF80
FF80FF80
FF80FF80
FF80FF80
FF80FF80
FF80FF80
FF80FF80
FF80FF80
FF80FF80
FF80FF80
FF80FF80
FF80FF80
FF80FF80
FF80FF80
FF80FF80
FF80FF80
FF80FF80
FFC0FF80
FFC3FF80
FFFFFF80
7FFFFF80
7FFFFF80
7FFEFF80
3FF8FF80
1FE0FF80
02000000
ENDCHAR
STARTCHAR 00FA
ENCODING 250
SWIDTH 480 0
DWIDTH 32 0
BBX 25 57 3 -1
BITMAP
0003FE00
0007FC00
0007F800
0007F800
0007F000
000FF000
000FE000
000FC000
001FC000
001F8000
001F0000
003F0000
003E0000
00000000
00000000
00000000
00000000
00000000
FF80FF80
FF80FF80
FF80FF80
FF80FF80
FF80FF80
FF80FF80
FF80FF80
FF80FF80
FF80FF80
FF80FF80
FF80FF80
FF80FF80
FF80FF80
FF80FF80
FF80FF80
FF80FF80
FF80FF80
FF80FF80
FF80FF80
FF80FF80
FF80FF80
FF80FF80
FF80FF80
FF80FF80
FF80FF80
FF80FF80
FF80FF80
FF80FF80
FF80FF80
FF80FF80
FFC0FF80
FFC3FF80
FFFFFF80
7FFFFF80
7FFFFF80
7FFEFF80
3FF8FF80
1FE0FF80
02000000
ENDCHAR
STARTCHAR 00FB
ENCODING 251
SWIDTH 480 0
DWIDTH 32 0
BBX 25 56 3 -1
BITMAP
00FF8000
00FF8000
01FFC000
01FFE000
03FFE000
03F7F000
07F7F000
07E3F800
0FE3F800
0FC1FC00
1FC1FC00
3F80FE00
00000000
00000000
00000000
00000000
00000000
FF80FF80
FF80FF80
FF80FF80
FF80FF80
FF80FF80
FF80FF80
FF80FF80
FF80FF80
FF80FF80
FF80FF80
FF80FF80
FF80FF80
FF80FF80
FF80FF80
FF80FF80
FF80FF80
FF80FF80
FF80FF80
FF80FF80
FF80FF80
FF80FF80
FF80FF80
FF80FF80
FF80FF80
FF80FF80
FF80FF80
FF80FF80
FF80FF80
FF80FF80
FF80FF80
FFC0FF80
FFC3FF80
FFFFFF80
7FFFFF80
7FFFFF80
7FFEFF80
3FF8FF80
1FE0FF80
02000000
ENDCHAR
STARTCHAR 00FC
ENCODING 252
SWIDTH 480 0
DWIDTH 32 0
BBX 25 53 3 -1
BITMAP
3FE1FE00
3FE1FE00
3FE1FE00
3FE1FE00
3FE1FE00
3FE1FE00
3FE1FE00
3FE1FE00
3FE1FE00
00000000
00000000
00000000
00000000
00000000
FF80FF80
FF80FF80
FF80FF80
FF80FF80
FF80FF80
FF80FF80
FF80FF80
FF80FF80
FF80FF80
FF80FF80
FF80FF80
FF80FF80
FF80FF80
FF80FF80
FF80FF80
FF80FF80
FF80FF80
FF80FF80
FF80FF80
FF80FF80
FF80FF80
FF80FF80
FF80FF80
FF80FF80
FF80FF80
FF80FF80
FF80FF80
FF80FF80
FF80FF80
FF80FF80
FFC0FF80
FFC3FF80
FFFFFF80
7FFFFF80
7FFFFF80
7FFEFF80
3FF8FF80
1FE0FF80
02000000
ENDCHAR
STARTCHAR 00FD
ENCODING 253
SWIDTH 420 0
DWIDTH 28 0
BBX 27 66 0 -11
BITMAP
0001FF00
0003FE00
0003FC00
0003FC00
0003F800
0007F800
0007F000
0007E000
000FE000
000FC000
000F8000
001F8000
001F0000
00000000
00000000
00000000
00000000
00000000
FF801FE0
7FC01FE0
7FC03FE0
7FC03FE0
3FC03FC0
3FC03FC0
3FE03FC0
3FE07FC0
1FE07F80
1FE07F80
1FE07F80
1FF07F80
0FF07F00
0FF0FF00
0FF0FF00
0FF0FF00
07F8FE00
07F8FE00
07F9FE00
07F9FE00
03F9FC00
03F9FC00
03FDFC00
03FDFC00
01FFF800
01FFF800
01FFF800
00FFF800
00FFF000
00FFF000
00FFF000
007FF000
007FE000
007FE000
007FE000
003FE000
003FC000
003FC000
003FC000
003FC000
003FC000
007FC000
0FFF8000
0FFF8000
0FFF0000
0FFE0000
0FFC0000
0FE00000
ENDCHAR
STARTCHAR 00FE
ENCODING 254
SWIDTH 480 0
DWIDTH 32 0
BBX 26 66 3 -12
BITMAP
FFC00000
FFC00000
FFC00000
FFC00000
FFC00000
FFC00000
FFC00000
FFC00000
FFC00000
FFC00000
FFC00000
FFC00000
FFC00000
FFC00000
FFC00000
FFC04000
FFC7F800
FFDFFC00
FFFFFE00
FFFFFF00
FFFFFF00
FFFFFF80
FFE1FF80
FFC0FF80
FFC0FFC0
FFC07FC0
FFC07FC0
FFC07FC0
FFC07FC0
FFC07FC0
FFC07FC0
FFC07FC0
FFC07FC0
FFC07FC0
FFC07FC0
FFC07FC0
FFC07FC0
FFC07FC0
FFC07FC0
FFC07FC0
FFC07FC0
FFC07FC0
FFC07FC0
FFC07FC0
FFC07FC0
FFC0FFC0
FFC0FF80
FFE1FF80
FFFFFF80
FFFFFF00
FFFFFF00
FFFFFE00
FFDFFC00
FFC7F800
FFC08000
FFC00000
FFC00000
FFC00000
FFC00000
FFC00000
FFC00000
FFC00000
FFC00000
FFC00000
FFC00000
FFC00000
ENDCHAR
STARTCHAR 00FF
ENCODING 255
SWIDTH 420 0
DWIDTH 28 0
BBX 27 62 0 -11
BITMAP
1FF0FF00
1FF0FF00
1FF0FF00
1FF0FF00
1FF0FF00
1FF0FF00
1FF0FF00
1FF0FF00
1FF0FF00
00000000
00000000
00000000
00000000
00000000
FF801FE0
7FC01FE0
7FC03FE0
7FC03FE0
3FC03FC0
3FC03FC0
3FE03FC0
3FE07FC0
1FE07F80
1FE07F80
1FE07F80
1FF07F80
0FF07F00
0FF0FF00
0FF0FF00
0FF0FF00
07F8FE00
07F8FE00
07F9FE00
07F9FE00
03F9FC00
03F9FC00
03FDFC00
03FDFC00
01FFF800
01FFF800
01FFF800
00FFF800
00FFF000
00FFF000
00FFF000
007FF000
007FE000
007FE000
007FE000
003FE000
003FC000
003FC000
003FC000
003FC000
003FC000
007FC000
0FFF8000
0FFF8000
0FFF0000
0FFE0000
0FFC0000
0FE00000
ENDCHAR
STARTCHAR 0100
ENCODING 256
SWIDTH 525 0
DWIDTH 35 0
BBX 33 63 1 0
BITMAP
007FFF0000
007FFF0000
007FFF0000
007FFF0000
007FFF0000
0000000000
0000000000
0000000000
0000000000
001FFC0000
001FFC0000
001FFC0000
001FFC0000
003FFE0000
003FFE0000
003FFE0000
003FFE0000
003FFE0000
007FFF0000
007FFF0000
007FFF0000
007FFF0000
007FFF0000
00FFFF8000
00FF7F8000
00FF7F8000
00FF7F8000
01FE7F8000
01FE7FC000
01FE7FC000
01FE3FC000
01FE3FC000
03FE3FC000
03FC3FE000
03FC3FE000
03FC1FE000
03FC1FE000
07FC1FE000
07FC1FF000
07F81FF000
07F81FF000
07F80FF000
0FF80FF000
0FF80FF800
0FFFFFF800
0FFFFFF800
0FFFFFF800
1FFFFFF800
1FFFFFFC00
1FFFFFFC00
1FF007FC00
1FF007FC00
3FE003FC00
3FE003FE00
3FE003FE00
3FE003FE00
3FE003FE00
7FE003FE00
7FC001FF00
7FC001FF00
7FC001FF00
7FC001FF00
FFC001FF80
ENDCHAR
STARTCHAR 0101
ENCODING 257
SWIDTH 450 0
DWIDTH 30 0
BBX 25 49 3 -1
BITMAP
07FFF000
07FFF000
07FFF000
07FFF000
07FFF000
00000000
00000000
00000000
00000000
00080000
01FFC000
07FFF000
1FFFF800
1FFFFC00
3FFFFE00
7FFFFE00
7FC3FE00
7F81FF00
FF81FF00
FF81FF00
FF81FF00
FF81FF00
0001FF00
0001FF00
0003FF00
000FFF00
007FFF00
01FFFF00
03FFFF00
0FFDFF00
1FF1FF00
3FE1FF00
7FC1FF00
7FC1FF00
FF81FF00
FF81FF00
FF01FF00
FF01FF00
FF01FF00
FF81FF00
FF83FF00
FFFFFF00
FFFFFF00
FFFEFF00
7FFEFF00
3FFCFF80
1FF8FF80
0FF0FF80
01000000
ENDCHAR
STARTCHAR 0102
ENCODING 258
SWIDTH 525 0
DWIDTH 35 0
BBX 33 68 1 0
BITMAP
03E007C000
01E007C000
01F0078000
01F00F8000
01F81F8000
00FFFF0000
007FFE0000
003FFC0000
000FF00000
0000000000
0000000000
0000000000
0000000000
0000000000
001FFC0000
001FFC0000
001FFC0000
001FFC0000
003FFE0000
003FFE0000
003FFE0000
003FFE0000
003FFE0000
007FFF0000
007FFF0000
007FFF0000
007FFF0000
007FFF0000
00FFFF8000
00FF7F8000
00FF7F8000
00FF7F8000
01FE7F8000
01FE7FC000
01FE7FC000
01FE3FC000
01FE3FC000
03FE3FC000
03FC3FE000
03FC3FE000
03FC1FE000
03FC1FE000
07FC1FE000
07FC1FF000
07F81FF000
07F81FF000
07F80FF000
0FF80FF000
0FF80FF800
0FFFFFF800
0FFFFFF800
0FFFFFF800
1FFFFFF800
1FFFFFFC00
1FFFFFFC00
1FF007FC00
1FF007FC00
3FE003FC00
3FE003FE00
3FE003FE00
3FE003FE00
3FE003FE00
7FE003FE00
7FC001FF00
7FC001FF00
7FC001FF00
7FC001FF00
FFC001FF80
ENDCHAR
STARTCHAR 0103
ENCODING 259
SWIDTH 450 0
DWIDTH 30 0
BBX 25 54 3 -1
BITMAP
3E007C00
1E007C00
1F007800
1F00F800
1F81F800
0FFFF000
07FFE000
03FFC000
00FF0000
00000000
00000000
00000000
00000000
00000000
00080000
01FFC000
07FFF000
1FFFF800
1FFFFC00
3FFFFE00
7FFFFE00
7FC3FE00
7F81FF00
FF81FF00
FF81FF00
FF81FF00
FF81FF00
0001FF00
0001FF00
0003FF00
000FFF00
007FFF00
01FFFF00
03FFFF00
0FFDFF00
1FF1FF00
3FE1FF00
7FC1FF00
7FC1FF00
FF81FF00
FF81FF00
FF01FF00
FF01FF00
FF01FF00
FF81FF00
FF83FF00
FFFFFF00
FFFFFF00
FFFEFF00
7FFEFF00
3FFCFF80
1FF8FF80
0FF0FF80
01000000
ENDCHAR
STARTCHAR 0104
ENCODING 260
SWIDTH 525 0
DWIDTH 35 0
BBX 33 70 1 -16
BITMAP
001FFC0000
001FFC0000
001FFC0000
001FFC0000
003FFE0000
003FFE0000
003FFE0000
003FFE0000
003FFE0000
007FFF0000
007FFF0000
007FFF0000
007FFF0000
007FFF0000
00FFFF8000
00FF7F8000
00FF7F8000
00FF7F8000
01FE7F8000
01FE7FC000
01FE7FC000
01FE3FC000
01FE3FC000
03FE3FC000
03FC3FE000
03FC3FE000
03FC1FE000
03FC1FE000
07FC1FE000
07FC1FF000
07F81FF000
07F81FF000
07F80FF000
0FF80FF000
0FF80FF800
0FFFFFF800
0FFFFFF800
0FFFFFF800
1FFFFFF800
1FFFFFFC00
1FFFFFFC00
1FF007FC00
1FF007FC00
3FE003FC00
3FE003FE00
3FE003FE00
3FE003FE00
3FE003FE00
7FE003FE00
7FC001FF00
7FC001FF00
7FC001FF00
7FC001FF00
FFC001FF80
000000F800
000003F000
000007F000
000007E000
00000FE000
00000FC000
00001FC000
00001F8000
00001F8000
00001F8000
00001F8000
00001FE000
00001FFF00
00000FFF00
000007FE00
000001FE00
ENDCHAR
STARTCHAR 0105
ENCODING 261
SWIDTH 450 0
DWIDTH 30 0
BBX 25 55 3 -16
BITMAP
00080000
01FFC000
07FFF000
1FFFF800
1FFFFC00
3FFFFE00
7FFFFE00
7FC3FE00
7F81FF00
FF81FF00
FF81FF00
FF81FF00
FF81FF00
0001FF00
0001FF00
0003FF00
000FFF00
007FFF00
01FFFF00
03FFFF00
0FFDFF00
1FF1FF00
3FE1FF00
7FC1FF00
7FC1FF00
FF81FF00
FF81FF00
FF01FF00
FF01FF00
FF01FF00
FF81FF00
FF83FF00
FFFFFF00
FFFFFF00
FFFEFF00
7FFEFF00
3FFCFF80
1FF8FF80
0FF0FF80
01007C00
0001F800
0003F800
0003F000
0007F000
0007E000
000FE000
000FC000
000FC000
000FC000
000FC000
000FF000
000FFF80
0007FF80
0003FF00
0000FF00
ENDCHAR
STARTCHAR 0106
ENCODING 262
SWIDTH 540 0
DWIDTH 36 0
BBX 30 73 3 -1
BITMAP
00007FC0
0000FF80
0000FF00
0000FF00
0000FE00
0001FE00
0001FC00
0001F800
0003F800
0003F000
0003E000
0007E000
0007C000
00000000
00000000
00000000
00000000
00010000
007FFC00
01FFFF00
07FFFFC0
0FFFFFE0
1FFFFFF0
1FFFFFF0
3FFFFFF8
3FF01FF8
7FE00FFC
7FE00FFC
7FE007FC
7FC007FC
FFC007FC
FFC007FC
FFC007FC
FFC007FC
FFC007FC
FFC007FC
FFC007FC
FFC007FC
FFC00000
FFC00000
FFC00000
FFC00000
FFC00000
FFC00000
FFC00000
FFC00000
FFC00000
FFC00000
FFC00000
FFC00000
FFC00000
FFC00000
FFC007FC
FFC007FC
FFC007FC
FFC007FC
FFC007FC
FFC007FC
FFC007FC
FFC007FC
7FC007FC
7FE00FFC
7FE00FFC
7FE00FF8
3FF01FF8
3FFFFFF8
1FFFFFF0
1FFFFFF0
0FFFFFE0
07FFFFC0
01FFFF00
007FFC00
00010000
ENDCHAR
STARTCHAR 0107
ENCODING 263
SWIDTH 435 0
DWIDTH 29 0
BBX 24 57 3 -1
BITMAP
0007FC
000FF8
000FF0
000FF0
000FE0
001FE0
001FC0
001F80
003F80
003F00
003E00
007E00
007C00
000000
000000
000000
000000
000800
03FFC0
0FFFF0
1FFFF8
3FFFFC
3FFFFE
7FFFFE
7FC3FE
FF81FF
FF81FF
FF81FF
FF81FF
FF81FF
FF81FF
FF81FF
FF8000
FF8000
FF8000
FF8000
FF8000
FF8000
FF8000
FF8000
FF8000
FF81FF
FF81FF
FF81FF
FF81FF
FF81FF
FF81FF
FF81FF
7F81FF
7FC3FE
7FFFFE
3FFFFC
3FFFFC
1FFFF8
0FFFF0
03FFC0
000800
ENDCHAR
STARTCHAR 0108
ENCODING 264
SWIDTH 540 0
DWIDTH 36 0
BBX 30 72 3 -1
BITMAP
001FF000
001FF000
003FF800
003FFC00
007FFC00
007EFE00
00FEFE00
00FC7F00
01FC7F00
01F83F80
03F83F80
07F01FC0
00000000
00000000
00000000
00000000
00010000
007FFC00
01FFFF00
07FFFFC0
0FFFFFE0
1FFFFFF0
1FFFFFF0
3FFFFFF8
3FF01FF8
7FE00FFC
7FE00FFC
7FE007FC
7FC007FC
FFC007FC
FFC007FC
FFC007FC
FFC007FC
FFC007FC
FFC007FC
FFC007FC
FFC007FC
FFC00000
FFC00000
FFC00000
FFC00000
FFC00000
FFC00000
FFC00000
FFC00000
FFC00000
FFC00000
FFC00000
FFC00000
FFC00000
FFC00000
FFC007FC
FFC007FC
FFC007FC
FFC007FC
FFC007FC
FFC007FC
FFC007FC
FFC007FC
7FC007FC
7FE00FFC
7FE00FFC
7FE00FF8
3FF01FF8
3FFFFFF8
1FFFFFF0
1FFFFFF0
0FFFFFE0
07FFFFC0
01FFFF00
007FFC00
00010000
ENDCHAR
STARTCHAR 0109
ENCODING 265
SWIDTH 435 0
DWIDTH 29 0
BBX 24 56 3 -1
BITMAP
01FF00
01FF00
03FF80
03FFC0
07FFC0
07EFE0
0FEFE0
0FC7F0
1FC7F0
1F83F8
3F83F8
7F01FC
000000
000000
000000
000000
000800
03FFC0
0FFFF0
1FFFF8
3FFFFC
3FFFFE
7FFFFE
7FC3FE
FF81FF
FF81FF
FF81FF
FF81FF
FF81FF
FF81FF
FF81FF
FF8000
FF8000
FF8000
FF8000
FF8000
FF8000
FF8000
FF8000
FF8000
FF81FF
FF81FF
FF81FF
FF81FF
FF81FF
FF81FF
FF81FF
7F81FF
7FC3FE
7FFFFE
3FFFFC
3FFFFC
1FFFF8
0FFFF0
03FFC0
000800
ENDCHAR
STARTCHAR 010A
ENCODING 266
SWIDTH 540 0
DWIDTH 36 0
BBX 30 69 3 -1
BITMAP
001FF000
001FF000
001FF000
001FF000
001FF000
001FF000
001FF000
001FF000
001FF000
00000000
00000000
00000000
00000000
00010000
007FFC00
01FFFF00
07FFFFC0
0FFFFFE0
1FFFFFF0
1FFFFFF0
3FFFFFF8
3FF01FF8
7FE00FFC
7FE00FFC
7FE007FC
7FC007FC
FFC007FC
FFC007FC
FFC007FC
FFC007FC
FFC007FC
FFC007FC
FFC007FC
FFC007FC
FFC00000
FFC00000
FFC00000
FFC00000
FFC00000
FFC00000
FFC00000
FFC00000
FFC00000
FFC00000
FFC00000
FFC00000
FFC00000
FFC00000
FFC007FC
FFC007FC
FFC007FC
FFC007FC
FFC007FC
FFC007FC
FFC007FC
FFC007FC
7FC007FC
7FE00FFC
7FE00FFC
7FE00FF8
3FF01FF8
3FFFFFF8
1FFFFFF0
1FFFFFF0
0FFFFFE0
07FFFFC0
01FFFF00
007FFC00
00010000
ENDCHAR
STARTCHAR 010B
ENCODING 267
SWIDTH 435 0
DWIDTH 29 0
BBX 24 53 3 -1
BITMAP
01FF00
01FF00
01FF00
01FF00
01FF00
01FF00
01FF00
01FF00
01FF00
000000
000000
000000
000000
000800
03FFC0
0FFFF0
1FFFF8
3FFFFC
3FFFFE
7FFFFE
7FC3FE
FF81FF
FF81FF
FF81FF
FF81FF
FF81FF
FF81FF
FF81FF
FF8000
FF8000
FF8000
FF8000
FF8000
FF8000
FF8000
FF8000
FF8000
FF81FF
FF81FF
FF81FF
FF81FF
FF81FF
FF81FF
FF81FF
7F81FF
7FC3FE
7FFFFE
3FFFFC
3FFFFC
1FFFF8
0FFFF0
03FFC0
000800
ENDCHAR
STARTCHAR 010C
ENCODING 268
SWIDTH 540 0
DWIDTH 36 0
BBX 30 72 3 -1
BITMAP
07F01FC0
03F81F80
03F83F80
01FC3F00
01FC7F00
00FE7E00
00FEFE00
007FFC00
007FFC00
003FF800
003FF800
001FF000
00000000
00000000
00000000
00000000
00010000
007FFC00
01FFFF00
07FFFFC0
0FFFFFE0
1FFFFFF0
1FFFFFF0
3FFFFFF8
3FF01FF8
7FE00FFC
7FE00FFC
7FE007FC
7FC007FC
FFC007FC
FFC007FC
FFC007FC
FFC007FC
FFC007FC
FFC007FC
FFC007FC
FFC007FC
FFC00000
FFC00000
FFC00000
FFC00000
FFC00000
FFC00000
FFC00000
FFC00000
FFC00000
FFC00000
FFC00000
FFC00000
FFC00000
FFC00000
FFC007FC
FFC007FC
FFC007FC
FFC007FC
FFC007FC
FFC007FC
FFC007FC
FFC007FC
7FC007FC
7FE00FFC
7FE00FFC
7FE00FF8
3FF01FF8
3FFFFFF8
1FFFFFF0
1FFFFFF0
0FFFFFE0
07FFFFC0
01FFFF00
007FFC00
00010000
ENDCHAR
STARTCHAR 010D
ENCODING 269
SWIDTH 435 0
DWIDTH 29 0
BBX 24 56 3 -1
BITMAP
7F01FC
3F81F8
3F83F8
1FC3F0
1FC7F0
0FE7E0
0FEFE0
07FFC0
07FFC0
03FF80
03FF80
01FF00
000000
000000
000000
000000
000800
03FFC0
0FFFF0
1FFFF8
3FFFFC
3FFFFE
7FFFFE
7FC3FE
FF81FF
FF81FF
FF81FF
FF81FF
FF81FF
FF81FF
FF81FF
FF8000
FF8000
FF8000
FF8000
FF8000
FF8000
FF8000
FF8000
FF8000
FF81FF
FF81FF
FF81FF
FF81FF
FF81FF
FF81FF
FF81FF
7F81FF
7FC3FE
7FFFFE
3FFFFC
3FFFFC
1FFFF8
0FFFF0
03FFC0
000800
ENDCHAR
STARTCHAR 010E
ENCODING 270
SWIDTH 555 0
DWIDTH 37 0
BBX 30 71 4 0
BITMAP
0FE03F80
07F03F00
07F07F00
03F87E00
03F8FE00
01FCFC00
01FDFC00
00FFF800
00FFF800
007FF000
007FF000
003FE000
00000000
00000000
00000000
00000000
00000000
FFFFE000
FFFFFC00
FFFFFF00
FFFFFFC0
FFFFFFE0
FFFFFFE0
FFFFFFF0
FFC07FF0
FFC03FF8
FFC01FF8
FFC01FF8
FFC00FF8
FFC00FFC
FFC00FFC
FFC00FFC
FFC00FFC
FFC00FFC
FFC00FFC
FFC00FFC
FFC00FFC
FFC00FFC
FFC00FFC
FFC00FFC
FFC00FFC
FFC00FFC
FFC00FFC
FFC00FFC
FFC00FFC
FFC00FFC
FFC00FFC
FFC00FFC
FFC00FFC
FFC00FFC
FFC00FFC
FFC00FFC
FFC00FFC
FFC00FFC
FFC00FFC
FFC00FFC
FFC00FFC
FFC00FFC
FFC00FFC
FFC00FF8
FFC01FF8
FFC01FF8
FFC03FF8
FFC03FF0
FFC3FFF0
FFFFFFE0
FFFFFFC0
FFFFFF80
FFFFFF00
FFFFFC00
FFFFE000
ENDCHAR
STARTCHAR 010F
ENCODING 271
SWIDTH 570 0
DWIDTH 38 0
BBX 38 55 3 -1
BITMAP
0000FF81FC
0000FF81FC
0000FF81FC
0000FF81FC
0000FF81FC
0000FF81F8
0000FF81F8
0000FF81F8
0000FF81F8
0000FF81F8
0000FF81F0
0000FF81F0
0000FF81F0
0000FF81F0
0000FF81F0
0040FF81F0
07F8FF81E0
0FFEFF81E0
1FFFFF8000
3FFFFF8000
7FFFFF8000
7FFFFF8000
7FE1FF8000
FFC0FF8000
FF80FF8000
FF80FF8000
FF80FF8000
FF80FF8000
FF80FF8000
FF80FF8000
FF80FF8000
FF80FF8000
FF80FF8000
FF80FF8000
FF80FF8000
FF80FF8000
FF80FF8000
FF80FF8000
FF80FF8000
FF80FF8000
FF80FF8000
FF80FF8000
FF80FF8000
FF80FF8000
FF80FF8000
FF80FF8000
FFC0FF8000
7FE1FF8000
7FFFFF8000
7FFFFF8000
3FFFFF8000
3FFFFF8000
1FFEFF8000
07F8FF8000
0040000000
ENDCHAR
STARTCHAR 0110
ENCODING 272
SWIDTH 555 0
DWIDTH 37 0
BBX 33 54 1 0
BITMAP
1FFFFC0000
1FFFFFC000
1FFFFFE000
1FFFFFF800
1FFFFFFC00
1FFFFFFE00
1FFFFFFE00
1FF80FFF00
1FF807FF00
1FF803FF00
1FF801FF80
1FF801FF80
1FF801FF80
1FF801FF80
1FF801FF80
1FF801FF80
1FF801FF80
1FF801FF80
1FF801FF80
1FF801FF80
1FF801FF80
1FF801FF80
1FF801FF80
1FF801FF80
FFFF81FF80
FFFF81FF80
FFFF81FF80
FFFF81FF80
FFFF81FF80
1FF801FF80
1FF801FF80
1FF801FF80
1FF801FF80
1FF801FF80
1FF801FF80
1FF801FF80
1FF801FF80
1FF801FF80
1FF801FF80
1FF801FF80
1FF801FF80
1FF801FF80
1FF801FF80
1FF801FF00
1FF803FF00
1FF803FF00
1FF807FE00
1FF87FFE00
1FFFFFFC00
1FFFFFFC00
1FFFFFF800
1FFFFFE000
1FFFFF8000
1FFFFC0000
ENDCHAR
STARTCHAR 0111
ENCODING 273
SWIDTH 480 0
DWIDTH 32 0
BBX 29 55 3 -1
BITMAP
0000FF80
0000FF80
0000FF80
0000FF80
0000FF80
00FFFFF8
00FFFFF8
00FFFFF8
00FFFFF8
0000FF80
0000FF80
0000FF80
0000FF80
0000FF80
0000FF80
0040FF80
07F8FF80
1FFEFF80
1FFFFF80
3FFFFF80
7FFFFF80
7FFFFF80
7FC1FF80
FFC0FF80
FF80FF80
FF80FF80
FF80FF80
FF80FF80
FF80FF80
FF80FF80
FF80FF80
FF80FF80
FF80FF80
FF80FF80
FF80FF80
FF80FF80
FF80FF80
FF80FF80
FF80FF80
FF80FF80
FF80FF80
FF80FF80
FF80FF80
FF80FF80
FF80FF80
FF80FF80
FFC0FF80
FFC1FF80
7FFFFF80
7FFFFF80
3FFFFF80
3FFFFF80
1FFEFF80
07F8FF80
00400000
ENDCHAR
STARTCHAR 0112
ENCODING 274
SWIDTH 435 0
DWIDTH 29 0
BBX 23 63 4 0
BITMAP
0FFFE0
0FFFE0
0FFFE0
0FFFE0
0FFFE0
000000
000000
000000
000000
FFFFFE
FFFFFE
FFFFFE
FFFFFE
FFFFFE
FFFFFE
FFC000
FFC000
FFC000
FFC000
FFC000
FFC000
FFC000
FFC000
FFC000
FFC000
FFC000
FFC000
FFC000
FFC000
FFC000
FFC000
FFC000
FFFFF0
FFFFF0
FFFFF0
FFFFF0
FFFFF0
FFFFF0
FFC000
FFC000
FFC000
FFC000
FFC000
FFC000
FFC000
FFC000
FFC000
FFC000
FFC000
FFC000
FFC000
FFC000
FFC000
FFC000
FFC000
FFC000
FFC000
FFFFFE
FFFFFE
FFFFFE
FFFFFE
FFFFFE
FFFFFE
ENDCHAR
STARTCHAR 0113
ENCODING 275
SWIDTH 450 0
DWIDTH 30 0
BBX 24 49 3 -1
BITMAP
0FFFE0
0FFFE0
0FFFE0
0FFFE0
0FFFE0
000000
000000
000000
000000
000800
03FFC0
0FFFF0
1FFFF8
3FFFFC
3FFFFC
7FFFFE
7FC3FE
7F81FF
FF81FF
FF81FF
FF81FF
FF81FF
FF81FF
FF81FF
FFFFFF
FFFFFF
FFFFFF
FFFFFF
FFFFFF
FF8000
FF8000
FF8000
FF8000
FF8000
FF8000
FF81FF
FF81FF
FF81FF
FF81FF
FF81FF
FFC1FF
7FC3FE
7FFFFE
3FFFFE
3FFFFC
1FFFF8
0FFFF0
03FFC0
000800
ENDCHAR
STARTCHAR 0114
ENCODING 276
SWIDTH 435 0
DWIDTH 29 0
BBX 23 68 4 0
BITMAP
7C00F8
3C00F8
3E00F0
3E01F0
3F03F0
1FFFE0
0FFFC0
07FF80
01FE00
000000
000000
000000
000000
000000
FFFFFE
FFFFFE
FFFFFE
FFFFFE
FFFFFE
FFFFFE
FFC000
FFC000
FFC000
FFC000
FFC000
FFC000
FFC000
FFC000
FFC000
FFC000
FFC000
FFC000
FFC000
FFC000
FFC000
FFC000
FFC000
FFFFF0
FFFFF0
FFFFF0
FFFFF0
FFFFF0
FFFFF0
FFC000
FFC000
FFC000
FFC000
FFC000
FFC000
FFC000
FFC000
FFC000
FFC000
FFC000
FFC000
FFC000
FFC000
FFC000
FFC000
FFC000
FFC000
FFC000
FFFFFE
FFFFFE
FFFFFE
FFFFFE
FFFFFE
FFFFFE
ENDCHAR
STARTCHAR 0115
ENCODING 277
SWIDTH 450 0
DWIDTH 30 0
BBX 24 54 3 -1
BITMAP
3E007C
1E007C
1F0078
1F00F8
1F81F8
0FFFF0
07FFE0
03FFC0
00FF00
000000
000000
000000
000000
000000
000800
03FFC0
0FFFF0
1FFFF8
3FFFFC
3FFFFC
7FFFFE
7FC3FE
7F81FF
FF81FF
FF81FF
FF81FF
FF81FF
FF81FF
FF81FF
FFFFFF
FFFFFF
FFFFFF
FFFFFF
FFFFFF
FF8000
FF8000
FF8000
FF8000
FF8000
FF8000
FF81FF
FF81FF
FF81FF
FF81FF
FF81FF
FFC1FF
7FC3FE
7FFFFE
3FFFFE
3FFFFC
1FFFF8
0FFFF0
03FFC0
000800
ENDCHAR
STARTCHAR 0116
ENCODING 278
SWIDTH 435 0
DWIDTH 29 0
BBX 23 68 4 0
BITMAP
01FF00
01FF00
01FF00
01FF00
01FF00
01FF00
01FF00
01FF00
01FF00
000000
000000
000000
000000
000000
FFFFFE
FFFFFE
FFFFFE
FFFFFE
FFFFFE
FFFFFE
FFC000
FFC000
FFC000
FFC000
FFC000
FFC000
FFC000
FFC000
FFC000
FFC000
FFC000
FFC000
FFC000
FFC000
FFC000
FFC000
FFC000
FFFFF0
FFFFF0
FFFFF0
FFFFF0
FFFFF0
FFFFF0
FFC000
FFC000
FFC000
FFC000
FFC000
FFC000
FFC000
FFC000
FFC000
FFC000
FFC000
FFC000
FFC000
FFC000
FFC000
FFC000
FFC000
FFC000
FFC000
FFFFFE
FFFFFE
FFFFFE
FFFFFE
FFFFFE
FFFFFE
ENDCHAR
STARTCHAR 0117
ENCODING 279
SWIDTH 450 0
DWIDTH 30 0
BBX 24 53 3 -1
BITMAP
00FF80
00FF80
00FF80
00FF80
00FF80
00FF80
00FF80
00FF80
00FF80
000000
000000
000000
000000
000800
03FFC0
0FFFF0
1FFFF8
3FFFFC
3FFFFC
7FFFFE
7FC3FE
7F81FF
FF81FF
FF81FF
FF81FF
FF81FF
FF81FF
FF81FF
FFFFFF
FFFFFF
FFFFFF
FFFFFF
FFFFFF
FF8000
FF8000
FF8000
FF8000
FF8000
FF8000
FF81FF
FF81FF
FF81FF
FF81FF
FF81FF
FFC1FF
7FC3FE
7FFFFE
3FFFFE
3FFFFC
1FFFF8
0FFFF0
03FFC0
000800
ENDCHAR
STARTCHAR 0118
ENCODING 280
SWIDTH 435 0
DWIDTH 29 0
BBX 23 70 4 -16
BITMAP
FFFFFE
FFFFFE
FFFFFE
FFFFFE
FFFFFE
FFFFFE
FFC000
FFC000
FFC000
FFC000
FFC000
FFC000
FFC000
FFC000
FFC000
FFC000
FFC000
FFC000
FFC000
FFC000
FFC000
FFC000
FFC000
FFFFF0
FFFFF0
FFFFF0
FFFFF0
FFFFF0
FFFFF0
FFC000
FFC000
FFC000
FFC000
FFC000
FFC000
FFC000
FFC000
FFC000
FFC000
FFC000
FFC000
FFC000
FFC000
FFC000
FFC000
FFC000
FFC000
FFC000
FFFFFE
FFFFFE
FFFFFE
FFFFFE
FFFFFE
FFFFFE
003E00
00FC00
01FC00
01F800
03F800
03F000
07F000
07E000
07E000
07E000
07E000
07F800
07FFC0
03FFC0
01FF80
007F80
ENDCHAR
STARTCHAR 0119
ENCODING 281
SWIDTH 450 0
DWIDTH 30 0
BBX 24 55 3 -16
BITMAP
000800
03FFC0
0FFFF0
1FFFF8
3FFFFC
3FFFFC
7FFFFE
7FC3FE
7F81FF
FF81FF
FF81FF
FF81FF
FF81FF
FF81FF
FF81FF
FFFFFF
FFFFFF
FFFFFF
FFFFFF
FFFFFF
FF8000
FF8000
FF8000
FF8000
FF8000
FF8000
FF81FF
FF81FF
FF81FF
FF81FF
FF81FF
FFC1FF
7FC3FE
7FFFFE
3FFFFE
3FFFFC
1FFFF8
0FFFF0
03FFC0
003E00
00FC00
01FC00
01F800
03F800
03F000
07F000
07E000
07E000
07E000
07E000
07F800
07FFC0
03FFC0
01FF80
007F80
ENDCHAR
STARTCHAR 011A
ENCODING 282
SWIDTH 435 0
DWIDTH 29 0
BBX 23 71 4 0
BITMAP
7F01FC
3F81F8
3F83F8
1FC3F0
1FC7F0
0FE7E0
0FEFE0
07FFC0
07FFC0
03FF80
03FF80
01FF00
000000
000000
000000
000000
000000
FFFFFE
FFFFFE
FFFFFE
FFFFFE
FFFFFE
FFFFFE
FFC000
FFC000
FFC000
FFC000
FFC000
FFC000
FFC000
FFC000
FFC000
FFC000
FFC000
FFC000
FFC000
FFC000
FFC000
FFC000
FFC000
FFFFF0
FFFFF0
FFFFF0
FFFFF0
FFFFF0
FFFFF0
FFC000
FFC000
FFC000
FFC000
FFC000
FFC000
FFC000
FFC000
FFC000
FFC000
FFC000
FFC000
FFC000
FFC000
FFC000
FFC000
FFC000
FFC000
FFC000
FFFFFE
FFFFFE
FFFFFE
FFFFFE
FFFFFE
FFFFFE
ENDCHAR
STARTCHAR 011B
ENCODING 283
SWIDTH 450 0
DWIDTH 30 0
BBX 24 56 3 -1
BITMAP
7F01FC
3F81F8
3F83F8
1FC3F0
1FC7F0
0FE7E0
0FEFE0
07FFC0
07FFC0
03FF80
03FF80
01FF00
000000
000000
000000
000000
000800
03FFC0
0FFFF0
1FFFF8
3FFFFC
3FFFFC
7FFFFE
7FC3FE
7F81FF
FF81FF
FF81FF
FF81FF
FF81FF
FF81FF
FF81FF
FFFFFF
FFFFFF
FFFFFF
FFFFFF
FFFFFF
FF8000
FF8000
FF8000
FF8000
FF8000
FF8000
FF81FF
FF81FF
FF81FF
FF81FF
FF81FF
FFC1FF
7FC3FE
7FFFFE
3FFFFE
3FFFFC
1FFFF8
0FFFF0
03FFC0
000800
ENDCHAR
STARTCHAR 011C
ENCODING 284
SWIDTH 555 0
DWIDTH 37 0
BBX 31 72 3 -1
BITMAP
001FF000
001FF000
003FF800
003FFC00
007FFC00
007EFE00
00FEFE00
00FC7F00
01FC7F00
01F83F80
03F83F80
07F01FC0
00000000
00000000
00000000
00000000
00010000
007FFE00
01FFFF80
07FFFFC0
0FFFFFE0
1FFFFFF0
1FFFFFF8
3FFFFFF8
3FF01FFC
7FE00FFC
7FE007FC
7FE007FC
7FC007FC
7FC007FE
FFC007FE
FFC007FE
FFC007FE
FFC007FE
FFC007FE
FFC00000
FFC00000
FFC00000
FFC00000
FFC00000
FFC00000
FFC00000
FFC00000
FFC00000
FFC0FFFE
FFC0FFFE
FFC0FFFE
FFC0FFFE
FFC0FFFE
FFC0FFFE
FFC003FE
FFC003FE
FFC003FE
FFC003FE
FFC003FE
FFC003FE
FFC003FE
FFC003FE
7FC003FE
7FE003FE
7FE007FE
7FE007FE
7FF00FFE
3FF01FFE
3FFFFFFE
1FFFFFFE
1FFFFEFE
0FFFFEFE
07FFFCFE
03FFF8FE
00FFF0FE
00020000
ENDCHAR
STARTCHAR 011D
ENCODING 285
SWIDTH 465 0
DWIDTH 31 0
BBX 31 68 1 -12
BITMAP
001FF000
001FF000
003FF800
003FFC00
007FFC00
007EFE00
00FEFE00
00FC7F00
01FC7F00
01F83F80
03F83F80
07F01FC0
00000000
00000000
00000000
00000000
00000000
00040018
00FFE03C
01FFF0FC
07FFF9FC
07FFFFFE
0FFFFFFC
1FFFFFE0
1FF0FF80
1FE07F80
3FE07F80
3FE07F80
3FE03F80
3FC03FC0
3FC03FC0
3FC03FC0
3FC03FC0
3FC03FC0
3FE03FC0
3FE07FC0
3FE07F80
1FE07F80
1FF9FF80
0FFFFF80
07FFFF00
03FFFE00
03FFFC00
07FFF800
0F9FC000
1F800000
3F800000
3F800000
3FFC0000
3FFFFC00
3FFFFF00
1FFFFFC0
0FFFFFE0
03FFFFE0
07FFFFF0
1FC03FF0
3F8007F0
3F8007F0
7F8007F0
7F8007F0
7F8007F0
FFFC3FF0
7FFFFFF0
7FFFFFE0
7FFFFFE0
3FFFFFC0
0FFFFF00
01FFF800
ENDCHAR
STARTCHAR 011E
ENCODING 286
SWIDTH 555 0
DWIDTH 37 0
BBX 31 69 3 -1
BITMAP
07C00F80
03C00F80
03E00F00
03E01F00
03F03F00
01FFFE00
00FFFC00
007FF800
001FE000
00000000
00000000
00000000
00000000
00010000
007FFE00
01FFFF80
07FFFFC0
0FFFFFE0
1FFFFFF0
1FFFFFF8
3FFFFFF8
3FF01FFC
7FE00FFC
7FE007FC
7FE007FC
7FC007FC
7FC007FE
FFC007FE
FFC007FE
FFC007FE
FFC007FE
FFC007FE
FFC00000
FFC00000
FFC00000
FFC00000
FFC00000
FFC00000
FFC00000
FFC00000
FFC00000
FFC0FFFE
FFC0FFFE
FFC0FFFE
FFC0FFFE
FFC0FFFE
FFC0FFFE
FFC003FE
FFC003FE
FFC003FE
FFC003FE
FFC003FE
FFC003FE
FFC003FE
FFC003FE
7FC003FE
7FE003FE
7FE007FE
7FE007FE
7FF00FFE
3FF01FFE
3FFFFFFE
1FFFFFFE
1FFFFEFE
0FFFFEFE
07FFFCFE
03FFF8FE
00FFF0FE
00020000
ENDCHAR
STARTCHAR 011F
ENCODING 287
SWIDTH 465 0
DWIDTH 31 0
BBX 31 65 1 -12
BITMAP
03E007C0
01E007C0
01F00780
01F00F80
01F81F80
00FFFF00
007FFE00
003FFC00
000FF000
00000000
00000000
00000000
00000000
00000000
00040018
00FFE03C
01FFF0FC
07FFF9FC
07FFFFFE
0FFFFFFC
1FFFFFE0
1FF0FF80
1FE07F80
3FE07F80
3FE07F80
3FE03F80
3FC03FC0
3FC03FC0
3FC03FC0
3FC03FC0
3FC03FC0
3FE03FC0
3FE07FC0
3FE07F80
1FE07F80
1FF9FF80
0FFFFF80
07FFFF00
03FFFE00
03FFFC00
07FFF800
0F9FC000
1F800000
3F800000
3F800000
3FFC0000
3FFFFC00
3FFFFF00
1FFFFFC0
0FFFFFE0
03FFFFE0
07FFFFF0
1FC03FF0
3F8007F0
3F8007F0
7F8007F0
7F8007F0
7F8007F0
FFFC3FF0
7FFFFFF0
7FFFFFE0
7FFFFFE0
3FFFFFC0
0FFFFF00
01FFF800
ENDCHAR
STARTCHAR 0120
ENCODING 288
SWIDTH 555 0
DWIDTH 37 0
BBX 31 69 3 -1
BITMAP
001FF000
001FF000
001FF000
001FF000
001FF000
001FF000
001FF000
001FF000
001FF000
00000000
00000000
00000000
00000000
00010000
007FFE00
01FFFF80
07FFFFC0
0FFFFFE0
1FFFFFF0
1FFFFFF8
3FFFFFF8
3FF01FFC
7FE00FFC
7FE007FC
7FE007FC
7FC007FC
7FC007FE
FFC007FE
FFC007FE
FFC007FE
FFC007FE
FFC007FE
FFC00000
FFC00000
FFC00000
FFC00000
FFC00000
FFC00000
FFC00000
FFC00000
FFC00000
FFC0FFFE
FFC0FFFE
FFC0FFFE
FFC0FFFE
FFC0FFFE
FFC0FFFE
FFC003FE
FFC003FE
FFC003FE
FFC003FE
FFC003FE
FFC003FE
FFC003FE
FFC003FE
7FC003FE
7FE003FE
7FE007FE
7FE007FE
7FF00FFE
3FF01FFE
3FFFFFFE
1FFFFFFE
1FFFFEFE
0FFFFEFE
07FFFCFE
03FFF8FE
00FFF0FE
00020000
ENDCHAR
STARTCHAR 0121
ENCODING 289
SWIDTH 465 0
DWIDTH 31 0
BBX 31 65 1 -12
BITMAP
001FF000
001FF000
001FF000
001FF000
001FF000
001FF000
001FF000
001FF000
001FF000
00000000
00000000
00000000
00000000
00000000
00040018
00FFE03C
01FFF0FC
07FFF9FC
07FFFFFE
0FFFFFFC
1FFFFFE0
1FF0FF80
1FE07F80
3FE07F80
3FE07F80
3FE03F80
3FC03FC0
3FC03FC0
3FC03FC0
3FC03FC0
3FC03FC0
3FE03FC0
3FE07FC0
3FE07F80
1FE07F80
1FF9FF80
0FFFFF80
07FFFF00
03FFFE00
03FFFC00
07FFF800
0F9FC000
1F800000
3F800000
3F800000
3FFC0000
3FFFFC00
3FFFFF00
1FFFFFC0
0FFFFFE0
03FFFFE0
07FFFFF0
1FC03FF0
3F8007F0
3F8007F0
7F8007F0
7F8007F0
7F8007F0
FFFC3FF0
7FFFFFF0
7FFFFFE0
7FFFFFE0
3FFFFFC0
0FFFFF00
01FFF800
ENDCHAR
STARTCHAR 0122
ENCODING 290
SWIDTH 555 0
DWIDTH 37 0
BBX 31 77 3 -22
BITMAP
00010000
007FFE00
01FFFF80
07FFFFC0
0FFFFFE0
1FFFFFF0
1FFFFFF8
3FFFFFF8
3FF01FFC
7FE00FFC
7FE007FC
7FE007FC
7FC007FC
7FC007FE
FFC007FE
FFC007FE
FFC007FE
FFC007FE
FFC007FE
FFC00000
FFC00000
FFC00000
FFC00000
FFC00000
FFC00000
FFC00000
FFC00000
FFC00000
FFC0FFFE
FFC0FFFE
FFC0FFFE
FFC0FFFE
FFC0FFFE
FFC0FFFE
FFC003FE
FFC003FE
FFC003FE
FFC003FE
FFC003FE
FFC003FE
FFC003FE
FFC003FE
7FC003FE
7FE003FE
7FE007FE
7FE007FE
7FF00FFE
3FF01FFE
3FFFFFFE
1FFFFFFE
1FFFFEFE
0FFFFEFE
07FFFCFE
03FFF8FE
00FFF0FE
00020000
00000000
00000000
00000000
00000000
001FF000
001FF000
001FF000
001FF000
001FF000
001FF000
001FF000
001FF000
001FF000
0000F000
0000F000
0001F000
0003E000
000FE000
000FE000
0007C000
00070000
ENDCHAR
STARTCHAR 0123
ENCODING 291
SWIDTH 435 0
DWIDTH 29 0
BBX 32 78 1 -12
BITMAP
00001000
00007000
0001F000
0003E000
0003C000
00078000
00078000
00070000
00070000
000FF800
000FF800
000FF800
000FF800
000FF800
000FF800
000FF800
000FF800
000FF800
00000000
00000000
00000000
00000000
00000000
00000000
00000000
00000000
00000002
0002000E
007FF03F
01FFFC7F
03FFFEFF
07FFFFFC
0FFFFFF0
1FF03FE0
1FE03FC0
3FE01FE0
3FE01FE0
3FE01FF0
3FC01FF0
3FC01FF0
7FC00FF0
7FC01FF0
3FC01FF0
3FC01FF0
3FE01FF0
3FE01FE0
3FE01FE0
1FF03FE0
1FF87FC0
0FFFFFC0
07FFFF80
07FFFF00
0FFFFC00
1F9FF000
1F000000
3E000000
7E000000
7E000000
7FE00000
7FFF0000
3FFFFC00
1FFFFF80
03FFFFC0
07FFFFF0
0FE3FFF0
1FC01FF8
3F8007F8
7F8003F8
7F0003F8
FF0003F8
FF8003F8
FF8003F8
FFE00FF8
7FFFFFF0
3FFFFFE0
1FFFFFC0
07FFFF00
007FF800
ENDCHAR
STARTCHAR 0124
ENCODING 292
SWIDTH 585 0
DWIDTH 39 0
BBX 31 71 4 0
BITMAP
001FF000
001FF000
003FF800
003FFC00
007FFC00
007EFE00
00FEFE00
00FC7F00
01FC7F00
01F83F80
03F83F80
07F01FC0
00000000
00000000
00000000
00000000
00000000
FFC007FE
FFC007FE
FFC007FE
FFC007FE
FFC007FE
FFC007FE
FFC007FE
FFC007FE
FFC007FE
FFC007FE
FFC007FE
FFC007FE
FFC007FE
FFC007FE
FFC007FE
FFC007FE
FFC007FE
FFC007FE
FFC007FE
FFC007FE
FFC007FE
FFC007FE
FFC007FE
FFFFFFFE
FFFFFFFE
FFFFFFFE
FFFFFFFE
FFFFFFFE
FFFFFFFE
FFFFFFFE
FFC007FE
FFC007FE
FFC007FE
FFC007FE
FFC007FE
FFC007FE
FFC007FE
FFC007FE
FFC007FE
FFC007FE
FFC007FE
FFC007FE
FFC007FE
FFC007FE
FFC007FE
FFC007FE
FFC007FE
FFC007FE
FFC007FE
FFC007FE
FFC007FE
FFC007FE
FFC007FE
FFC007FE
ENDCHAR
STARTCHAR 0125
ENCODING 293
SWIDTH 480 0
DWIDTH 32 0
BBX 25 70 4 0
BITMAP
00FF8000
00FF8000
01FFC000
01FFE000
03FFE000
03F7F000
07F7F000
07E3F800
0FE3F800
0FC1FC00
1FC1FC00
3F80FE00
00000000
00000000
00000000
00000000
FF800000
FF800000
FF800000
FF800000
FF800000
FF800000
FF800000
FF800000
FF800000
FF800000
FF800000
FF800000
FF800000
FF800000
FF800000
FF802000
FF83FC00
FF8FFE00
FFBFFF00
FFFFFF00
FFFFFF00
FFFFFF80
FFE1FF80
FFC1FF80
FF80FF80
FF80FF80
FF80FF80
FF80FF80
FF80FF80
FF80FF80
FF80FF80
FF80FF80
FF80FF80
FF80FF80
FF80FF80
FF80FF80
FF80FF80
FF80FF80
FF80FF80
FF80FF80
FF80FF80
FF80FF80
FF80FF80
FF80FF80
FF80FF80
FF80FF80
FF80FF80
FF80FF80
FF80FF80
FF80FF80
FF80FF80
FF80FF80
FF80FF80
FF80FF80
ENDCHAR
STARTCHAR 0126
ENCODING 294
SWIDTH 555 0
DWIDTH 37 0
BBX 37 54 0 0
BITMAP
1FF800FFC0
1FF800FFC0
1FF800FFC0
1FF800FFC0
1FF800FFC0
1FF800FFC0
1FF800FFC0
1FF800FFC0
1FF800FFC0
FFFFFFFFF8
FFFFFFFFF8
FFFFFFFFF8
FFFFFFFFF8
1FF800FFC0
1FF800FFC0
1FF800FFC0
1FF800FFC0
1FF800FFC0
1FF800FFC0
1FF800FFC0
1FF800FFC0
1FF800FFC0
1FF800FFC0
1FFFFFFFC0
1FFFFFFFC0
1FFFFFFFC0
1FFFFFFFC0
1FFFFFFFC0
1FFFFFFFC0
1FFFFFFFC0
1FF800FFC0
1FF800FFC0
1FF800FFC0
1FF800FFC0
1FF800FFC0
1FF800FFC0
1FF800FFC0
1FF800FFC0
1FF800FFC0
1FF800FFC0
1FF800FFC0
1FF800FFC0
1FF800FFC0
1FF800FFC0
1FF800FFC0
1FF800FFC0
1FF800FFC0
1FF800FFC0
1FF800FFC0
1FF800FFC0
1FF800FFC0
1FF800FFC0
1FF800FFC0
1FF800FFC0
ENDCHAR
STARTCHAR 0127
ENCODING 295
SWIDTH 480 0
DWIDTH 32 0
BBX 29 54 0 0
BITMAP
0FF80000
0FF80000
0FF80000
0FF80000
FFFFF800
FFFFF800
FFFFF800
FFFFF800
FFFFF800
0FF80000
0FF80000
0FF80000
0FF80000
0FF80000
0FF80000
0FF80200
0FF83FC0
0FF8FFE0
0FFBFFF0
0FFFFFF0
0FFFFFF0
0FFFFFF8
0FFE1FF8
0FFC1FF8
0FF80FF8
0FF80FF8
0FF80FF8
0FF80FF8
0FF80FF8
0FF80FF8
0FF80FF8
0FF80FF8
0FF80FF8
0FF80FF8
0FF80FF8
0FF80FF8
0FF80FF8
0FF80FF8
0FF80FF8
0FF80FF8
0FF80FF8
0FF80FF8
0FF80FF8
0FF80FF8
0FF80FF8
0FF80FF8
0FF80FF8
0FF80FF8
0FF80FF8
0FF80FF8
0FF80FF8
0FF80FF8
0FF80FF8
0FF80FF8
ENDCHAR
STARTCHAR 0128
ENCODING 296
SWIDTH 270 0
DWIDTH 18 0
BBX 21 68 -1 0
BITMAP
040000
3FC0F8
7FF0F8
7FFCF8
7FFFF8
FFFFF0
FFFFF0
F83FE0
F807C0
000000
000000
000000
000000
000000
07FE00
07FE00
07FE00
07FE00
07FE00
07FE00
07FE00
07FE00
07FE00
07FE00
07FE00
07FE00
07FE00
07FE00
07FE00
07FE00
07FE00
07FE00
07FE00
07FE00
07FE00
07FE00
07FE00
07FE00
07FE00
07FE00
07FE00
07FE00
07FE00
07FE00
07FE00
07FE00
07FE00
07FE00
07FE00
07FE00
07FE00
07FE00
07FE00
07FE00
07FE00
07FE00
07FE00
07FE00
07FE00
07FE00
07FE00
07FE00
07FE00
07FE00
07FE00
07FE00
07FE00
07FE00
ENDCHAR
STARTCHAR 0129
ENCODING 297
SWIDTH 255 0
DWIDTH 17 0
BBX 21 53 -2 0
BITMAP
040000
3FC0F8
7FF0F8
7FFCF8
7FFFF8
FFFFF0
FFFFF0
F83FE0
F807C0
000000
000000
000000
000000
000000
000000
03FE00
03FE00
03FE00
03FE00
03FE00
03FE00
03FE00
03FE00
03FE00
03FE00
03FE00
03FE00
03FE00
03FE00
03FE00
03FE00
03FE00
03FE00
03FE00
03FE00
03FE00
03FE00
03FE00
03FE00
03FE00
03FE00
03FE00
03FE00
03FE00
03FE00
03FE00
03FE00
03FE00
03FE00
03FE00
03FE00
03FE00
03FE00
ENDCHAR
STARTCHAR 012A
ENCODING 298
SWIDTH 270 0
DWIDTH 18 0
BBX 15 63 2 0
BITMAP
FFFE
FFFE
FFFE
FFFE
FFFE
0000
0000
0000
0000
3FF0
3FF0
3FF0
3FF0
3FF0
3FF0
3FF0
3FF0
3FF0
3FF0
3FF0
3FF0
3FF0
3FF0
3FF0
3FF0
3FF0
3FF0
3FF0
3FF0
3FF0
3FF0
3FF0
3FF0
3FF0
3FF0
3FF0
3FF0
3FF0
3FF0
3FF0
3FF0
3FF0
3FF0
3FF0
3FF0
3FF0
3FF0
3FF0
3FF0
3FF0
3FF0
3FF0
3FF0
3FF0
3FF0
3FF0
3FF0
3FF0
3FF0
3FF0
3FF0
3FF0
3FF0
ENDCHAR
STARTCHAR 012B
ENCODING 299
SWIDTH 255 0
DWIDTH 17 0
BBX 15 48 1 0
BITMAP
FFFE
FFFE
FFFE
FFFE
FFFE
0000
0000
0000
0000
0000
1FF0
1FF0
1FF0
1FF0
1FF0
1FF0
1FF0
1FF0
1FF0
1FF0
1FF0
1FF0
1FF0
1FF0
1FF0
1FF0
1FF0
1FF0
1FF0
1FF0
1FF0
1FF0
1FF0
1FF0
1FF0
1FF0
1FF0
1FF0
1FF0
1FF0
1FF0
1FF0
1FF0
1FF0
1FF0
1FF0
1FF0
1FF0
ENDCHAR
STARTCHAR 012C
ENCODING 300
SWIDTH 270 0
DWIDTH 18 0
BBX 20 68 -1 0
BITMAP
F801F0
7801F0
7C01E0
7C03E0
7E07E0
3FFFC0
1FFF80
0FFF00
03FC00
000000
000000
000000
000000
000000
07FE00
07FE00
07FE00
07FE00
07FE00
07FE00
07FE00
07FE00
07FE00
07FE00
07FE00
07FE00
07FE00
07FE00
07FE00
07FE00
07FE00
07FE00
07FE00
07FE00
07FE00
07FE00
07FE00
07FE00
07FE00
07FE00
07FE00
07FE00
07FE00
07FE00
07FE00
07FE00
07FE00
07FE00
07FE00
07FE00
07FE00
07FE00
07FE00
07FE00
07FE00
07FE00
07FE00
07FE00
07FE00
07FE00
07FE00
07FE00
07FE00
07FE00
07FE00
07FE00
07FE00
07FE00
ENDCHAR
STARTCHAR 012D
ENCODING 301
SWIDTH 255 0
DWIDTH 17 0
BBX 20 53 -2 0
BITMAP
F801F0
7801F0
7C01E0
7C03E0
7E07E0
3FFFC0
1FFF80
0FFF00
03FC00
000000
000000
000000
000000
000000
000000
03FE00
03FE00
03FE00
03FE00
03FE00
03FE00
03FE00
03FE00
03FE00
03FE00
03FE00
03FE00
03FE00
03FE00
03FE00
03FE00
03FE00
03FE00
03FE00
03FE00
03FE00
03FE00
03FE00
03FE00
03FE00
03FE00
03FE00
03FE00
03FE00
03FE00
03FE00
03FE00
03FE00
03FE00
03FE00
03FE00
03FE00
03FE00
ENDCHAR
STARTCHAR 012E
ENCODING 302
SWIDTH 270 0
DWIDTH 18 0
BBX 14 70 0 -16
BITMAP
0FFC
0FFC
0FFC
0FFC
0FFC
0FFC
0FFC
0FFC
0FFC
0FFC
0FFC
0FFC
0FFC
0FFC
0FFC
0FFC
0FFC
0FFC
0FFC
0FFC
0FFC
0FFC
0FFC
0FFC
0FFC
0FFC
0FFC
0FFC
0FFC
0FFC
0FFC
0FFC
0FFC
0FFC
0FFC
0FFC
0FFC
0FFC
0FFC
0FFC
0FFC
0FFC
0FFC
0FFC
0FFC
0FFC
0FFC
0FFC
0FFC
0FFC
0FFC
0FFC
0FFC
0FFC
07C0
1F80
3F80
3F00
7F00
7E00
FE00
FC00
FC00
FC00
FC00
FF00
FFF8
7FF8
3FF0
0FF0
ENDCHAR
STARTCHAR 012F
ENCODING 303
SWIDTH 255 0
DWIDTH 17 0
BBX 13 68 0 -16
BITMAP
0FF8
0FF8
0FF8
0FF8
0FF8
0FF8
0FF8
0FF8
0000
0000
0000
0000
0000
0000
0FF8
0FF8
0FF8
0FF8
0FF8
0FF8
0FF8
0FF8
0FF8
0FF8
0FF8
0FF8
0FF8
0FF8
0FF8
0FF8
0FF8
0FF8
0FF8
0FF8
0FF8
0FF8
0FF8
0FF8
0FF8
0FF8
0FF8
0FF8
0FF8
0FF8
0FF8
0FF8
0FF8
0FF8
0FF8
0FF8
0FF8
0FF8
07C0
1F80
3F80
3F00
7F00
7E00
FE00
FC00
FC00
FC00
FC00
FF00
FFF8
7FF8
3FF0
0FF0
ENDCHAR
STARTCHAR 0130
ENCODING 304
SWIDTH 270 0
DWIDTH 18 0
BBX 10 68 4 0
BITMAP
7FC0
7FC0
7FC0
7FC0
7FC0
7FC0
7FC0
7FC0
7FC0
0000
0000
0000
0000
0000
FFC0
FFC0
FFC0
FFC0
FFC0
FFC0
FFC0
FFC0
FFC0
FFC0
FFC0
FFC0
FFC0
FFC0
FFC0
FFC0
FFC0
FFC0
FFC0
FFC0
FFC0
FFC0
FFC0
FFC0
FFC0
FFC0
FFC0
FFC0
FFC0
FFC0
FFC0
FFC0
FFC0
FFC0
FFC0
FFC0
FFC0
FFC0
FFC0
FFC0
FFC0
FFC0
FFC0
FFC0
FFC0
FFC0
FFC0
FFC0
FFC0
FFC0
FFC0
FFC0
FFC0
FFC0
ENDCHAR
STARTCHAR 0131
ENCODING 305
SWIDTH 255 0
DWIDTH 17 0
BBX 9 38 4 0
BITMAP
FF80
FF80
FF80
FF80
FF80
FF80
FF80
FF80
FF80
FF80
FF80
FF80
FF80
FF80
FF80
FF80
FF80
FF80
FF80
FF80
FF80
FF80
FF80
FF80
FF80
FF80
FF80
FF80
FF80
FF80
FF80
FF80
FF80
FF80
FF80
FF80
FF80
FF80
ENDCHAR
STARTCHAR 0133
ENCODING 307
SWIDTH 510 0
DWIDTH 34 0
BBX 27 63 4 -11
BITMAP
FF807FE0
FF807FE0
FF807FE0
FF807FE0
FF807FE0
FF807FE0
FF807FE0
FF807FE0
00000000
00000000
00000000
00000000
00000000
00000000
FF807FE0
FF807FE0
FF807FE0
FF807FE0
FF807FE0
FF807FE0
FF807FE0
FF807FE0
FF807FE0
FF807FE0
FF807FE0
FF807FE0
FF807FE0
FF807FE0
FF807FE0
FF807FE0
FF807FE0
FF807FE0
FF807FE0
FF807FE0
FF807FE0
FF807FE0
FF807FE0
FF807FE0
FF807FE0
FF807FE0
FF807FE0
FF807FE0
FF807FE0
FF807FE0
FF807FE0
FF807FE0
FF807FE0
FF807FE0
FF807FE0
FF807FE0
FF807FE0
FF807FE0
00007FE0
00007FE0
00007FC0
00007FC0
0009FFC0
000FFFC0
000FFF80
000FFF80
000FFF00
000FFE00
000FF000
ENDCHAR
STARTCHAR 0134
ENCODING 308
SWIDTH 330 0
DWIDTH 22 0
BBX 22 69 1 -1
BITMAP
01FF00
01FF00
03FF80
03FFC0
07FFC0
07EFE0
0FEFE0
0FC7F0
1FC7F0
1F83F8
3F83F8
7F01FC
000000
000000
01FF80
01FF80
01FF80
01FF80
01FF80
01FF80
01FF80
01FF80
01FF80
01FF80
01FF80
01FF80
01FF80
01FF80
01FF80
01FF80
01FF80
01FF80
01FF80
01FF80
01FF80
01FF80
01FF80
01FF80
01FF80
01FF80
01FF80
01FF80
01FF80
01FF80
01FF80
01FF80
01FF80
01FF80
01FF80
01FF80
01FF80
01FF80
01FF80
01FF80
01FF80
01FF80
01FF80
01FF80
01FF80
03FF00
03FF00
0FFF00
FFFF00
FFFE00
FFFE00
FFFC00
FFF800
FFE000
F00000
ENDCHAR
STARTCHAR 0135
ENCODING 309
SWIDTH 255 0
DWIDTH 17 0
BBX 21 65 -2 -12
BITMAP
03FE00
03FE00
07FF00
07FF80
0FFF80
0FDFC0
1FDFC0
1F8FE0
3F8FE0
3F07F0
7F07F0
FE03F8
000000
000000
000000
03FE00
03FE00
03FE00
03FE00
03FE00
03FE00
03FE00
03FE00
03FE00
03FE00
03FE00
03FE00
03FE00
03FE00
03FE00
03FE00
03FE00
03FE00
03FE00
03FE00
03FE00
03FE00
03FE00
03FE00
03FE00
03FE00
03FE00
03FE00
03FE00
03FE00
03FE00
03FE00
03FE00
03FE00
03FE00
03FE00
03FE00
03FE00
03FE00
03FE00
03FE00
03FE00
03FE00
4FFE00
7FFE00
7FFC00
7FFC00
7FF800
7FF000
7F8000
ENDCHAR
STARTCHAR 0136
ENCODING 310
SWIDTH 540 0
DWIDTH 36 0
BBX 31 76 4 -22
BITMAP
FFC007FC
FFC00FF8
FFC00FF8
FFC01FF8
FFC01FF0
FFC03FF0
FFC03FE0
FFC07FE0
FFC07FC0
FFC07FC0
FFC0FFC0
FFC0FF80
FFC1FF80
FFC1FF00
FFC3FF00
FFC3FE00
FFC7FE00
FFC7FE00
FFCFFC00
FFCFFC00
FFDFF800
FFDFF800
FFFFF000
FFFFF000
FFFFF000
FFFFF000
FFFFF800
FFFFF800
FFFFF800
FFEFFC00
FFEFFC00
FFC7FE00
FFC7FE00
FFC7FE00
FFC3FF00
FFC3FF00
FFC1FF80
FFC1FF80
FFC1FF80
FFC0FFC0
FFC0FFC0
FFC0FFE0
FFC07FE0
FFC07FE0
FFC03FF0
FFC03FF0
FFC03FF8
FFC01FF8
FFC01FF8
FFC00FFC
FFC00FFC
FFC00FFE
FFC007FE
FFC007FE
00000000
00000000
00000000
00000000
00000000
001FF000
001FF000
001FF000
001FF000
001FF000
001FF000
001FF000
001FF000
001FF000
0000F000
0000F000
0001F000
0003E000
000FE000
000FE000
0007C000
00070000
ENDCHAR
STARTCHAR 0137
ENCODING 311
SWIDTH 480 0
DWIDTH 32 0
BBX 28 76 4 -22
BITMAP
FF800000
FF800000
FF800000
FF800000
FF800000
FF800000
FF800000
FF800000
FF800000
FF800000
FF800000
FF800000
FF800000
FF800000
FF800000
FF800000
FF803FF0
FF803FE0
FF807FE0
FF80FFC0
FF80FF80
FF81FF80
FF83FF00
FF83FF00
FF87FE00
FF8FFC00
FF8FFC00
FF9FF800
FFBFF000
FFBFF000
FFFFE000
FFFFE000
FFFFE000
FFFFF000
FFFFF000
FFFFF800
FFEFF800
FFCFF800
FF87FC00
FF87FC00
FF87FE00
FF83FE00
FF83FE00
FF83FF00
FF81FF00
FF81FF80
FF80FF80
FF80FF80
FF80FFC0
FF807FC0
FF807FE0
FF803FE0
FF803FF0
FF803FF0
00000000
00000000
00000000
00000000
00000000
007FC000
007FC000
007FC000
007FC000
007FC000
007FC000
007FC000
007FC000
007FC000
0003C000
0003C000
0007C000
000F8000
003F8000
003F8000
001F0000
001C0000
ENDCHAR
STARTCHAR 0138
ENCODING 312
SWIDTH 465 0
DWIDTH 31 0
BBX 27 38 4 0
BITMAP
FF807FE0
FF807FC0
FF80FFC0
FF80FF80
FF81FF80
FF81FF00
FF83FF00
FF83FE00
FF87FC00
FF8FFC00
FF8FF800
FF9FF800
FF9FF000
FFBFF000
FFBFE000
FFFFE000
FFFFE000
FFFFE000
FFFFF000
FFFFF000
FFFFF800
FFEFF800
FFCFF800
FF87FC00
FF87FC00
FF87FC00
FF83FE00
FF83FE00
FF83FF00
FF81FF00
FF81FF00
FF81FF80
FF80FF80
FF80FF80
FF80FFC0
FF807FC0
FF807FE0
FF807FE0
ENDCHAR
STARTCHAR 0139
ENCODING 313
SWIDTH 420 0
DWIDTH 28 0
BBX 23 72 4 0
BITMAP
01FF00
03FE00
03FC00
03FC00
03F800
07F800
07F000
07E000
0FE000
0FC000
0F8000
1F8000
1F0000
000000
000000
000000
000000
000000
FFC000
FFC000
FFC000
FFC000
FFC000
FFC000
FFC000
FFC000
FFC000
FFC000
FFC000
FFC000
FFC000
FFC000
FFC000
FFC000
FFC000
FFC000
FFC000
FFC000
FFC000
FFC000
FFC000
FFC000
FFC000
FFC000
FFC000
FFC000
FFC000
FFC000
FFC000
FFC000
FFC000
FFC000
FFC000
FFC000
FFC000
FFC000
FFC000
FFC000
FFC000
FFC000
FFC000
FFC000
FFC000
FFC000
FFC000
FFC000
FFFFFE
FFFFFE
FFFFFE
FFFFFE
FFFFFE
FFFFFE
ENDCHAR
STARTCHAR 013A
ENCODING 314
SWIDTH 255 0
DWIDTH 17 0
BBX 15 71 4 0
BITMAP
03FE
07FC
07F8
07F8
07F0
0FF0
0FE0
0FC0
1FC0
1F80
1F00
3F00
3E00
0000
0000
0000
0000
FF80
FF80
FF80
FF80
FF80
FF80
FF80
FF80
FF80
FF80
FF80
FF80
FF80
FF80
FF80
FF80
FF80
FF80
FF80
FF80
FF80
FF80
FF80
FF80
FF80
FF80
FF80
FF80
FF80
FF80
FF80
FF80
FF80
FF80
FF80
FF80
FF80
FF80
FF80
FF80
FF80
FF80
FF80
FF80
FF80
FF80
FF80
FF80
FF80
FF80
FF80
FF80
FF80
FF80
ENDCHAR
STARTCHAR 013B
ENCODING 315
SWIDTH 420 0
DWIDTH 28 0
BBX 23 76 4 -22
BITMAP
FFC000
FFC000
FFC000
FFC000
FFC000
FFC000
FFC000
FFC000
FFC000
FFC000
FFC000
FFC000
FFC000
FFC000
FFC000
FFC000
FFC000
FFC000
FFC000
FFC000
FFC000
FFC000
FFC000
FFC000
FFC000
FFC000
FFC000
FFC000
FFC000
FFC000
FFC000
FFC000
FFC000
FFC000
FFC000
FFC000
FFC000
FFC000
FFC000
FFC000
FFC000
FFC000
FFC000
FFC000
FFC000
FFC000
FFC000
FFC000
FFFFFE
FFFFFE
FFFFFE
FFFFFE
FFFFFE
FFFFFE
000000
000000
000000
000000
000000
01FF00
01FF00
01FF00
01FF00
01FF00
01FF00
01FF00
01FF00
01FF00
000F00
000F00
001F00
003E00
00FE00
00FE00
007C00
007000
ENDCHAR
STARTCHAR 013C
ENCODING 316
SWIDTH 255 0
DWIDTH 17 0
BBX 9 76 4 -22
BITMAP
FF80
FF80
FF80
FF80
FF80
FF80
FF80
FF80
FF80
FF80
FF80
FF80
FF80
FF80
FF80
FF80
FF80
FF80
FF80
FF80
FF80
FF80
FF80
FF80
FF80
FF80
FF80
FF80
FF80
FF80
FF80
FF80
FF80
FF80
FF80
FF80
FF80
FF80
FF80
FF80
FF80
FF80
FF80
FF80
FF80
FF80
FF80
FF80
FF80
FF80
FF80
FF80
FF80
FF80
0000
0000
0000
0000
0000
FF80
FF80
FF80
FF80
FF80
FF80
FF80
FF80
FF80
0780
0780
0F80
1F00
7F00
7F00
3E00
3800
ENDCHAR
STARTCHAR 013D
ENCODING 317
SWIDTH 435 0
DWIDTH 29 0
BBX 26 55 4 0
BITMAP
00001FC0
FFC01FC0
FFC01FC0
FFC01FC0
FFC01FC0
FFC01F80
FFC01F80
FFC01F80
FFC01F80
FFC01F80
FFC01F00
FFC01F00
FFC01F00
FFC01F00
FFC01F00
FFC01F00
FFC01E00
FFC01E00
FFC00000
FFC00000
FFC00000
FFC00000
FFC00000
FFC00000
FFC00000
FFC00000
FFC00000
FFC00000
FFC00000
FFC00000
FFC00000
FFC00000
FFC00000
FFC00000
FFC00000
FFC00000
FFC00000
FFC00000
FFC00000
FFC00000
FFC00000
FFC00000
FFC00000
FFC00000
FFC00000
FFC00000
FFC00000
FFC00000
FFC00000
FFFFFE00
FFFFFE00
FFFFFE00
FFFFFE00
FFFFFE00
FFFFFE00
ENDCHAR
STARTCHAR 013E
ENCODING 318
SWIDTH 360 0
DWIDTH 24 0
BBX 23 54 4 0
BITMAP
FF80FE
FF80FE
FF80FE
FF80FE
FF80FE
FF80FC
FF80FC
FF80FC
FF80FC
FF80FC
FF80F8
FF80F8
FF80F8
FF80F8
FF80F8
FF80F8
FF80F0
FF80F0
FF8000
FF8000
FF8000
FF8000
FF8000
FF8000
FF8000
FF8000
FF8000
FF8000
FF8000
FF8000
FF8000
FF8000
FF8000
FF8000
FF8000
FF8000
FF8000
FF8000
FF8000
FF8000
FF8000
FF8000
FF8000
FF8000
FF8000
FF8000
FF8000
FF8000
FF8000
FF8000
FF8000
FF8000
FF8000
FF8000
ENDCHAR
STARTCHAR 013F
ENCODING 319
SWIDTH 420 0
DWIDTH 28 0
BBX 23 54 4 0
BITMAP
FFC000
FFC000
FFC000
FFC000
FFC000
FFC000
FFC000
FFC000
FFC000
FFC000
FFC000
FFC000
FFC000
FFC000
FFC000
FFC000
FFC000
FFC000
FFC000
FFC000
FFC000
FFC000
FFC7FC
FFC7FC
FFC7FC
FFC7FC
FFC7FC
FFC7FC
FFC7FC
FFC7FC
FFC7FC
FFC000
FFC000
FFC000
FFC000
FFC000
FFC000
FFC000
FFC000
FFC000
FFC000
FFC000
FFC000
FFC000
FFC000
FFC000
FFC000
FFC000
FFFFFE
FFFFFE
FFFFFE
FFFFFE
FFFFFE
FFFFFE
ENDCHAR
STARTCHAR 0140
ENCODING 320
SWIDTH 450 0
DWIDTH 30 0
BBX 24 54 4 0
BITMAP
FF8000
FF8000
FF8000
FF8000
FF8000
FF8000
FF8000
FF8000
FF8000
FF8000
FF8000
FF8000
FF8000
FF8000
FF8000
FF8000
FF8000
FF8000
FF8000
FF8000
FF8000
FF8000
FF8000
FF8000
FF81FF
FF81FF
FF81FF
FF81FF
FF81FF
FF81FF
FF81FF
FF81FF
FF81FF
FF8000
FF8000
FF8000
FF8000
FF8000
FF8000
FF8000
FF8000
FF8000
FF8000
FF8000
FF8000
FF8000
FF8000
FF8000
FF8000
FF8000
FF8000
FF8000
FF8000
FF8000
ENDCHAR
STARTCHAR 0141
ENCODING 321
SWIDTH 420 0
DWIDTH 28 0
BBX 27 54 0 0
BITMAP
0FFC0000
0FFC0000
0FFC0000
0FFC0000
0FFC0000
0FFC0000
0FFC0000
0FFC0000
0FFC0000
0FFC0000
0FFC0000
0FFC0000
0FFC0000
0FFC0000
0FFC0000
0FFC0800
0FFC3800
0FFC7800
0FFDF800
0FFFF800
0FFFF800
0FFFF800
0FFFE000
0FFF8000
1FFE0000
7FFC0000
FFFC0000
FFFC0000
FFFC0000
FFFC0000
FFFC0000
CFFC0000
0FFC0000
0FFC0000
0FFC0000
0FFC0000
0FFC0000
0FFC0000
0FFC0000
0FFC0000
0FFC0000
0FFC0000
0FFC0000
0FFC0000
0FFC0000
0FFC0000
0FFC0000
0FFC0000
0FFFFFE0
0FFFFFE0
0FFFFFE0
0FFFFFE0
0FFFFFE0
0FFFFFE0
ENDCHAR
STARTCHAR 0142
ENCODING 322
SWIDTH 300 0
DWIDTH 20 0
BBX 18 54 1 0
BITMAP
07FC00
07FC00
07FC00
07FC00
07FC00
07FC00
07FC00
07FC00
07FC00
07FC00
07FC00
07FC00
07FC00
07FC00
07FC00
07FC40
07FFC0
07FFC0
07FFC0
07FFC0
07FFC0
1FFF00
7FFC00
FFFC00
FFFC00
FFFC00
FFFC00
E7FC00
87FC00
07FC00
07FC00
07FC00
07FC00
07FC00
07FC00
07FC00
07FC00
07FC00
07FC00
07FC00
07FC00
07FC00
07FC00
07FC00
07FC00
07FC00
07FC00
07FC00
07FC00
07FC00
07FC00
07FC00
07FC00
07FC00
ENDCHAR
STARTCHAR 0143
ENCODING 323
SWIDTH 540 0
DWIDTH 36 0
BBX 28 72 4 0
BITMAP
0000FF80
0001FF00
0001FE00
0001FE00
0001FC00
0003FC00
0003F800
0003F000
0007F000
0007E000
0007C000
000FC000
000F8000
00000000
00000000
00000000
00000000
00000000
FE000FF0
FF000FF0
FF000FF0
FF000FF0
FF800FF0
FF800FF0
FFC00FF0
FFC00FF0
FFE00FF0
FFE00FF0
FFF00FF0
FFF00FF0
FFF00FF0
FFF80FF0
FFF80FF0
FFFC0FF0
FFFC0FF0
FFFE0FF0
FFFE0FF0
FFFF0FF0
FFFF0FF0
FFFF0FF0
FFFF8FF0
FF7F8FF0
FF7FCFF0
FF7FCFF0
FF3FEFF0
FF3FEFF0
FF1FFFF0
FF1FFFF0
FF0FFFF0
FF0FFFF0
FF07FFF0
FF07FFF0
FF07FFF0
FF03FFF0
FF03FFF0
FF01FFF0
FF01FFF0
FF00FFF0
FF00FFF0
FF00FFF0
FF007FF0
FF007FF0
FF003FF0
FF003FF0
FF001FF0
FF001FF0
FF001FF0
FF000FF0
FF000FF0
FF0007F0
FF0007F0
FF0003F0
ENDCHAR
STARTCHAR 0144
ENCODING 324
SWIDTH 480 0
DWIDTH 32 0
BBX 25 56 3 0
BITMAP
0001FF00
0003FE00
0003FC00
0003FC00
0003F800
0007F800
0007F000
0007E000
000FE000
000FC000
000F8000
001F8000
001F0000
00000000
00000000
00000000
00000000
00001000
FFC3FE00
FFCFFF00
FFDFFF00
FFFFFF80
FFFFFF80
FFFFFF80
FFF0FF80
FFC0FF80
FFC0FF80
FFC0FF80
FFC0FF80
FFC0FF80
FFC0FF80
FFC0FF80
FFC0FF80
FFC0FF80
FFC0FF80
FFC0FF80
FFC0FF80
FFC0FF80
FFC0FF80
FFC0FF80
FFC0FF80
FFC0FF80
FFC0FF80
FFC0FF80
FFC0FF80
FFC0FF80
FFC0FF80
FFC0FF80
FFC0FF80
FFC0FF80
FFC0FF80
FFC0FF80
FFC0FF80
FFC0FF80
FFC0FF80
FFC0FF80
ENDCHAR
STARTCHAR 0145
ENCODING 325
SWIDTH 540 0
DWIDTH 36 0
BBX 28 76 4 -22
BITMAP
FE000FF0
FF000FF0
FF000FF0
FF000FF0
FF800FF0
FF800FF0
FFC00FF0
FFC00FF0
FFE00FF0
FFE00FF0
FFF00FF0
FFF00FF0
FFF00FF0
FFF80FF0
FFF80FF0
FFFC0FF0
FFFC0FF0
FFFE0FF0
FFFE0FF0
FFFF0FF0
FFFF0FF0
FFFF0FF0
FFFF8FF0
FF7F8FF0
FF7FCFF0
FF7FCFF0
FF3FEFF0
FF3FEFF0
FF1FFFF0
FF1FFFF0
FF0FFFF0
FF0FFFF0
FF07FFF0
FF07FFF0
FF07FFF0
FF03FFF0
FF03FFF0
FF01FFF0
FF01FFF0
FF00FFF0
FF00FFF0
FF00FFF0
FF007FF0
FF007FF0
FF003FF0
FF003FF0
FF001FF0
FF001FF0
FF001FF0
FF000FF0
FF000FF0
FF0007F0
FF0007F0
FF0003F0
00000000
00000000
00000000
00000000
00000000
003FE000
003FE000
003FE000
003FE000
003FE000
003FE000
003FE000
003FE000
003FE000
0001E000
0001E000
0003E000
0007C000
001FC000
001FC000
000F8000
000E0000
ENDCHAR
STARTCHAR 0146
ENCODING 326
SWIDTH 480 0
DWIDTH 32 0
BBX 25 61 3 -22
BITMAP
00001000
FFC3FE00
FFCFFF00
FFDFFF00
FFFFFF80
FFFFFF80
FFFFFF80
FFF0FF80
FFC0FF80
FFC0FF80
FFC0FF80
FFC0FF80
FFC0FF80
FFC0FF80
FFC0FF80
FFC0FF80
FFC0FF80
FFC0FF80
FFC0FF80
FFC0FF80
FFC0FF80
FFC0FF80
FFC0FF80
FFC0FF80
FFC0FF80
FFC0FF80
FFC0FF80
FFC0FF80
FFC0FF80
FFC0FF80
FFC0FF80
FFC0FF80
FFC0FF80
FFC0FF80
FFC0FF80
FFC0FF80
FFC0FF80
FFC0FF80
FFC0FF80
00000000
00000000
00000000
00000000
00000000
00FF8000
00FF8000
00FF8000
00FF8000
00FF8000
00FF8000
00FF8000
00FF8000
00FF8000
00078000
00078000
000F8000
001F0000
007F0000
007F0000
003E0000
00380000
ENDCHAR
STARTCHAR 0147
ENCODING 327
SWIDTH 540 0
DWIDTH 36 0
BBX 28 71 4 0
BITMAP
0FE03F80
07F03F00
07F07F00
03F87E00
03F8FE00
01FCFC00
01FDFC00
00FFF800
00FFF800
007FF000
007FF000
003FE000
00000000
00000000
00000000
00000000
00000000
FE000FF0
FF000FF0
FF000FF0
FF000FF0
FF800FF0
FF800FF0
FFC00FF0
FFC00FF0
FFE00FF0
FFE00FF0
FFF00FF0
FFF00FF0
FFF00FF0
FFF80FF0
FFF80FF0
FFFC0FF0
FFFC0FF0
FFFE0FF0
FFFE0FF0
FFFF0FF0
FFFF0FF0
FFFF0FF0
FFFF8FF0
FF7F8FF0
FF7FCFF0
FF7FCFF0
FF3FEFF0
FF3FEFF0
FF1FFFF0
FF1FFFF0
FF0FFFF0
FF0FFFF0
FF07FFF0
FF07FFF0
FF07FFF0
FF03FFF0
FF03FFF0
FF01FFF0
FF01FFF0
FF00FFF0
FF00FFF0
FF00FFF0
FF007FF0
FF007FF0
FF003FF0
FF003FF0
FF001FF0
FF001FF0
FF001FF0
FF000FF0
FF000FF0
FF0007F0
FF0007F0
FF0003F0
ENDCHAR
STARTCHAR 0148
ENCODING 328
SWIDTH 480 0
DWIDTH 32 0
BBX 25 55 3 0
BITMAP
3F80FE00
1FC0FC00
1FC1FC00
0FE1F800
0FE3F800
07F3F000
07F7F000
03FFE000
03FFE000
01FFC000
01FFC000
00FF8000
00000000
00000000
00000000
00000000
00001000
FFC3FE00
FFCFFF00
FFDFFF00
FFFFFF80
FFFFFF80
FFFFFF80
FFF0FF80
FFC0FF80
FFC0FF80
FFC0FF80
FFC0FF80
FFC0FF80
FFC0FF80
FFC0FF80
FFC0FF80
FFC0FF80
FFC0FF80
FFC0FF80
FFC0FF80
FFC0FF80
FFC0FF80
FFC0FF80
FFC0FF80
FFC0FF80
FFC0FF80
FFC0FF80
FFC0FF80
FFC0FF80
FFC0FF80
FFC0FF80
FFC0FF80
FFC0FF80
FFC0FF80
FFC0FF80
FFC0FF80
FFC0FF80
FFC0FF80
FFC0FF80
ENDCHAR
STARTCHAR 0149
ENCODING 329
SWIDTH 480 0
DWIDTH 32 0
BBX 25 62 3 0
BITMAP
3F800000
3F800000
3F800000
3F800000
3F800000
3F000000
3F000000
3F000000
3F000000
3F000000
3E000000
3E000000
3E000000
3E000000
3E000000
3E000000
3C000000
3C000000
00000000
00000000
00000000
00000000
00000000
00001000
FFC3FE00
FFCFFF00
FFDFFF00
FFFFFF80
FFFFFF80
FFFFFF80
FFF0FF80
FFC0FF80
FFC0FF80
FFC0FF80
FFC0FF80
FFC0FF80
FFC0FF80
FFC0FF80
FFC0FF80
FFC0FF80
FFC0FF80
FFC0FF80
FFC0FF80
FFC0FF80
FFC0FF80
FFC0FF80
FFC0FF80
FFC0FF80
FFC0FF80
FFC0FF80
FFC0FF80
FFC0FF80
FFC0FF80
FFC0FF80
FFC0FF80
FFC0FF80
FFC0FF80
FFC0FF80
FFC0FF80
FFC0FF80
FFC0FF80
FFC0FF80
ENDCHAR
STARTCHAR 014A
ENCODING 330
SWIDTH 555 0
DWIDTH 37 0
BBX 28 67 4 -14
BITMAP
FE0007F0
FF0007F0
FF0007F0
FF0007F0
FF8007F0
FF8007F0
FFC007F0
FFC007F0
FFE007F0
FFE007F0
FFF007F0
FFF007F0
FFF007F0
FFF807F0
FFF807F0
FFFC07F0
FFFC07F0
FFFE07F0
FFFE07F0
FFFF07F0
FFFF07F0
FFFF07F0
FF7F87F0
FF7F87F0
FF7FC7F0
FF3FC7F0
FF3FE7F0
FF1FE7F0
FF1FF7F0
FF0FF7F0
FF0FF7F0
FF07FFF0
FF07FFF0
FF07FFF0
FF03FFF0
FF03FFF0
FF01FFF0
FF01FFF0
FF00FFF0
FF00FFF0
FF007FF0
FF007FF0
FF007FF0
FF003FF0
FF003FF0
FF001FF0
FF001FF0
FF000FF0
FF000FF0
FF000FF0
FF0007F0
FF0007F0
FF0007F0
FF0007F0
000007F0
000007F0
000007F0
00000FF0
00000FF0
00001FF0
00003FF0
0007FFE0
0007FFE0
0007FFC0
0007FFC0
0007FF80
0007FE00
ENDCHAR
STARTCHAR 014B
ENCODING 331
SWIDTH 435 0
DWIDTH 29 0
BBX 25 52 3 -13
BITMAP
00002000
FF83FC00
FF8FFE00
FFBFFF00
FFFFFF00
FFFFFF00
FFFFFF80
FFE1FF80
FFC1FF80
FF80FF80
FF80FF80
FF80FF80
FF80FF80
FF80FF80
FF80FF80
FF80FF80
FF80FF80
FF80FF80
FF80FF80
FF80FF80
FF80FF80
FF80FF80
FF80FF80
FF80FF80
FF80FF80
FF80FF80
FF80FF80
FF80FF80
FF80FF80
FF80FF80
FF80FF80
FF80FF80
FF80FF80
FF80FF80
FF80FF80
FF80FF80
FF80FF80
FF80FF80
FF80FF80
0000FF80
0000FF80
0001FF80
0001FF80
0001FF00
0003FF00
003FFF00
00FFFE00
00FFFE00
00FFFC00
00FFF800
00FFE000
00FF0000
ENDCHAR
STARTCHAR 014C
ENCODING 332
SWIDTH 570 0
DWIDTH 38 0
BBX 31 64 3 -1
BITMAP
00FFFE00
00FFFE00
00FFFE00
00FFFE00
00FFFE00
00000000
00000000
00000000
00010000
007FFE00
01FFFF80
07FFFFC0
0FFFFFE0
1FFFFFF0
1FFFFFF8
3FFFFFF8
3FF01FFC
7FE00FFC
7FE007FE
7FE007FE
7FC007FE
FFC007FE
FFC007FE
FFC007FE
FFC007FE
FFC007FE
FFC007FE
FFC007FE
FFC007FE
FFC007FE
FFC007FE
FFC007FE
FFC007FE
FFC007FE
FFC007FE
FFC007FE
FFC007FE
FFC007FE
FFC007FE
FFC007FE
FFC007FE
FFC007FE
FFC007FE
FFC007FE
FFC007FE
FFC007FE
FFC007FE
FFC007FE
FFC007FE
FFC007FE
FFC007FE
7FC007FE
7FE007FE
7FE007FE
7FE00FFC
3FF01FFC
3FFFFFF8
1FFFFFF8
1FFFFFF0
0FFFFFE0
07FFFFC0
01FFFF80
007FFE00
00010000
ENDCHAR
STARTCHAR 014D
ENCODING 333
SWIDTH 450 0
DWIDTH 30 0
BBX 25 49 3 -1
BITMAP
07FFF000
07FFF000
07FFF000
07FFF000
07FFF000
00000000
00000000
00000000
00000000
00080000
03FFC000
0FFFF000
1FFFF800
3FFFFC00
3FFFFE00
7FFFFE00
7FC3FF00
FF81FF00
FF81FF00
FF81FF00
FF81FF00
FF81FF80
FF80FF80
FF80FF80
FF80FF80
FF80FF80
FF80FF80
FF80FF80
FF80FF80
FF80FF80
FF80FF80
FF80FF80
FF80FF80
FF80FF80
FF80FF80
FF80FF80
FF81FF80
FF81FF80
FF81FF00
FF81FF00
FF81FF00
7FC3FF00
7FFFFE00
3FFFFE00
3FFFFC00
1FFFF800
0FFFF000
03FFC000
00080000
ENDCHAR
STARTCHAR 014E
ENCODING 334
SWIDTH 570 0
DWIDTH 38 0
BBX 31 69 3 -1
BITMAP
03E007C0
01E007C0
01F00780
01F00F80
01F81F80
00FFFF00
007FFE00
003FFC00
000FF000
00000000
00000000
00000000
00000000
00010000
007FFE00
01FFFF80
07FFFFC0
0FFFFFE0
1FFFFFF0
1FFFFFF8
3FFFFFF8
3FF01FFC
7FE00FFC
7FE007FE
7FE007FE
7FC007FE
FFC007FE
FFC007FE
FFC007FE
FFC007FE
FFC007FE
FFC007FE
FFC007FE
FFC007FE
FFC007FE
FFC007FE
FFC007FE
FFC007FE
FFC007FE
FFC007FE
FFC007FE
FFC007FE
FFC007FE
FFC007FE
FFC007FE
FFC007FE
FFC007FE
FFC007FE
FFC007FE
FFC007FE
FFC007FE
FFC007FE
FFC007FE
FFC007FE
FFC007FE
FFC007FE
7FC007FE
7FE007FE
7FE007FE
7FE00FFC
3FF01FFC
3FFFFFF8
1FFFFFF8
1FFFFFF0
0FFFFFE0
07FFFFC0
01FFFF80
007FFE00
00010000
ENDCHAR
STARTCHAR 014F
ENCODING 335
SWIDTH 450 0
DWIDTH 30 0
BBX 25 54 3 -1
BITMAP
3E007C00
1E007C00
1F007800
1F00F800
1F81F800
0FFFF000
07FFE000
03FFC000
00FF0000
00000000
00000000
00000000
00000000
00000000
00080000
03FFC000
0FFFF000
1FFFF800
3FFFFC00
3FFFFE00
7FFFFE00
7FC3FF00
FF81FF00
FF81FF00
FF81FF00
FF81FF00
FF81FF80
FF80FF80
FF80FF80
FF80FF80
FF80FF80
FF80FF80
FF80FF80
FF80FF80
FF80FF80
FF80FF80
FF80FF80
FF80FF80
FF80FF80
FF80FF80
FF80FF80
FF81FF80
FF81FF80
FF81FF00
FF81FF00
FF81FF00
7FC3FF00
7FFFFE00
3FFFFE00
3FFFFC00
1FFFF800
0FFFF000
03FFC000
00080000
ENDCHAR
STARTCHAR 0150
ENCODING 336
SWIDTH 570 0
DWIDTH 38 0
BBX 31 73 3 -1
BITMAP
001FE3FE
001FC3FC
001FC3F8
001F87F8
003F87F0
003F07F0
003F0FE0
003E0FC0
007E0FC0
007C1F80
007C1F80
00F81F00
00F83E00
00000000
00000000
00000000
00000000
00010000
007FFE00
01FFFF80
07FFFFC0
0FFFFFE0
1FFFFFF0
1FFFFFF8
3FFFFFF8
3FF01FFC
7FE00FFC
7FE007FE
7FE007FE
7FC007FE
FFC007FE
FFC007FE
FFC007FE
FFC007FE
FFC007FE
FFC007FE
FFC007FE
FFC007FE
FFC007FE
FFC007FE
FFC007FE
FFC007FE
FFC007FE
FFC007FE
FFC007FE
FFC007FE
FFC007FE
FFC007FE
FFC007FE
FFC007FE
FFC007FE
FFC007FE
FFC007FE
FFC007FE
FFC007FE
FFC007FE
FFC007FE
FFC007FE
FFC007FE
FFC007FE
7FC007FE
7FE007FE
7FE007FE
7FE00FFC
3FF01FFC
3FFFFFF8
1FFFFFF8
1FFFFFF0
0FFFFFE0
07FFFFC0
01FFFF80
007FFE00
00010000
ENDCHAR
STARTCHAR 0151
ENCODING 337
SWIDTH 450 0
DWIDTH 30 0
BBX 28 57 3 -1
BITMAP
00FF1FF0
00FE1FE0
00FE1FC0
00FC3FC0
01FC3F80
01F83F80
01F87F00
01F07E00
03F07E00
03E0FC00
03E0FC00
07C0F800
07C1F000
00000000
00000000
00000000
00000000
00080000
03FFC000
0FFFF000
1FFFF800
3FFFFC00
3FFFFE00
7FFFFE00
7FC3FF00
FF81FF00
FF81FF00
FF81FF00
FF81FF00
FF81FF80
FF80FF80
FF80FF80
FF80FF80
FF80FF80
FF80FF80
FF80FF80
FF80FF80
FF80FF80
FF80FF80
FF80FF80
FF80FF80
FF80FF80
FF80FF80
FF80FF80
FF81FF80
FF81FF80
FF81FF00
FF81FF00
FF81FF00
7FC3FF00
7FFFFE00
3FFFFE00
3FFFFC00
1FFFF800
0FFFF000
03FFC000
00080000
ENDCHAR
STARTCHAR 0152
ENCODING 338
SWIDTH 705 0
DWIDTH 47 0
BBX 42 54 3 0
BITMAP
001FFFFFFFC0
00FFFFFFFFC0
03FFFFFFFFC0
07FFFFFFFFC0
0FFFFFFFFFC0
1FFFFFFFFFC0
1FFE0FFC0000
3FF80FFC0000
3FE00FFC0000
7FE00FFC0000
7FE00FFC0000
7FC00FFC0000
7FC00FFC0000
FFC00FFC0000
FFC00FFC0000
FFC00FFC0000
FFC00FFC0000
FFC00FFC0000
FFC00FFC0000
FFC00FFC0000
FFC00FFC0000
FFC00FFC0000
FFC00FFC0000
FFC00FFFFF00
FFC00FFFFF00
FFC00FFFFF00
FFC00FFFFF00
FFC00FFFFF00
FFC00FFFFF00
FFC00FFC0000
FFC00FFC0000
FFC00FFC0000
FFC00FFC0000
FFC00FFC0000
FFC00FFC0000
FFC00FFC0000
FFC00FFC0000
FFC00FFC0000
FFC00FFC0000
FFC00FFC0000
FFC00FFC0000
FFC00FFC0000
7FC00FFC0000
7FE00FFC0000
7FE00FFC0000
7FF00FFC0000
3FF80FFC0000
3FFFFFFFFFC0
1FFFFFFFFFC0
0FFFFFFFFFC0
07FFFFFFFFC0
03FFFFFFFFC0
00FFFFFFFFC0
001FFFFFFFC0
ENDCHAR
STARTCHAR 0153
ENCODING 339
SWIDTH 705 0
DWIDTH 47 0
BBX 41 40 3 -1
BITMAP
000800040000
01FF80FFE000
07FFE1FFF000
0FFFF3FFFC00
1FFFF7FFFC00
3FFFFFFFFE00
3FFFFFFFFE00
7FE1FFE3FF00
7FC1FFC1FF00
7FC0FFC1FF00
FFC0FFC0FF00
FF80FFC0FF00
FF80FF80FF80
FF80FF80FF80
FF80FF80FF80
FF80FFFFFF80
FF80FFFFFF80
FF80FFFFFF80
FF80FFFFFF80
FF80FFFFFF80
FF80FF800000
FF80FF800000
FF80FF800000
FF80FF800000
FF80FF800000
FF80FF80FF80
FF80FF80FF80
FF80FFC0FF80
FF80FFC0FF80
7FC0FFC0FF80
7FC0FFC0FF80
7FC1FFC1FF00
7FE1FFE1FF00
3FFFFFFFFF00
3FFFFFFFFE00
1FFFF7FFFE00
0FFFF7FFFC00
07FFE3FFF800
03FF80FFE000
001000040000
ENDCHAR
STARTCHAR 0154
ENCODING 340
SWIDTH 555 0
DWIDTH 37 0
BBX 31 72 4 0
BITMAP
00007FC0
0000FF80
0000FF00
0000FF00
0000FE00
0001FE00
0001FC00
0001F800
0003F800
0003F000
0003E000
0007E000
0007C000
00000000
00000000
00000000
00000000
00000000
FFFFE000
FFFFFC00
FFFFFF00
FFFFFFC0
FFFFFFE0
FFFFFFF0
FFC3FFF0
FFC03FF8
FFC01FF8
FFC00FF8
FFC00FF8
FFC00FFC
FFC00FFC
FFC00FFC
FFC00FFC
FFC00FFC
FFC00FFC
FFC00FFC
FFC00FF8
FFC00FF8
FFC01FF8
FFC03FF8
FFC0FFF0
FFFFFFF0
FFFFFFE0
FFFFFFC0
FFFFFF80
FFFFFE00
FFFFFF00
FFC3FF00
FFC3FF00
FFC1FF00
FFC1FF80
FFC1FF80
FFC1FF80
FFC0FF80
FFC0FFC0
FFC0FFC0
FFC0FFC0
FFC07FE0
FFC07FE0
FFC07FE0
FFC03FE0
FFC03FF0
FFC03FF0
FFC03FF0
FFC01FF8
FFC01FF8
FFC01FF8
FFC00FF8
FFC00FFC
FFC00FFC
FFC00FFC
FFC007FE
ENDCHAR
STARTCHAR 0155
ENCODING 341
SWIDTH 345 0
DWIDTH 23 0
BBX 20 56 4 0
BITMAP
001FF0
003FE0
003FC0
003FC0
003F80
007F80
007F00
007E00
00FE00
00FC00
00F800
01F800
01F000
000000
000000
000000
000000
000080
FF83C0
FF8FC0
FF9FC0
FFBFC0
FFBFC0
FFFFC0
FFFFC0
FFFFC0
FFFFC0
FFF000
FFC000
FFC000
FF8000
FF8000
FF8000
FF8000
FF8000
FF8000
FF8000
FF8000
FF8000
FF8000
FF8000
FF8000
FF8000
FF8000
FF8000
FF8000
FF8000
FF8000
FF8000
FF8000
FF8000
FF8000
FF8000
FF8000
FF8000
FF8000
ENDCHAR
STARTCHAR 0156
ENCODING 342
SWIDTH 555 0
DWIDTH 37 0
BBX 31 76 4 -22
BITMAP
FFFFE000
FFFFFC00
FFFFFF00
FFFFFFC0
FFFFFFE0
FFFFFFF0
FFC3FFF0
FFC03FF8
FFC01FF8
FFC00FF8
FFC00FF8
FFC00FFC
FFC00FFC
FFC00FFC
FFC00FFC
FFC00FFC
FFC00FFC
FFC00FFC
FFC00FF8
FFC00FF8
FFC01FF8
FFC03FF8
FFC0FFF0
FFFFFFF0
FFFFFFE0
FFFFFFC0
FFFFFF80
FFFFFE00
FFFFFF00
FFC3FF00
FFC3FF00
FFC1FF00
FFC1FF80
FFC1FF80
FFC1FF80
FFC0FF80
FFC0FFC0
FFC0FFC0
FFC0FFC0
FFC07FE0
FFC07FE0
FFC07FE0
FFC03FE0
FFC03FF0
FFC03FF0
FFC03FF0
FFC01FF8
FFC01FF8
FFC01FF8
FFC00FF8
FFC00FFC
FFC00FFC
FFC00FFC
FFC007FE
00000000
00000000
00000000
00000000
00000000
001FF000
001FF000
001FF000
001FF000
001FF000
001FF000
001FF000
001FF000
001FF000
0000F000
0000F000
0001F000
0003E000
000FE000
000FE000
0007C000
00070000
ENDCHAR
STARTCHAR 0157
ENCODING 343
SWIDTH 345 0
DWIDTH 23 0
BBX 18 61 4 -22
BITMAP
000080
FF83C0
FF8FC0
FF9FC0
FFBFC0
FFBFC0
FFFFC0
FFFFC0
FFFFC0
FFFFC0
FFF000
FFC000
FFC000
FF8000
FF8000
FF8000
FF8000
FF8000
FF8000
FF8000
FF8000
FF8000
FF8000
FF8000
FF8000
FF8000
FF8000
FF8000
FF8000
FF8000
FF8000
FF8000
FF8000
FF8000
FF8000
FF8000
FF8000
FF8000
FF8000
000000
000000
000000
000000
000000
0FF800
0FF800
0FF800
0FF800
0FF800
0FF800
0FF800
0FF800
0FF800
007800
007800
00F800
01F000
07F000
07F000
03E000
038000
ENDCHAR
STARTCHAR 0158
ENCODING 344
SWIDTH 555 0
DWIDTH 37 0
BBX 31 71 4 0
BITMAP
07F01FC0
03F81F80
03F83F80
01FC3F00
01FC7F00
00FE7E00
00FEFE00
007FFC00
007FFC00
003FF800
003FF800
001FF000
00000000
00000000
00000000
00000000
00000000
FFFFE000
FFFFFC00
FFFFFF00
FFFFFFC0
FFFFFFE0
FFFFFFF0
FFC3FFF0
FFC03FF8
FFC01FF8
FFC00FF8
FFC00FF8
FFC00FFC
FFC00FFC
FFC00FFC
FFC00FFC
FFC00FFC
FFC00FFC
FFC00FFC
FFC00FF8
FFC00FF8
FFC01FF8
FFC03FF8
FFC0FFF0
FFFFFFF0
FFFFFFE0
FFFFFFC0
FFFFFF80
FFFFFE00
FFFFFF00
FFC3FF00
FFC3FF00
FFC1FF00
FFC1FF80
FFC1FF80
FFC1FF80
FFC0FF80
FFC0FFC0
FFC0FFC0
FFC0FFC0
FFC07FE0
FFC07FE0
FFC07FE0
FFC03FE0
FFC03FF0
FFC03FF0
FFC03FF0
FFC01FF8
FFC01FF8
FFC01FF8
FFC00FF8
FFC00FFC
FFC00FFC
FFC00FFC
FFC007FE
ENDCHAR
STARTCHAR 0159
ENCODING 345
SWIDTH 345 0
DWIDTH 23 0
BBX 21 55 2 0
BITMAP
FE03F8
7F03F0
7F07F0
3F87E0
3F8FE0
1FCFC0
1FDFC0
0FFF80
0FFF80
07FF00
07FF00
03FE00
000000
000000
000000
000000
000020
3FE0F0
3FE3F0
3FE7F0
3FEFF0
3FEFF0
3FFFF0
3FFFF0
3FFFF0
3FFFF0
3FFC00
3FF000
3FF000
3FE000
3FE000
3FE000
3FE000
3FE000
3FE000
3FE000
3FE000
3FE000
3FE000
3FE000
3FE000
3FE000
3FE000
3FE000
3FE000
3FE000
3FE000
3FE000
3FE000
3FE000
3FE000
3FE000
3FE000
3FE000
3FE000
ENDCHAR
STARTCHAR 015A
ENCODING 346
SWIDTH 495 0
DWIDTH 33 0
BBX 28 73 3 -1
BITMAP
0000FF80
0001FF00
0001FE00
0001FE00
0001FC00
0003FC00
0003F800
0003F000
0007F000
0007E000
0007C000
000FC000
000F8000
00000000
00000000
00000000
00000000
00040000
01FFF000
07FFFC00
0FFFFE00
1FFFFF00
3FFFFF80
7FFFFF80
7FFBFFC0
FFC07FC0
FFC07FC0
FF803FE0
FF803FE0
FF801FE0
FF801FE0
FF801FE0
FF801F80
FFC01000
FFE00000
FFE00000
7FF00000
7FF80000
3FFE0000
3FFF0000
1FFF8000
0FFFC000
07FFE000
03FFF000
01FFF800
00FFFC00
003FFE00
001FFF00
000FFF80
0007FFC0
0003FFC0
0001FFE0
0000FFE0
00007FE0
03003FF0
7F003FF0
FF003FF0
FF801FF0
FF801FF0
FF801FF0
FF801FF0
FFC01FF0
7FC03FF0
7FE07FF0
7FFFFFE0
3FFFFFE0
3FFFFFC0
1FFFFFC0
0FFFFF80
07FFFF00
03FFFC00
007FF000
00020000
ENDCHAR
STARTCHAR 015B
ENCODING 347
SWIDTH 405 0
DWIDTH 27 0
BBX 24 57 1 -1
BITMAP
0003FE
0007FC
0007F8
0007F8
0007F0
000FF0
000FE0
000FC0
001FC0
001F80
001F00
003F00
003E00
000000
000000
000000
000000
000800
01FF80
07FFE0
0FFFF0
1FFFF8
1FFFFC
3FFFFC
3FE1FE
3FC0FE
7FC0FE
7FC07E
7FC078
3FE040
3FF000
3FF800
1FFC00
1FFE00
0FFF00
07FF80
03FFE0
01FFF0
00FFF8
007FF8
001FFC
000FFE
0007FE
0003FF
0701FF
1F00FF
FF00FF
7F80FF
7F80FF
7FC1FF
3FFFFE
1FFFFE
1FFFFC
0FFFF8
07FFF0
01FFC0
000800
ENDCHAR
STARTCHAR 015C
ENCODING 348
SWIDTH 495 0
DWIDTH 33 0
BBX 28 72 3 -1
BITMAP
007FC000
007FC000
00FFE000
00FFF000
01FFF000
01FBF800
03FBF800
03F1FC00
07F1FC00
07E0FE00
0FE0FE00
1FC07F00
00000000
00000000
00000000
00000000
00040000
01FFF000
07FFFC00
0FFFFE00
1FFFFF00
3FFFFF80
7FFFFF80
7FFBFFC0
FFC07FC0
FFC07FC0
FF803FE0
FF803FE0
FF801FE0
FF801FE0
FF801FE0
FF801F80
FFC01000
FFE00000
FFE00000
7FF00000
7FF80000
3FFE0000
3FFF0000
1FFF8000
0FFFC000
07FFE000
03FFF000
01FFF800
00FFFC00
003FFE00
001FFF00
000FFF80
0007FFC0
0003FFC0
0001FFE0
0000FFE0
00007FE0
03003FF0
7F003FF0
FF003FF0
FF801FF0
FF801FF0
FF801FF0
FF801FF0
FFC01FF0
7FC03FF0
7FE07FF0
7FFFFFE0
3FFFFFE0
3FFFFFC0
1FFFFFC0
0FFFFF80
07FFFF00
03FFFC00
007FF000
00020000
ENDCHAR
STARTCHAR 015D
ENCODING 349
SWIDTH 405 0
DWIDTH 27 0
BBX 24 56 1 -1
BITMAP
00FF80
00FF80
01FFC0
01FFE0
03FFE0
03F7F0
07F7F0
07E3F8
0FE3F8
0FC1FC
1FC1FC
3F80FE
000000
000000
000000
000000
000800
01FF80
07FFE0
0FFFF0
1FFFF8
1FFFFC
3FFFFC
3FE1FE
3FC0FE
7FC0FE
7FC07E
7FC078
3FE040
3FF000
3FF800
1FFC00
1FFE00
0FFF00
07FF80
03FFE0
01FFF0
00FFF8
007FF8
001FFC
000FFE
0007FE
0003FF
0701FF
1F00FF
FF00FF
7F80FF
7F80FF
7FC1FF
3FFFFE
1FFFFE
1FFFFC
0FFFF8
07FFF0
01FFC0
000800
ENDCHAR
STARTCHAR 015E
ENCODING 350
SWIDTH 495 0
DWIDTH 33 0
BBX 28 73 3 -18
BITMAP
00040000
01FFF000
07FFFC00
0FFFFE00
1FFFFF00
3FFFFF80
7FFFFF80
7FFBFFC0
FFC07FC0
FFC07FC0
FF803FE0
FF803FE0
FF801FE0
FF801FE0
FF801FE0
FF801F80
FFC01000
FFE00000
FFE00000
7FF00000
7FF80000
3FFE0000
3FFF0000
1FFF8000
0FFFC000
07FFE000
03FFF000
01FFF800
00FFFC00
003FFE00
001FFF00
000FFF80
0007FFC0
0003FFC0
0001FFE0
0000FFE0
00007FE0
03003FF0
7F003FF0
FF003FF0
FF801FF0
FF801FF0
FF801FF0
FF801FF0
FFC01FF0
7FC03FF0
7FE07FF0
7FFFFFE0
3FFFFFE0
3FFFFFC0
1FFFFFC0
0FFFFF80
07FFFF00
03FFFC00
007FF000
00020000
00078000
00078000
00078000
00078000
0007C000
0007F800
0007FE00
0001FF00
00007F00
00003F80
00001F80
00003F80
00207F80
001FFF00
001FFE00
001FFC00
000FF000
ENDCHAR
STARTCHAR 015F
ENCODING 351
SWIDTH 405 0
DWIDTH 27 0
BBX 24 57 1 -18
BITMAP
000800
01FF80
07FFE0
0FFFF0
1FFFF8
1FFFFC
3FFFFC
3FE1FE
3FC0FE
7FC0FE
7FC07E
7FC078
3FE040
3FF000
3FF800
1FFC00
1FFE00
0FFF00
07FF80
03FFE0
01FFF0
00FFF8
007FF8
001FFC
000FFE
0007FE
0003FF
0701FF
1F00FF
FF00FF
7F80FF
7F80FF
7FC1FF
3FFFFE
1FFFFE
1FFFFC
0FFFF8
07FFF0
01FFC0
000800
000F00
000F00
000F00
000F00
000F80
000FF0
000FFC
0003FE
0000FE
00007F
00003F
00007F
0040FF
003FFE
003FFC
003FF8
001FE0
ENDCHAR
STARTCHAR 0160
ENCODING 352
SWIDTH 495 0
DWIDTH 33 0
BBX 28 72 3 -1
BITMAP
1FC07F00
0FE07E00
0FE0FE00
07F0FC00
07F1FC00
03F9F800
03FBF800
01FFF000
01FFF000
00FFE000
00FFE000
007FC000
00000000
00000000
00000000
00000000
00040000
01FFF000
07FFFC00
0FFFFE00
1FFFFF00
3FFFFF80
7FFFFF80
7FFBFFC0
FFC07FC0
FFC07FC0
FF803FE0
FF803FE0
FF801FE0
FF801FE0
FF801FE0
FF801F80
FFC01000
FFE00000
FFE00000
7FF00000
7FF80000
3FFE0000
3FFF0000
1FFF8000
0FFFC000
07FFE000
03FFF000
01FFF800
00FFFC00
003FFE00
001FFF00
000FFF80
0007FFC0
0003FFC0
0001FFE0
0000FFE0
00007FE0
03003FF0
7F003FF0
FF003FF0
FF801FF0
FF801FF0
FF801FF0
FF801FF0
FFC01FF0
7FC03FF0
7FE07FF0
7FFFFFE0
3FFFFFE0
3FFFFFC0
1FFFFFC0
0FFFFF80
07FFFF00
03FFFC00
007FF000
00020000
ENDCHAR
STARTCHAR 0161
ENCODING 353
SWIDTH 405 0
DWIDTH 27 0
BBX 24 56 1 -1
BITMAP
3F80FE
1FC0FC
1FC1FC
0FE1F8
0FE3F8
07F3F0
07F7F0
03FFE0
03FFE0
01FFC0
01FFC0
00FF80
000000
000000
000000
000000
000800
01FF80
07FFE0
0FFFF0
1FFFF8
1FFFFC
3FFFFC
3FE1FE
3FC0FE
7FC0FE
7FC07E
7FC078
3FE040
3FF000
3FF800
1FFC00
1FFE00
0FFF00
07FF80
03FFE0
01FFF0
00FFF8
007FF8
001FFC
000FFE
0007FE
0003FF
0701FF
1F00FF
FF00FF
7F80FF
7F80FF
7FC1FF
3FFFFE
1FFFFE
1FFFFC
0FFFF8
07FFF0
01FFC0
000800
ENDCHAR
STARTCHAR 0162
ENCODING 354
SWIDTH 420 0
DWIDTH 28 0
BBX 28 72 0 -18
BITMAP
FFFFFFF0
FFFFFFF0
FFFFFFF0
FFFFFFF0
FFFFFFF0
FFFFFFF0
FFFFFFF0
007FE000
007FE000
007FE000
007FE000
007FE000
007FE000
007FE000
007FE000
007FE000
007FE000
007FE000
007FE000
007FE000
007FE000
007FE000
007FE000
007FE000
007FE000
007FE000
007FE000
007FE000
007FE000
007FE000
007FE000
007FE000
007FE000
007FE000
007FE000
007FE000
007FE000
007FE000
007FE000
007FE000
007FE000
007FE000
007FE000
007FE000
007FE000
007FE000
007FE000
007FE000
007FE000
007FE000
007FE000
007FE000
007FE000
007FE000
00000000
0003C000
0003C000
0003C000
0003C000
0003E000
0003FC00
0003FF00
0000FF80
00003F80
00001FC0
00000FC0
00001FC0
00103FC0
000FFF80
000FFF00
000FFE00
0007F800
ENDCHAR
STARTCHAR 0163
ENCODING 355
SWIDTH 330 0
DWIDTH 22 0
BBX 23 68 1 -18
BITMAP
0FF800
0FF800
0FF800
0FF800
0FF800
0FF800
0FF800
0FF800
0FF800
0FF800
0FF800
0FF800
FFFFE0
FFFFE0
FFFFE0
FFFFE0
FFFFE0
FFFFE0
0FF800
0FF800
0FF800
0FF800
0FF800
0FF800
0FF800
0FF800
0FF800
0FF800
0FF800
0FF800
0FF800
0FF800
0FF800
0FF800
0FF800
0FF800
0FF800
0FF800
0FF800
0FF800
0FF800
0FF800
0FFC00
0FFFF0
07FFF0
07FFF0
07FFF0
03FFF0
01FFF0
00FFF0
000400
001E00
001E00
001E00
001E00
001F00
001FE0
001FF8
0007FC
0001FC
0000FE
00007E
0000FE
0081FE
007FFC
007FF8
007FF0
003FC0
ENDCHAR
STARTCHAR 0164
ENCODING 356
SWIDTH 420 0
DWIDTH 28 0
BBX 28 71 0 0
BITMAP
0FE03F80
07F03F00
07F07F00
03F87E00
03F8FE00
01FCFC00
01FDFC00
00FFF800
00FFF800
007FF000
007FF000
003FE000
00000000
00000000
00000000
00000000
00000000
FFFFFFF0
FFFFFFF0
FFFFFFF0
FFFFFFF0
FFFFFFF0
FFFFFFF0
FFFFFFF0
007FE000
007FE000
007FE000
007FE000
007FE000
007FE000
007FE000
007FE000
007FE000
007FE000
007FE000
007FE000
007FE000
007FE000
007FE000
007FE000
007FE000
007FE000
007FE000
007FE000
007FE000
007FE000
007FE000
007FE000
007FE000
007FE000
007FE000
007FE000
007FE000
007FE000
007FE000
007FE000
007FE000
007FE000
007FE000
007FE000
007FE000
007FE000
007FE000
007FE000
007FE000
007FE000
007FE000
007FE000
007FE000
007FE000
007FE000
ENDCHAR
STARTCHAR 0165
ENCODING 357
SWIDTH 360 0
DWIDTH 24 0
BBX 28 62 1 -1
BITMAP
000007F0
000007F0
000007F0
000007F0
000007F0
000007E0
000007E0
000007E0
000007E0
000007E0
000007C0
0FF807C0
0FF807C0
0FF807C0
0FF807C0
0FF807C0
0FF80780
0FF80780
0FF80000
0FF80000
0FF80000
0FF80000
0FF80000
FFFFE000
FFFFE000
FFFFE000
FFFFE000
FFFFE000
FFFFE000
0FF80000
0FF80000
0FF80000
0FF80000
0FF80000
0FF80000
0FF80000
0FF80000
0FF80000
0FF80000
0FF80000
0FF80000
0FF80000
0FF80000
0FF80000
0FF80000
0FF80000
0FF80000
0FF80000
0FF80000
0FF80000
0FF80000
0FF80000
0FF80000
0FFC0000
0FFFF000
07FFF000
07FFF000
07FFF000
03FFF000
01FFF000
00FFF000
00040000
ENDCHAR
STARTCHAR 0166
ENCODING 358
SWIDTH 420 0
DWIDTH 28 0
BBX 28 54 0 0
BITMAP
FFFFFFF0
FFFFFFF0
FFFFFFF0
FFFFFFF0
FFFFFFF0
FFFFFFF0
FFFFFFF0
007FE000
007FE000
007FE000
007FE000
007FE000
007FE000
007FE000
007FE000
007FE000
007FE000
007FE000
007FE000
007FE000
007FE000
007FE000
007FE000
007FE000
1FFFFFC0
1FFFFFC0
1FFFFFC0
1FFFFFC0
1FFFFFC0
007FE000
007FE000
007FE000
007FE000
007FE000
007FE000
007FE000
007FE000
007FE000
007FE000
007FE000
007FE000
007FE000
007FE000
007FE000
007FE000
007FE000
007FE000
007FE000
007FE000
007FE000
007FE000
007FE000
007FE000
007FE000
ENDCHAR
STARTCHAR 0167
ENCODING 359
SWIDTH 285 0
DWIDTH 19 0
BBX 20 51 1 -1
BITMAP
0FF800
0FF800
0FF800
0FF800
0FF800
0FF800
0FF800
0FF800
0FF800
0FF800
0FF800
0FF800
FFFFE0
FFFFE0
FFFFE0
FFFFE0
FFFFE0
FFFFE0
0FF800
0FF800
0FF800
0FF800
0FF800
0FF800
FFFFF0
FFFFF0
FFFFF0
FFFFF0
0FF800
0FF800
0FF800
0FF800
0FF800
0FF800
0FF800
0FF800
0FF800
0FF800
0FF800
0FF800
0FF800
0FF800
0FFC00
07FFF0
07FFF0
07FFF0
03FFF0
03FFF0
01FFF0
007FF0
000400
ENDCHAR
STARTCHAR 0168
ENCODING 360
SWIDTH 570 0
DWIDTH 38 0
BBX 30 69 4 -1
BITMAP
00400000
03FC0F80
07FF0F80
07FFCF80
0FFFFF80
0FFFFF00
0FFFFF00
0F83FE00
0F807C00
00000000
00000000
00000000
00000000
00000000
FF8007FC
FF8007FC
FF8007FC
FF8007FC
FF8007FC
FF8007FC
FF8007FC
FF8007FC
FF8007FC
FF8007FC
FF8007FC
FF8007FC
FF8007FC
FF8007FC
FF8007FC
FF8007FC
FF8007FC
FF8007FC
FF8007FC
FF8007FC
FF8007FC
FF8007FC
FF8007FC
FF8007FC
FF8007FC
FF8007FC
FF8007FC
FF8007FC
FF8007FC
FF8007FC
FF8007FC
FF8007FC
FF8007FC
FF8007FC
FF8007FC
FF8007FC
FF8007FC
FF8007FC
FF800FFC
FF800FFC
FF800FFC
FF800FFC
FFC00FFC
FFC00FF8
FFC00FF8
7FE01FF8
7FF03FF8
3FFFFFF0
3FFFFFF0
1FFFFFE0
1FFFFFC0
0FFFFF80
03FFFF00
00FFFC00
00020000
ENDCHAR
STARTCHAR 0169
ENCODING 361
SWIDTH 480 0
DWIDTH 32 0
BBX 25 54 3 -1
BITMAP
01000000
0FF03E00
1FFC3E00
1FFF3E00
3FFFFE00
3FFFFC00
3FFFFC00
3E0FF800
3E01F000
00000000
00000000
00000000
00000000
00000000
00000000
FF80FF80
FF80FF80
FF80FF80
FF80FF80
FF80FF80
FF80FF80
FF80FF80
FF80FF80
FF80FF80
FF80FF80
FF80FF80
FF80FF80
FF80FF80
FF80FF80
FF80FF80
FF80FF80
FF80FF80
FF80FF80
FF80FF80
FF80FF80
FF80FF80
FF80FF80
FF80FF80
FF80FF80
FF80FF80
FF80FF80
FF80FF80
FF80FF80
FF80FF80
FF80FF80
FFC0FF80
FFC3FF80
FFFFFF80
7FFFFF80
7FFFFF80
7FFEFF80
3FF8FF80
1FE0FF80
02000000
ENDCHAR
STARTCHAR 016A
ENCODING 362
SWIDTH 570 0
DWIDTH 38 0
BBX 30 64 4 -1
BITMAP
01FFFC00
01FFFC00
01FFFC00
01FFFC00
01FFFC00
00000000
00000000
00000000
00000000
FF8007FC
FF8007FC
FF8007FC
FF8007FC
FF8007FC
FF8007FC
FF8007FC
FF8007FC
FF8007FC
FF8007FC
FF8007FC
FF8007FC
FF8007FC
FF8007FC
FF8007FC
FF8007FC
FF8007FC
FF8007FC
FF8007FC
FF8007FC
FF8007FC
FF8007FC
FF8007FC
FF8007FC
FF8007FC
FF8007FC
FF8007FC
FF8007FC
FF8007FC
FF8007FC
FF8007FC
FF8007FC
FF8007FC
FF8007FC
FF8007FC
FF8007FC
FF8007FC
FF8007FC
FF800FFC
FF800FFC
FF800FFC
FF800FFC
FFC00FFC
FFC00FF8
FFC00FF8
7FE01FF8
7FF03FF8
3FFFFFF0
3FFFFFF0
1FFFFFE0
1FFFFFC0
0FFFFF80
03FFFF00
00FFFC00
00020000
ENDCHAR
STARTCHAR 016B
ENCODING 363
SWIDTH 480 0
DWIDTH 32 0
BBX 25 49 3 -1
BITMAP
07FFF000
07FFF000
07FFF000
07FFF000
07FFF000
00000000
00000000
00000000
00000000
00000000
FF80FF80
FF80FF80
FF80FF80
FF80FF80
FF80FF80
FF80FF80
FF80FF80
FF80FF80
FF80FF80
FF80FF80
FF80FF80
FF80FF80
FF80FF80
FF80FF80
FF80FF80
FF80FF80
FF80FF80
FF80FF80
FF80FF80
FF80FF80
FF80FF80
FF80FF80
FF80FF80
FF80FF80
FF80FF80
FF80FF80
FF80FF80
FF80FF80
FF80FF80
FF80FF80
FFC0FF80
FFC3FF80
FFFFFF80
7FFFFF80
7FFFFF80
7FFEFF80
3FF8FF80
1FE0FF80
02000000
ENDCHAR
STARTCHAR 016C
ENCODING 364
SWIDTH 570 0
DWIDTH 38 0
BBX 30 69 4 -1
BITMAP
07C00F80
03C00F80
03E00F00
03E01F00
03F03F00
01FFFE00
00FFFC00
007FF800
001FE000
00000000
00000000
00000000
00000000
00000000
FF8007FC
FF8007FC
FF8007FC
FF8007FC
FF8007FC
FF8007FC
FF8007FC
FF8007FC
FF8007FC
FF8007FC
FF8007FC
FF8007FC
FF8007FC
FF8007FC
FF8007FC
FF8007FC
FF8007FC
FF8007FC
FF8007FC
FF8007FC
FF8007FC
FF8007FC
FF8007FC
FF8007FC
FF8007FC
FF8007FC
FF8007FC
FF8007FC
FF8007FC
FF8007FC
FF8007FC
FF8007FC
FF8007FC
FF8007FC
FF8007FC
FF8007FC
FF8007FC
FF8007FC
FF800FFC
FF800FFC
FF800FFC
FF800FFC
FFC00FFC
FFC00FF8
FFC00FF8
7FE01FF8
7FF03FF8
3FFFFFF0
3FFFFFF0
1FFFFFE0
1FFFFFC0
0FFFFF80
03FFFF00
00FFFC00
00020000
ENDCHAR
STARTCHAR 016D
ENCODING 365
SWIDTH 480 0
DWIDTH 32 0
BBX 25 54 3 -1
BITMAP
1F003E00
0F003E00
0F803C00
0F807C00
0FC0FC00
07FFF800
03FFF000
01FFE000
007F8000
00000000
00000000
00000000
00000000
00000000
00000000
FF80FF80
FF80FF80
FF80FF80
FF80FF80
FF80FF80
FF80FF80
FF80FF80
FF80FF80
FF80FF80
FF80FF80
FF80FF80
FF80FF80
FF80FF80
FF80FF80
FF80FF80
FF80FF80
FF80FF80
FF80FF80
FF80FF80
FF80FF80
FF80FF80
FF80FF80
FF80FF80
FF80FF80
FF80FF80
FF80FF80
FF80FF80
FF80FF80
FF80FF80
FF80FF80
FFC0FF80
FFC3FF80
FFFFFF80
7FFFFF80
7FFFFF80
7FFEFF80
3FF8FF80
1FE0FF80
02000000
ENDCHAR
STARTCHAR 016E
ENCODING 366
SWIDTH 570 0
DWIDTH 38 0
BBX 30 75 4 -1
BITMAP
00020000
003FE000
007FF000
00FFF800
01FFF800
01F07C00
01E03C00
01E03C00
01E03C00
01E03C00
01E07C00
01F0FC00
00FFF800
00FFF800
003FE000
001FC000
00000000
00000000
00000000
00000000
FF8007FC
FF8007FC
FF8007FC
FF8007FC
FF8007FC
FF8007FC
FF8007FC
FF8007FC
FF8007FC
FF8007FC
FF8007FC
FF8007FC
FF8007FC
FF8007FC
FF8007FC
FF8007FC
FF8007FC
FF8007FC
FF8007FC
FF8007FC
FF8007FC
FF8007FC
FF8007FC
FF8007FC
FF8007FC
FF8007FC
FF8007FC
FF8007FC
FF8007FC
FF8007FC
FF8007FC
FF8007FC
FF8007FC
FF8007FC
FF8007FC
FF8007FC
FF8007FC
FF8007FC
FF800FFC
FF800FFC
FF800FFC
FF800FFC
FFC00FFC
FFC00FF8
FFC00FF8
7FE01FF8
7FF03FF8
3FFFFFF0
3FFFFFF0
1FFFFFE0
1FFFFFC0
0FFFFF80
03FFFF00
00FFFC00
00020000
ENDCHAR
STARTCHAR 016F
ENCODING 367
SWIDTH 480 0
DWIDTH 32 0
BBX 25 60 3 -1
BITMAP
00080000
00FF8000
01FFC000
03FFE000
07FFE000
07C1F000
0780F000
0780F000
0780F000
0780F000
0781F000
07C3F000
03FFE000
03FFE000
00FF8000
007F0000
00000000
00000000
00000000
00000000
00000000
FF80FF80
FF80FF80
FF80FF80
FF80FF80
FF80FF80
FF80FF80
FF80FF80
FF80FF80
FF80FF80
FF80FF80
FF80FF80
FF80FF80
FF80FF80
FF80FF80
FF80FF80
FF80FF80
FF80FF80
FF80FF80
FF80FF80
FF80FF80
FF80FF80
FF80FF80
FF80FF80
FF80FF80
FF80FF80
FF80FF80
FF80FF80
FF80FF80
FF80FF80
FF80FF80
FFC0FF80
FFC3FF80
FFFFFF80
7FFFFF80
7FFFFF80
7FFEFF80
3FF8FF80
1FE0FF80
02000000
ENDCHAR
STARTCHAR 0170
ENCODING 368
SWIDTH 570 0
DWIDTH 38 0
BBX 30 73 4 -1
BITMAP
003FC7FC
003F87F8
003F87F0
003F0FF0
007F0FE0
007E0FE0
007E1FC0
007C1F80
00FC1F80
00F83F00
00F83F00
01F03E00
01F07C00
00000000
00000000
00000000
00000000
00000000
FF8007FC
FF8007FC
FF8007FC
FF8007FC
FF8007FC
FF8007FC
FF8007FC
FF8007FC
FF8007FC
FF8007FC
FF8007FC
FF8007FC
FF8007FC
FF8007FC
FF8007FC
FF8007FC
FF8007FC
FF8007FC
FF8007FC
FF8007FC
FF8007FC
FF8007FC
FF8007FC
FF8007FC
FF8007FC
FF8007FC
FF8007FC
FF8007FC
FF8007FC
FF8007FC
FF8007FC
FF8007FC
FF8007FC
FF8007FC
FF8007FC
FF8007FC
FF8007FC
FF8007FC
FF800FFC
FF800FFC
FF800FFC
FF800FFC
FFC00FFC
FFC00FF8
FFC00FF8
7FE01FF8
7FF03FF8
3FFFFFF0
3FFFFFF0
1FFFFFE0
1FFFFFC0
0FFFFF80
03FFFF00
00FFFC00
00020000
ENDCHAR
STARTCHAR 0171
ENCODING 369
SWIDTH 480 0
DWIDTH 32 0
BBX 28 57 3 -1
BITMAP
00FF1FF0
00FE1FE0
00FE1FC0
00FC3FC0
01FC3F80
01F83F80
01F87F00
01F07E00
03F07E00
03E0FC00
03E0FC00
07C0F800
07C1F000
00000000
00000000
00000000
00000000
00000000
FF80FF80
FF80FF80
FF80FF80
FF80FF80
FF80FF80
FF80FF80
FF80FF80
FF80FF80
FF80FF80
FF80FF80
FF80FF80
FF80FF80
FF80FF80
FF80FF80
FF80FF80
FF80FF80
FF80FF80
FF80FF80
FF80FF80
FF80FF80
FF80FF80
FF80FF80
FF80FF80
FF80FF80
FF80FF80
FF80FF80
FF80FF80
FF80FF80
FF80FF80
FF80FF80
FFC0FF80
FFC3FF80
FFFFFF80
7FFFFF80
7FFFFF80
7FFEFF80
3FF8FF80
1FE0FF80
02000000
ENDCHAR
STARTCHAR 0172
ENCODING 370
SWIDTH 570 0
DWIDTH 38 0
BBX 30 70 4 -16
BITMAP
FF8007FC
FF8007FC
FF8007FC
FF8007FC
FF8007FC
FF8007FC
FF8007FC
FF8007FC
FF8007FC
FF8007FC
FF8007FC
FF8007FC
FF8007FC
FF8007FC
FF8007FC
FF8007FC
FF8007FC
FF8007FC
FF8007FC
FF8007FC
FF8007FC
FF8007FC
FF8007FC
FF8007FC
FF8007FC
FF8007FC
FF8007FC
FF8007FC
FF8007FC
FF8007FC
FF8007FC
FF8007FC
FF8007FC
FF8007FC
FF8007FC
FF8007FC
FF8007FC
FF8007FC
FF800FFC
FF800FFC
FF800FFC
FF800FFC
FFC00FFC
FFC00FF8
FFC00FF8
7FE01FF8
7FF03FF8
3FFFFFF0
3FFFFFF0
1FFFFFE0
1FFFFFC0
0FFFFF80
03FFFF00
00FFFC00
000F8000
003F0000
007F0000
007E0000
00FE0000
00FC0000
01FC0000
01F80000
01F80000
01F80000
01F80000
01FE0000
01FFF000
00FFF000
007FE000
001FE000
ENDCHAR
STARTCHAR 0173
ENCODING 371
SWIDTH 480 0
DWIDTH 32 0
BBX 25 54 3 -16
BITMAP
FF80FF80
FF80FF80
FF80FF80
FF80FF80
FF80FF80
FF80FF80
FF80FF80
FF80FF80
FF80FF80
FF80FF80
FF80FF80
FF80FF80
FF80FF80
FF80FF80
FF80FF80
FF80FF80
FF80FF80
FF80FF80
FF80FF80
FF80FF80
FF80FF80
FF80FF80
FF80FF80
FF80FF80
FF80FF80
FF80FF80
FF80FF80
FF80FF80
FF80FF80
FF80FF80
FFC0FF80
FFC3FF80
FFFFFF80
7FFFFF80
7FFFFF80
7FFEFF80
3FF8FF80
1FE0FF80
02007C00
0001F800
0003F800
0003F000
0007F000
0007E000
000FE000
000FC000
000FC000
000FC000
000FC000
000FF000
000FFF80
0007FF80
0003FF00
0000FF00
ENDCHAR
STARTCHAR 0174
ENCODING 372
SWIDTH 720 0
DWIDTH 48 0
BBX 44 71 2 0
BITMAP
00007FC00000
00007FC00000
0000FFE00000
0000FFF00000
0001FFF00000
0001FBF80000
0003FBF80000
0003F1FC0000
0007F1FC0000
0007E0FE0000
000FE0FE0000
001FC07F0000
000000000000
000000000000
000000000000
000000000000
000000000000
FF801F800FF0
FF801FC00FF0
7F801FC01FF0
7F801FC01FE0
7F803FC01FE0
7F803FC01FE0
7F803FE01FE0
7F803FE01FE0
7FC03FE01FE0
3FC03FE01FE0
3FC07FE03FC0
3FC07FE03FC0
3FC07FF03FC0
3FC07FF03FC0
3FC07FF03FC0
3FC0FFF03FC0
1FE0FFF03FC0
1FE0FFF87F80
1FE0FFF87F80
1FE0FFF87F80
1FE0FFF87F80
1FE1FFF87F80
1FE1FBFC7F80
0FE1F9FC7F80
0FF1F9FC7F00
0FF1F9FCFF00
0FF3F9FCFF00
0FF3F1FCFF00
0FF3F0FEFF00
0FF3F0FEFF00
07F3F0FEFF00
07FBF0FEFE00
07FFE0FEFE00
07FFE0FFFE00
07FFE07FFE00
07FFE07FFE00
07FFE07FFE00
03FFE07FFE00
03FFC07FFC00
03FFC03FFC00
03FFC03FFC00
03FFC03FFC00
03FFC03FFC00
03FF803FFC00
01FF801FFC00
01FF801FF800
01FF801FF800
01FF801FF800
01FF801FF800
01FF001FF800
01FF000FF800
00FF000FF800
00FF000FF000
00FF000FF000
ENDCHAR
STARTCHAR 0175
ENCODING 373
SWIDTH 600 0
DWIDTH 40 0
BBX 36 55 2 0
BITMAP
0007FC0000
0007FC0000
000FFE0000
000FFF0000
001FFF0000
001FBF8000
003FBF8000
003F1FC000
007F1FC000
007E0FE000
00FE0FE000
01FC07F000
0000000000
0000000000
0000000000
0000000000
0000000000
FE01F807F0
FE01FC07F0
FF01FC07F0
FF03FC0FF0
FF03FC0FE0
7F03FC0FE0
7F03FC0FE0
7F03FE0FE0
7F03FE0FE0
7F87FE1FE0
7F87FE1FC0
7F87FE1FC0
3F87FE1FC0
3F87FF1FC0
3F8FFF1FC0
3FCFFF1FC0
3FCFFF3F80
3FCF9F3F80
1FCF9F3F80
1FDF9F3F80
1FDF9FBF80
1FDF9FBF80
1FFF1FBF80
1FFF0FFF00
0FFF0FFF00
0FFF0FFF00
0FFF0FFF00
0FFE0FFF00
0FFE07FF00
0FFE07FE00
0FFE07FE00
07FE07FE00
07FC07FE00
07FC07FE00
07FC03FE00
07FC03FC00
07FC03FC00
03F803FC00
ENDCHAR
STARTCHAR 0176
ENCODING 374
SWIDTH 495 0
DWIDTH 33 0
BBX 31 71 1 0
BITMAP
001FF000
001FF000
003FF800
003FFC00
007FFC00
007EFE00
00FEFE00
00FC7F00
01FC7F00
01F83F80
03F83F80
07F01FC0
00000000
00000000
00000000
00000000
00000000
FF8003FE
FF8003FE
FFC007FC
7FC007FC
7FC007FC
7FE00FF8
3FE00FF8
3FE00FF8
3FF01FF0
1FF01FF0
1FF01FF0
1FF81FE0
0FF83FE0
0FF83FC0
0FFC3FC0
07FC7FC0
07FC7F80
07FE7F80
03FEFF80
03FEFF00
03FFFF00
01FFFF00
01FFFE00
01FFFE00
00FFFE00
00FFFC00
00FFFC00
007FFC00
007FF800
007FF800
003FF800
003FF000
003FF000
001FF000
001FF000
001FF000
001FF000
001FF000
001FF000
001FF000
001FF000
001FF000
001FF000
001FF000
001FF000
001FF000
001FF000
001FF000
001FF000
001FF000
001FF000
001FF000
001FF000
001FF000
ENDCHAR
STARTCHAR 0177
ENCODING 375
SWIDTH 420 0
DWIDTH 28 0
BBX 27 65 0 -11
BITMAP
007FC000
007FC000
00FFE000
00FFF000
01FFF000
01FBF800
03FBF800
03F1FC00
07F1FC00
07E0FE00
0FE0FE00
1FC07F00
00000000
00000000
00000000
00000000
00000000
FF801FE0
7FC01FE0
7FC03FE0
7FC03FE0
3FC03FC0
3FC03FC0
3FE03FC0
3FE07FC0
1FE07F80
1FE07F80
1FE07F80
1FF07F80
0FF07F00
0FF0FF00
0FF0FF00
0FF0FF00
07F8FE00
07F8FE00
07F9FE00
07F9FE00
03F9FC00
03F9FC00
03FDFC00
03FDFC00
01FFF800
01FFF800
01FFF800
00FFF800
00FFF000
00FFF000
00FFF000
007FF000
007FE000
007FE000
007FE000
003FE000
003FC000
003FC000
003FC000
003FC000
003FC000
007FC000
0FFF8000
0FFF8000
0FFF0000
0FFE0000
0FFC0000
0FE00000
ENDCHAR
STARTCHAR 0178
ENCODING 376
SWIDTH 495 0
DWIDTH 33 0
BBX 31 67 1 0
BITMAP
0FF87F80
0FF87F80
0FF87F80
0FF87F80
0FF87F80
0FF87F80
0FF87F80
0FF87F80
0FF87F80
00000000
00000000
00000000
00000000
FF8003FE
FF8003FE
FFC007FC
7FC007FC
7FC007FC
7FE00FF8
3FE00FF8
3FE00FF8
3FF01FF0
1FF01FF0
1FF01FF0
1FF81FE0
0FF83FE0
0FF83FC0
0FFC3FC0
07FC7FC0
07FC7F80
07FE7F80
03FEFF80
03FEFF00
03FFFF00
01FFFF00
01FFFE00
01FFFE00
00FFFE00
00FFFC00
00FFFC00
007FFC00
007FF800
007FF800
003FF800
003FF000
003FF000
001FF000
001FF000
001FF000
001FF000
001FF000
001FF000
001FF000
001FF000
001FF000
001FF000
001FF000
001FF000
001FF000
001FF000
001FF000
001FF000
001FF000
001FF000
001FF000
001FF000
001FF000
ENDCHAR
STARTCHAR 0179
ENCODING 377
SWIDTH 420 0
DWIDTH 28 0
BBX 25 72 2 0
BITMAP
0003FE00
0007FC00
0007F800
0007F800
0007F000
000FF000
000FE000
000FC000
001FC000
001F8000
001F0000
003F0000
003E0000
00000000
00000000
00000000
00000000
00000000
7FFFFF80
7FFFFF80
7FFFFF80
7FFFFF80
7FFFFF80
7FFFFF80
0001FF00
0003FF00
0003FE00
0003FE00
0007FE00
0007FC00
0007FC00
000FFC00
000FF800
000FF800
001FF800
001FF000
001FF000
003FF000
003FE000
003FE000
007FE000
007FC000
00FFC000
00FFC000
00FF8000
01FF8000
01FF0000
01FF0000
03FF0000
03FE0000
03FE0000
07FE0000
07FC0000
07FC0000
0FFC0000
0FF80000
0FF80000
1FF80000
1FF00000
1FF00000
3FF00000
3FE00000
3FE00000
7FE00000
7FC00000
7FC00000
FFFFFF80
FFFFFF80
FFFFFF80
FFFFFF80
FFFFFF80
FFFFFF80
ENDCHAR
STARTCHAR 017A
ENCODING 378
SWIDTH 375 0
DWIDTH 25 0
BBX 21 56 2 0
BITMAP
000FF8
001FF0
001FE0
001FE0
001FC0
003FC0
003F80
003F00
007F00
007E00
007C00
00FC00
00F800
000000
000000
000000
000000
000000
7FFFF8
7FFFF8
7FFFF8
7FFFF8
7FFFF8
7FFFF8
001FF0
001FF0
003FF0
003FE0
003FE0
007FC0
007FC0
00FF80
00FF80
01FF00
01FF00
01FF00
03FE00
03FE00
07FC00
07FC00
0FF800
0FF800
0FF800
1FF000
1FF000
3FE000
3FE000
7FC000
7FC000
7FC000
FFFFF8
FFFFF8
FFFFF8
FFFFF8
FFFFF8
FFFFF8
ENDCHAR
STARTCHAR 017B
ENCODING 379
SWIDTH 420 0
DWIDTH 28 0
BBX 25 68 2 0
BITMAP
00FF8000
00FF8000
00FF8000
00FF8000
00FF8000
00FF8000
00FF8000
00FF8000
00FF8000
00000000
00000000
00000000
00000000
00000000
7FFFFF80
7FFFFF80
7FFFFF80
7FFFFF80
7FFFFF80
7FFFFF80
0001FF00
0003FF00
0003FE00
0003FE00
0007FE00
0007FC00
0007FC00
000FFC00
000FF800
000FF800
001FF800
001FF000
001FF000
003FF000
003FE000
003FE000
007FE000
007FC000
00FFC000
00FFC000
00FF8000
01FF8000
01FF0000
01FF0000
03FF0000
03FE0000
03FE0000
07FE0000
07FC0000
07FC0000
0FFC0000
0FF80000
0FF80000
1FF80000
1FF00000
1FF00000
3FF00000
3FE00000
3FE00000
7FE00000
7FC00000
7FC00000
FFFFFF80
FFFFFF80
FFFFFF80
FFFFFF80
FFFFFF80
FFFFFF80
ENDCHAR
STARTCHAR 017C
ENCODING 380
SWIDTH 375 0
DWIDTH 25 0
BBX 21 52 2 0
BITMAP
03FE00
03FE00
03FE00
03FE00
03FE00
03FE00
03FE00
03FE00
03FE00
000000
000000
000000
000000
000000
7FFFF8
7FFFF8
7FFFF8
7FFFF8
7FFFF8
7FFFF8
001FF0
001FF0
003FF0
003FE0
003FE0
007FC0
007FC0
00FF80
00FF80
01FF00
01FF00
01FF00
03FE00
03FE00
07FC00
07FC00
0FF800
0FF800
0FF800
1FF000
1FF000
3FE000
3FE000
7FC000
7FC000
7FC000
FFFFF8
FFFFF8
FFFFF8
FFFFF8
FFFFF8
FFFFF8
ENDCHAR
STARTCHAR 017D
ENCODING 381
SWIDTH 420 0
DWIDTH 28 0
BBX 25 71 2 0
BITMAP
3F80FE00
1FC0FC00
1FC1FC00
0FE1F800
0FE3F800
07F3F000
07F7F000
03FFE000
03FFE000
01FFC000
01FFC000
00FF8000
00000000
00000000
00000000
00000000
00000000
7FFFFF80
7FFFFF80
7FFFFF80
7FFFFF80
7FFFFF80
7FFFFF80
0001FF00
0003FF00
0003FE00
0003FE00
0007FE00
0007FC00
0007FC00
000FFC00
000FF800
000FF800
001FF800
001FF000
001FF000
003FF000
003FE000
003FE000
007FE000
007FC000
00FFC000
00FFC000
00FF8000
01FF8000
01FF0000
01FF0000
03FF0000
03FE0000
03FE0000
07FE0000
07FC0000
07FC0000
0FFC0000
0FF80000
0FF80000
1FF80000
1FF00000
1FF00000
3FF00000
3FE00000
3FE00000
7FE00000
7FC00000
7FC00000
FFFFFF80
FFFFFF80
FFFFFF80
FFFFFF80
FFFFFF80
FFFFFF80
ENDCHAR
STARTCHAR 017E
ENCODING 382
SWIDTH 375 0
DWIDTH 25 0
BBX 21 55 2 0
BITMAP
FE03F8
7F03F0
7F07F0
3F87E0
3F8FE0
1FCFC0
1FDFC0
0FFF80
0FFF80
07FF00
07FF00
03FE00
000000
000000
000000
000000
000000
7FFFF8
7FFFF8
7FFFF8
7FFFF8
7FFFF8
7FFFF8
001FF0
001FF0
003FF0
003FE0
003FE0
007FC0
007FC0
00FF80
00FF80
01FF00
01FF00
01FF00
03FE00
03FE00
07FC00
07FC00
0FF800
0FF800
0FF800
1FF000
1FF000
3FE000
3FE000
7FC000
7FC000
7FC000
FFFFF8
FFFFF8
FFFFF8
FFFFF8
FFFFF8
FFFFF8
ENDCHAR
STARTCHAR 0192
ENCODING 402
SWIDTH 420 0
DWIDTH 28 0
BBX 26 61 1 -10
BITMAP
00007FC0
0003FFC0
0007FFC0
000FFF80
000FFF80
001FFF80
001FFC80
001FF000
001FF000
003FF000
003FE000
003FE000
003FE000
003FE000
07FFFF00
07FFFF00
07FFFF00
07FFFF00
07FFFF00
07FFFF00
007FC000
007FC000
007FC000
007FC000
007FC000
007FC000
007FC000
00FFC000
00FF8000
00FF8000
00FF8000
00FF8000
00FF8000
00FF8000
00FF8000
00FF8000
00FF0000
01FF0000
01FF0000
01FF0000
01FF0000
01FF0000
01FF0000
01FF0000
01FF0000
01FE0000
01FE0000
03FE0000
03FE0000
03FE0000
03FE0000
03FE0000
03FE0000
07FE0000
07FE0000
FFFC0000
FFFC0000
FFF80000
FFF80000
FFF00000
FFC00000
ENDCHAR
STARTCHAR 01C4
ENCODING 452
SWIDTH 990 0
DWIDTH 66 0
BBX 60 71 4 0
BITMAP
0000000007F01FC0
0000000003F81F80
0000000003F83F80
0000000001FC3F00
0000000001FC7F00
0000000000FE7E00
0000000000FEFE00
00000000007FFC00
00000000007FFC00
00000000003FF800
00000000003FF800
00000000001FF000
0000000000000000
0000000000000000
0000000000000000
0000000000000000
0000000000000000
FFFFE0000FFFFFF0
FFFFFC000FFFFFF0
FFFFFF000FFFFFF0
FFFFFFC00FFFFFF0
FFFFFFE00FFFFFF0
FFFFFFE00FFFFFF0
FFFFFFF000003FE0
FFC07FF000007FE0
FFC03FF800007FC0
FFC01FF800007FC0
FFC01FF80000FFC0
FFC00FF80000FF80
FFC00FFC0000FF80
FFC00FFC0001FF80
FFC00FFC0001FF00
FFC00FFC0001FF00
FFC00FFC0003FF00
FFC00FFC0003FE00
FFC00FFC0003FE00
FFC00FFC0007FE00
FFC00FFC0007FC00
FFC00FFC0007FC00
FFC00FFC000FFC00
FFC00FFC000FF800
FFC00FFC001FF800
FFC00FFC001FF800
FFC00FFC001FF000
FFC00FFC003FF000
FFC00FFC003FE000
FFC00FFC003FE000
FFC00FFC007FE000
FFC00FFC007FC000
FFC00FFC007FC000
FFC00FFC00FFC000
FFC00FFC00FF8000
FFC00FFC00FF8000
FFC00FFC01FF8000
FFC00FFC01FF0000
FFC00FFC01FF0000
FFC00FFC03FF0000
FFC00FFC03FE0000
FFC00FFC03FE0000
FFC00FF807FE0000
FFC01FF807FC0000
FFC01FF807FC0000
FFC03FF80FFC0000
FFC03FF00FF80000
FFC3FFF00FF80000
FFFFFFE01FFFFFF0
FFFFFFC01FFFFFF0
FFFFFF801FFFFFF0
FFFFFF001FFFFFF0
FFFFFC001FFFFFF0
FFFFE0001FFFFFF0
ENDCHAR
STARTCHAR 01C5
ENCODING 453
SWIDTH 930 0
DWIDTH 62 0
BBX 56 55 4 0
BITMAP
000000001FC07F
FFFFE0000FE07E
FFFFFC000FE0FE
FFFFFF0007F0FC
FFFFFFC007F1FC
FFFFFFE003F9F8
FFFFFFE003FBF8
FFFFFFF001FFF0
FFC07FF001FFF0
FFC03FF800FFE0
FFC01FF800FFE0
FFC01FF8007FC0
FFC00FF8000000
FFC00FFC000000
FFC00FFC000000
FFC00FFC000000
FFC00FFC000000
FFC00FFC0FFFFF
FFC00FFC0FFFFF
FFC00FFC0FFFFF
FFC00FFC0FFFFF
FFC00FFC0FFFFF
FFC00FFC0FFFFF
FFC00FFC0003FE
FFC00FFC0003FE
FFC00FFC0007FE
FFC00FFC0007FC
FFC00FFC0007FC
FFC00FFC000FF8
FFC00FFC000FF8
FFC00FFC001FF0
FFC00FFC001FF0
FFC00FFC003FE0
FFC00FFC003FE0
FFC00FFC003FE0
FFC00FFC007FC0
FFC00FFC007FC0
FFC00FFC00FF80
FFC00FFC00FF80
FFC00FFC01FF00
FFC00FFC01FF00
FFC00FFC01FF00
FFC00FFC03FE00
FFC00FF803FE00
FFC01FF807FC00
FFC01FF807FC00
FFC03FF80FF800
FFC03FF00FF800
FFC3FFF00FF800
FFFFFFE01FFFFF
FFFFFFC01FFFFF
FFFFFF801FFFFF
FFFFFF001FFFFF
FFFFFC001FFFFF
FFFFE0001FFFFF
ENDCHAR
STARTCHAR 01C6
ENCODING 454
SWIDTH 840 0
DWIDTH 56 0
BBX 52 56 3 -1
BITMAP
00000001FC07F0
0000FF80FE07E0
0000FF80FE0FE0
0000FF807F0FC0
0000FF807F1FC0
0000FF803F9F80
0000FF803FBF80
0000FF801FFF00
0000FF801FFF00
0000FF800FFE00
0000FF800FFE00
0000FF8007FC00
0000FF80000000
0000FF80000000
0000FF80000000
0000FF80000000
0040FF80000000
07F8FF80FFFFF0
0FFEFF80FFFFF0
1FFFFF80FFFFF0
3FFFFF80FFFFF0
7FFFFF80FFFFF0
7FFFFF80FFFFF0
7FE1FF80003FE0
FFC0FF80003FE0
FF80FF80007FE0
FF80FF80007FC0
FF80FF80007FC0
FF80FF8000FF80
FF80FF8000FF80
FF80FF8001FF00
FF80FF8001FF00
FF80FF8003FE00
FF80FF8003FE00
FF80FF8003FE00
FF80FF8007FC00
FF80FF8007FC00
FF80FF800FF800
FF80FF800FF800
FF80FF801FF000
FF80FF801FF000
FF80FF801FF000
FF80FF803FE000
FF80FF803FE000
FF80FF807FC000
FF80FF807FC000
FF80FF80FF8000
FFC0FF80FF8000
7FE1FF80FF8000
7FFFFF81FFFFF0
7FFFFF81FFFFF0
3FFFFF81FFFFF0
3FFFFF81FFFFF0
1FFEFF81FFFFF0
07F8FF81FFFFF0
00400000000000
ENDCHAR
STARTCHAR 01C7
ENCODING 455
SWIDTH 750 0
DWIDTH 50 0
BBX 42 55 4 -1
BITMAP
FFC00000FFC0
FFC00000FFC0
FFC00000FFC0
FFC00000FFC0
FFC00000FFC0
FFC00000FFC0
FFC00000FFC0
FFC00000FFC0
FFC00000FFC0
FFC00000FFC0
FFC00000FFC0
FFC00000FFC0
FFC00000FFC0
FFC00000FFC0
FFC00000FFC0
FFC00000FFC0
FFC00000FFC0
FFC00000FFC0
FFC00000FFC0
FFC00000FFC0
FFC00000FFC0
FFC00000FFC0
FFC00000FFC0
FFC00000FFC0
FFC00000FFC0
FFC00000FFC0
FFC00000FFC0
FFC00000FFC0
FFC00000FFC0
FFC00000FFC0
FFC00000FFC0
FFC00000FFC0
FFC00000FFC0
FFC00000FFC0
FFC00000FFC0
FFC00000FFC0
FFC00000FFC0
FFC00000FFC0
FFC00000FFC0
FFC00000FFC0
FFC00000FFC0
FFC00000FFC0
FFC00000FFC0
FFC00000FFC0
FFC00000FFC0
FFC00001FF80
FFC00001FF80
FFC00007FF80
FFFFFE7FFF80
FFFFFE7FFF00
FFFFFE7FFF00
FFFFFE7FFE00
FFFFFE7FFC00
FFFFFE7FF000
000000780000
ENDCHAR
STARTCHAR 01C8
ENCODING 456
SWIDTH 675 0
DWIDTH 45 0
BBX 38 65 4 -11
BITMAP
FFC0000000
FFC0000000
FFC0000FFC
FFC0000FFC
FFC0000FFC
FFC0000FFC
FFC0000FFC
FFC0000FFC
FFC0000FFC
FFC0000FFC
FFC0000000
FFC0000000
FFC0000000
FFC0000000
FFC0000000
FFC0000000
FFC0000FFC
FFC0000FFC
FFC0000FFC
FFC0000FFC
FFC0000FFC
FFC0000FFC
FFC0000FFC
FFC0000FFC
FFC0000FFC
FFC0000FFC
FFC0000FFC
FFC0000FFC
FFC0000FFC
FFC0000FFC
FFC0000FFC
FFC0000FFC
FFC0000FFC
FFC0000FFC
FFC0000FFC
FFC0000FFC
FFC0000FFC
FFC0000FFC
FFC0000FFC
FFC0000FFC
FFC0000FFC
FFC0000FFC
FFC0000FFC
FFC0000FFC
FFC0000FFC
FFC0000FFC
FFC0000FFC
FFC0000FFC
FFFFFE0FFC
FFFFFE0FFC
FFFFFE0FFC
FFFFFE0FFC
FFFFFE0FFC
FFFFFE0FFC
0000000FFC
0000000FFC
0000000FF8
0000000FF8
0000013FF8
000001FFF8
000001FFF0
000001FFF0
000001FFE0
000001FFC0
000001FE00
ENDCHAR
STARTCHAR 01C9
ENCODING 457
SWIDTH 510 0
DWIDTH 34 0
BBX 27 65 4 -11
BITMAP
FF800000
FF800000
FF807FE0
FF807FE0
FF807FE0
FF807FE0
FF807FE0
FF807FE0
FF807FE0
FF807FE0
FF800000
FF800000
FF800000
FF800000
FF800000
FF800000
FF807FE0
FF807FE0
FF807FE0
FF807FE0
FF807FE0
FF807FE0
FF807FE0
FF807FE0
FF807FE0
FF807FE0
FF807FE0
FF807FE0
FF807FE0
FF807FE0
FF807FE0
FF807FE0
FF807FE0
FF807FE0
FF807FE0
FF807FE0
FF807FE0
FF807FE0
FF807FE0
FF807FE0
FF807FE0
FF807FE0
FF807FE0
FF807FE0
FF807FE0
FF807FE0
FF807FE0
FF807FE0
FF807FE0
FF807FE0
FF807FE0
FF807FE0
FF807FE0
FF807FE0
00007FE0
00007FE0
00007FC0
00007FC0
0009FFC0
000FFFC0
000FFF80
000FFF80
000FFF00
000FFE00
000FF000
ENDCHAR
STARTCHAR 01CA
ENCODING 458
SWIDTH 870 0
DWIDTH 58 0
BBX 50 55 4 -1
BITMAP
FE000FF000FFC0
FF000FF000FFC0
FF000FF000FFC0
FF000FF000FFC0
FF800FF000FFC0
FF800FF000FFC0
FFC00FF000FFC0
FFC00FF000FFC0
FFE00FF000FFC0
FFE00FF000FFC0
FFF00FF000FFC0
FFF00FF000FFC0
FFF00FF000FFC0
FFF80FF000FFC0
FFF80FF000FFC0
FFFC0FF000FFC0
FFFC0FF000FFC0
FFFE0FF000FFC0
FFFE0FF000FFC0
FFFF0FF000FFC0
FFFF0FF000FFC0
FFFF0FF000FFC0
FFFF8FF000FFC0
FF7F8FF000FFC0
FF7FCFF000FFC0
FF7FCFF000FFC0
FF3FEFF000FFC0
FF3FEFF000FFC0
FF1FFFF000FFC0
FF1FFFF000FFC0
FF0FFFF000FFC0
FF0FFFF000FFC0
FF07FFF000FFC0
FF07FFF000FFC0
FF07FFF000FFC0
FF03FFF000FFC0
FF03FFF000FFC0
FF01FFF000FFC0
FF01FFF000FFC0
FF00FFF000FFC0
FF00FFF000FFC0
FF00FFF000FFC0
FF007FF000FFC0
FF007FF000FFC0
FF003FF000FFC0
FF003FF001FF80
FF001FF001FF80
FF001FF007FF80
FF001FF07FFF80
FF000FF07FFF00
FF000FF07FFF00
FF0007F07FFE00
FF0007F07FFC00
FF0003F07FF000
00000000780000
ENDCHAR
STARTCHAR 01CB
ENCODING 459
SWIDTH 795 0
DWIDTH 53 0
BBX 46 65 4 -11
BITMAP
FE000FF00000
FF000FF00000
FF000FF00FFC
FF000FF00FFC
FF800FF00FFC
FF800FF00FFC
FFC00FF00FFC
FFC00FF00FFC
FFE00FF00FFC
FFE00FF00FFC
FFF00FF00000
FFF00FF00000
FFF00FF00000
FFF80FF00000
FFF80FF00000
FFFC0FF00000
FFFC0FF00FFC
FFFE0FF00FFC
FFFE0FF00FFC
FFFF0FF00FFC
FFFF0FF00FFC
FFFF0FF00FFC
FFFF8FF00FFC
FF7F8FF00FFC
FF7FCFF00FFC
FF7FCFF00FFC
FF3FEFF00FFC
FF3FEFF00FFC
FF1FFFF00FFC
FF1FFFF00FFC
FF0FFFF00FFC
FF0FFFF00FFC
FF07FFF00FFC
FF07FFF00FFC
FF07FFF00FFC
FF03FFF00FFC
FF03FFF00FFC
FF01FFF00FFC
FF01FFF00FFC
FF00FFF00FFC
FF00FFF00FFC
FF00FFF00FFC
FF007FF00FFC
FF007FF00FFC
FF003FF00FFC
FF003FF00FFC
FF001FF00FFC
FF001FF00FFC
FF001FF00FFC
FF000FF00FFC
FF000FF00FFC
FF0007F00FFC
FF0007F00FFC
FF0003F00FFC
000000000FFC
000000000FFC
000000000FF8
000000000FF8
000000013FF8
00000001FFF8
00000001FFF0
00000001FFF0
00000001FFE0
00000001FFC0
00000001FE00
ENDCHAR
STARTCHAR 01CC
ENCODING 460
SWIDTH 735 0
DWIDTH 49 0
BBX 43 63 3 -11
BITMAP
000000007FE0
000000007FE0
000000007FE0
000000007FE0
000000007FE0
000000007FE0
000000007FE0
000000007FE0
000000000000
000000000000
000000000000
000000000000
000000000000
000010000000
FFC3FE007FE0
FFCFFF007FE0
FFDFFF007FE0
FFFFFF807FE0
FFFFFF807FE0
FFFFFF807FE0
FFF0FF807FE0
FFC0FF807FE0
FFC0FF807FE0
FFC0FF807FE0
FFC0FF807FE0
FFC0FF807FE0
FFC0FF807FE0
FFC0FF807FE0
FFC0FF807FE0
FFC0FF807FE0
FFC0FF807FE0
FFC0FF807FE0
FFC0FF807FE0
FFC0FF807FE0
FFC0FF807FE0
FFC0FF807FE0
FFC0FF807FE0
FFC0FF807FE0
FFC0FF807FE0
FFC0FF807FE0
FFC0FF807FE0
FFC0FF807FE0
FFC0FF807FE0
FFC0FF807FE0
FFC0FF807FE0
FFC0FF807FE0
FFC0FF807FE0
FFC0FF807FE0
FFC0FF807FE0
FFC0FF807FE0
FFC0FF807FE0
FFC0FF807FE0
000000007FE0
000000007FE0
000000007FC0
000000007FC0
00000009FFC0
0000000FFFC0
0000000FFF80
0000000FFF80
0000000FFF00
0000000FFE00
0000000FF000
ENDCHAR
STARTCHAR 01F1
ENCODING 497
SWIDTH 990 0
DWIDTH 66 0
BBX 60 54 4 0
BITMAP
FFFFE0000FFFFFF0
FFFFFC000FFFFFF0
FFFFFF000FFFFFF0
FFFFFFC00FFFFFF0
FFFFFFE00FFFFFF0
FFFFFFE00FFFFFF0
FFFFFFF000003FE0
FFC07FF000007FE0
FFC03FF800007FC0
FFC01FF800007FC0
FFC01FF80000FFC0
FFC00FF80000FF80
FFC00FFC0000FF80
FFC00FFC0001FF80
FFC00FFC0001FF00
FFC00FFC0001FF00
FFC00FFC0003FF00
FFC00FFC0003FE00
FFC00FFC0003FE00
FFC00FFC0007FE00
FFC00FFC0007FC00
FFC00FFC0007FC00
FFC00FFC000FFC00
FFC00FFC000FF800
FFC00FFC001FF800
FFC00FFC001FF800
FFC00FFC001FF000
FFC00FFC003FF000
FFC00FFC003FE000
FFC00FFC003FE000
FFC00FFC007FE000
FFC00FFC007FC000
FFC00FFC007FC000
FFC00FFC00FFC000
FFC00FFC00FF8000
FFC00FFC00FF8000
FFC00FFC01FF8000
FFC00FFC01FF0000
FFC00FFC01FF0000
FFC00FFC03FF0000
FFC00FFC03FE0000
FFC00FFC03FE0000
FFC00FF807FE0000
FFC01FF807FC0000
FFC01FF807FC0000
FFC03FF80FFC0000
FFC03FF00FF80000
FFC3FFF00FF80000
FFFFFFE01FFFFFF0
FFFFFFC01FFFFFF0
FFFFFF801FFFFFF0
FFFFFF001FFFFFF0
FFFFFC001FFFFFF0
FFFFE0001FFFFFF0
ENDCHAR
STARTCHAR 01F2
ENCODING 498
SWIDTH 930 0
DWIDTH 62 0
BBX 56 54 4 0
BITMAP
FFFFE000000000
FFFFFC00000000
FFFFFF00000000
FFFFFFC0000000
FFFFFFE0000000
FFFFFFE0000000
FFFFFFF0000000
FFC07FF0000000
FFC03FF8000000
FFC01FF8000000
FFC01FF8000000
FFC00FF8000000
FFC00FFC000000
FFC00FFC000000
FFC00FFC000000
FFC00FFC000000
FFC00FFC0FFFFF
FFC00FFC0FFFFF
FFC00FFC0FFFFF
FFC00FFC0FFFFF
FFC00FFC0FFFFF
FFC00FFC0FFFFF
FFC00FFC0003FE
FFC00FFC0003FE
FFC00FFC0007FE
FFC00FFC0007FC
FFC00FFC0007FC
FFC00FFC000FF8
FFC00FFC000FF8
FFC00FFC001FF0
FFC00FFC001FF0
FFC00FFC003FE0
FFC00FFC003FE0
FFC00FFC003FE0
FFC00FFC007FC0
FFC00FFC007FC0
FFC00FFC00FF80
FFC00FFC00FF80
FFC00FFC01FF00
FFC00FFC01FF00
FFC00FFC01FF00
FFC00FFC03FE00
FFC00FF803FE00
FFC01FF807FC00
FFC01FF807FC00
FFC03FF80FF800
FFC03FF00FF800
FFC3FFF00FF800
FFFFFFE01FFFFF
FFFFFFC01FFFFF
FFFFFF801FFFFF
FFFFFF001FFFFF
FFFFFC001FFFFF
FFFFE0001FFFFF
ENDCHAR
STARTCHAR 01F3
ENCODING 499
SWIDTH 840 0
DWIDTH 56 0
BBX 52 55 3 -1
BITMAP
0000FF80000000
0000FF80000000
0000FF80000000
0000FF80000000
0000FF80000000
0000FF80000000
0000FF80000000
0000FF80000000
0000FF80000000
0000FF80000000
0000FF80000000
0000FF80000000
0000FF80000000
0000FF80000000
0000FF80000000
0040FF80000000
07F8FF80FFFFF0
0FFEFF80FFFFF0
1FFFFF80FFFFF0
3FFFFF80FFFFF0
7FFFFF80FFFFF0
7FFFFF80FFFFF0
7FE1FF80003FE0
FFC0FF80003FE0
FF80FF80007FE0
FF80FF80007FC0
FF80FF80007FC0
FF80FF8000FF80
FF80FF8000FF80
FF80FF8001FF00
FF80FF8001FF00
FF80FF8003FE00
FF80FF8003FE00
FF80FF8003FE00
FF80FF8007FC00
FF80FF8007FC00
FF80FF800FF800
FF80FF800FF800
FF80FF801FF000
FF80FF801FF000
FF80FF801FF000
FF80FF803FE000
FF80FF803FE000
FF80FF807FC000
FF80FF807FC000
FF80FF80FF8000
FFC0FF80FF8000
7FE1FF80FF8000
7FFFFF81FFFFF0
7FFFFF81FFFFF0
3FFFFF81FFFFF0
3FFFFF81FFFFF0
1FFEFF81FFFFF0
07F8FF81FFFFF0
00400000000000
ENDCHAR
STARTCHAR 01F4
ENCODING 500
SWIDTH 555 0
DWIDTH 37 0
BBX 31 73 3 -1
BITMAP
00007FC0
0000FF80
0000FF00
0000FF00
0000FE00
0001FE00
0001FC00
0001F800
0003F800
0003F000
0003E000
0007E000
0007C000
00000000
00000000
00000000
00000000
00010000
007FFE00
01FFFF80
07FFFFC0
0FFFFFE0
1FFFFFF0
1FFFFFF8
3FFFFFF8
3FF01FFC
7FE00FFC
7FE007FC
7FE007FC
7FC007FC
7FC007FE
FFC007FE
FFC007FE
FFC007FE
FFC007FE
FFC007FE
FFC00000
FFC00000
FFC00000
FFC00000
FFC00000
FFC00000
FFC00000
FFC00000
FFC00000
FFC0FFFE
FFC0FFFE
FFC0FFFE
FFC0FFFE
FFC0FFFE
FFC0FFFE
FFC003FE
FFC003FE
FFC003FE
FFC003FE
FFC003FE
FFC003FE
FFC003FE
FFC003FE
7FC003FE
7FE003FE
7FE007FE
7FE007FE
7FF00FFE
3FF01FFE
3FFFFFFE
1FFFFFFE
1FFFFEFE
0FFFFEFE
07FFFCFE
03FFF8FE
00FFF0FE
00020000
ENDCHAR
STARTCHAR 01F5
ENCODING 501
SWIDTH 465 0
DWIDTH 31 0
BBX 31 69 1 -12
BITMAP
00007FC0
0000FF80
0000FF00
0000FF00
0000FE00
0001FE00
0001FC00
0001F800
0003F800
0003F000
0003E000
0007E000
0007C000
00000000
00000000
00000000
00000000
00000000
00040018
00FFE03C
01FFF0FC
07FFF9FC
07FFFFFE
0FFFFFFC
1FFFFFE0
1FF0FF80
1FE07F80
3FE07F80
3FE07F80
3FE03F80
3FC03FC0
3FC03FC0
3FC03FC0
3FC03FC0
3FC03FC0
3FE03FC0
3FE07FC0
3FE07F80
1FE07F80
1FF9FF80
0FFFFF80
07FFFF00
03FFFE00
03FFFC00
07FFF800
0F9FC000
1F800000
3F800000
3F800000
3FFC0000
3FFFFC00
3FFFFF00
1FFFFFC0
0FFFFFE0
03FFFFE0
07FFFFF0
1FC03FF0
3F8007F0
3F8007F0
7F8007F0
7F8007F0
7F8007F0
FFFC3FF0
7FFFFFF0
7FFFFFE0
7FFFFFE0
3FFFFFC0
0FFFFF00
01FFF800
ENDCHAR
STARTCHAR 0200
ENCODING 512
SWIDTH 525 0
DWIDTH 35 0
BBX 33 71 1 0
BITMAP
3FC3F80000
1FE1FC0000
0FE1FC0000
0FE0FC0000
07F0FC0000
07F07E0000
03F07E0000
01F83E0000
01F83E0000
00FC3F0000
007C1F0000
007C1F0000
0000000000
0000000000
0000000000
0000000000
0000000000
001FFC0000
001FFC0000
001FFC0000
001FFC0000
003FFE0000
003FFE0000
003FFE0000
003FFE0000
003FFE0000
007FFF0000
007FFF0000
007FFF0000
007FFF0000
007FFF0000
00FFFF8000
00FF7F8000
00FF7F8000
00FF7F8000
01FE7F8000
01FE7FC000
01FE7FC000
01FE3FC000
01FE3FC000
03FE3FC000
03FC3FE000
03FC3FE000
03FC1FE000
03FC1FE000
07FC1FE000
07FC1FF000
07F81FF000
07F81FF000
07F80FF000
0FF80FF000
0FF80FF800
0FFFFFF800
0FFFFFF800
0FFFFFF800
1FFFFFF800
1FFFFFFC00
1FFFFFFC00
1FF007FC00
1FF007FC00
3FE003FC00
3FE003FE00
3FE003FE00
3FE003FE00
3FE003FE00
7FE003FE00
7FC001FF00
7FC001FF00
7FC001FF00
7FC001FF00
FFC001FF80
ENDCHAR
STARTCHAR 0201
ENCODING 513
SWIDTH 450 0
DWIDTH 30 0
BBX 28 56 0 -1
BITMAP
FF0FE000
7F87F000
3F87F000
3F83F000
1FC3F000
1FC1F800
0FC1F800
07E0F800
07E0F800
03F0FC00
01F07C00
01F07C00
00000000
00000000
00000000
00000000
00010000
003FF800
00FFFE00
03FFFF00
03FFFF80
07FFFFC0
0FFFFFC0
0FF87FC0
0FF03FE0
1FF03FE0
1FF03FE0
1FF03FE0
1FF03FE0
00003FE0
00003FE0
00007FE0
0001FFE0
000FFFE0
003FFFE0
007FFFE0
01FFBFE0
03FE3FE0
07FC3FE0
0FF83FE0
0FF83FE0
1FF03FE0
1FF03FE0
1FE03FE0
1FE03FE0
1FE03FE0
1FF03FE0
1FF07FE0
1FFFFFE0
1FFFFFE0
1FFFDFE0
0FFFDFE0
07FF9FF0
03FF1FF0
01FE1FF0
00200000
ENDCHAR
STARTCHAR 0202
ENCODING 514
SWIDTH 525 0
DWIDTH 35 0
BBX 33 68 1 0
BITMAP
000FF00000
003FFC0000
007FFE0000
00FFFF0000
00FC3F0000
00F80F0000
01F00F8000
01F00F8000
01F00F8000
0000000000
0000000000
0000000000
0000000000
0000000000
001FFC0000
001FFC0000
001FFC0000
001FFC0000
003FFE0000
003FFE0000
003FFE0000
003FFE0000
003FFE0000
007FFF0000
007FFF0000
007FFF0000
007FFF0000
007FFF0000
00FFFF8000
00FF7F8000
00FF7F8000
00FF7F8000
01FE7F8000
01FE7FC000
01FE7FC000
01FE3FC000
01FE3FC000
03FE3FC000
03FC3FE000
03FC3FE000
03FC1FE000
03FC1FE000
07FC1FE000
07FC1FF000
07F81FF000
07F81FF000
07F80FF000
0FF80FF000
0FF80FF800
0FFFFFF800
0FFFFFF800
0FFFFFF800
1FFFFFF800
1FFFFFFC00
1FFFFFFC00
1FF007FC00
1FF007FC00
3FE003FC00
3FE003FE00
3FE003FE00
3FE003FE00
3FE003FE00
7FE003FE00
7FC001FF00
7FC001FF00
7FC001FF00
7FC001FF00
FFC001FF80
ENDCHAR
STARTCHAR 0203
ENCODING 515
SWIDTH 450 0
DWIDTH 30 0
BBX 25 54 3 -1
BITMAP
00FF0000
03FFC000
07FFE000
0FFFF000
0FC3F000
0F80F000
1F00F800
1F00F800
1F00F800
00000000
00000000
00000000
00000000
00000000
00080000
01FFC000
07FFF000
1FFFF800
1FFFFC00
3FFFFE00
7FFFFE00
7FC3FE00
7F81FF00
FF81FF00
FF81FF00
FF81FF00
FF81FF00
0001FF00
0001FF00
0003FF00
000FFF00
007FFF00
01FFFF00
03FFFF00
0FFDFF00
1FF1FF00
3FE1FF00
7FC1FF00
7FC1FF00
FF81FF00
FF81FF00
FF01FF00
FF01FF00
FF01FF00
FF81FF00
FF83FF00
FFFFFF00
FFFFFF00
FFFEFF00
7FFEFF00
3FFCFF80
1FF8FF80
0FF0FF80
01000000
ENDCHAR
STARTCHAR 0204
ENCODING 516
SWIDTH 435 0
DWIDTH 29 0
BBX 26 71 1 0
BITMAP
FF0FE000
7F87F000
3F87F000
3F83F000
1FC3F000
1FC1F800
0FC1F800
07E0F800
07E0F800
03F0FC00
01F07C00
01F07C00
00000000
00000000
00000000
00000000
00000000
1FFFFFC0
1FFFFFC0
1FFFFFC0
1FFFFFC0
1FFFFFC0
1FFFFFC0
1FF80000
1FF80000
1FF80000
1FF80000
1FF80000
1FF80000
1FF80000
1FF80000
1FF80000
1FF80000
1FF80000
1FF80000
1FF80000
1FF80000
1FF80000
1FF80000
1FF80000
1FFFFE00
1FFFFE00
1FFFFE00
1FFFFE00
1FFFFE00
1FFFFE00
1FF80000
1FF80000
1FF80000
1FF80000
1FF80000
1FF80000
1FF80000
1FF80000
1FF80000
1FF80000
1FF80000
1FF80000
1FF80000
1FF80000
1FF80000
1FF80000
1FF80000
1FF80000
1FF80000
1FFFFFC0
1FFFFFC0
1FFFFFC0
1FFFFFC0
1FFFFFC0
1FFFFFC0
ENDCHAR
STARTCHAR 0205
ENCODING 517
SWIDTH 450 0
DWIDTH 30 0
BBX 27 56 0 -1
BITMAP
FF0FE000
7F87F000
3F87F000
3F83F000
1FC3F000
1FC1F800
0FC1F800
07E0F800
07E0F800
03F0FC00
01F07C00
01F07C00
00000000
00000000
00000000
00000000
00010000
007FF800
01FFFE00
03FFFF00
07FFFF80
07FFFF80
0FFFFFC0
0FF87FC0
0FF03FE0
1FF03FE0
1FF03FE0
1FF03FE0
1FF03FE0
1FF03FE0
1FF03FE0
1FFFFFE0
1FFFFFE0
1FFFFFE0
1FFFFFE0
1FFFFFE0
1FF00000
1FF00000
1FF00000
1FF00000
1FF00000
1FF00000
1FF03FE0
1FF03FE0
1FF03FE0
1FF03FE0
1FF03FE0
1FF83FE0
0FF87FC0
0FFFFFC0
07FFFFC0
07FFFF80
03FFFF00
01FFFE00
007FF800
00010000
ENDCHAR
STARTCHAR 0206
ENCODING 518
SWIDTH 435 0
DWIDTH 29 0
BBX 23 68 4 0
BITMAP
01FE00
07FF80
0FFFC0
1FFFE0
1F87E0
1F01E0
3E01F0
3E01F0
3E01F0
000000
000000
000000
000000
000000
FFFFFE
FFFFFE
FFFFFE
FFFFFE
FFFFFE
FFFFFE
FFC000
FFC000
FFC000
FFC000
FFC000
FFC000
FFC000
FFC000
FFC000
FFC000
FFC000
FFC000
FFC000
FFC000
FFC000
FFC000
FFC000
FFFFF0
FFFFF0
FFFFF0
FFFFF0
FFFFF0
FFFFF0
FFC000
FFC000
FFC000
FFC000
FFC000
FFC000
FFC000
FFC000
FFC000
FFC000
FFC000
FFC000
FFC000
FFC000
FFC000
FFC000
FFC000
FFC000
FFC000
FFFFFE
FFFFFE
FFFFFE
FFFFFE
FFFFFE
FFFFFE
ENDCHAR
STARTCHAR 0207
ENCODING 519
SWIDTH 450 0
DWIDTH 30 0
BBX 24 54 3 -1
BITMAP
00FF00
03FFC0
07FFE0
0FFFF0
0FC3F0
0F80F0
1F00F8
1F00F8
1F00F8
000000
000000
000000
000000
000000
000800
03FFC0
0FFFF0
1FFFF8
3FFFFC
3FFFFC
7FFFFE
7FC3FE
7F81FF
FF81FF
FF81FF
FF81FF
FF81FF
FF81FF
FF81FF
FFFFFF
FFFFFF
FFFFFF
FFFFFF
FFFFFF
FF8000
FF8000
FF8000
FF8000
FF8000
FF8000
FF81FF
FF81FF
FF81FF
FF81FF
FF81FF
FFC1FF
7FC3FE
7FFFFE
3FFFFE
3FFFFC
1FFFF8
0FFFF0
03FFC0
000800
ENDCHAR
STARTCHAR 0208
ENCODING 520
SWIDTH 270 0
DWIDTH 18 0
BBX 22 71 -6 0
BITMAP
FF0FE0
7F87F0
3F87F0
3F83F0
1FC3F0
1FC1F8
0FC1F8
07E0F8
07E0F8
03F0FC
01F07C
01F07C
000000
000000
000000
000000
000000
003FF0
003FF0
003FF0
003FF0
003FF0
003FF0
003FF0
003FF0
003FF0
003FF0
003FF0
003FF0
003FF0
003FF0
003FF0
003FF0
003FF0
003FF0
003FF0
003FF0
003FF0
003FF0
003FF0
003FF0
003FF0
003FF0
003FF0
003FF0
003FF0
003FF0
003FF0
003FF0
003FF0
003FF0
003FF0
003FF0
003FF0
003FF0
003FF0
003FF0
003FF0
003FF0
003FF0
003FF0
003FF0
003FF0
003FF0
003FF0
003FF0
003FF0
003FF0
003FF0
003FF0
003FF0
ENDCHAR
STARTCHAR 0209
ENCODING 521
SWIDTH 255 0
DWIDTH 17 0
BBX 22 55 -6 0
BITMAP
FF0FE0
7F87F0
3F87F0
3F83F0
1FC3F0
1FC1F8
0FC1F8
07E0F8
07E0F8
03F0FC
01F07C
01F07C
000000
000000
000000
000000
000000
003FE0
003FE0
003FE0
003FE0
003FE0
003FE0
003FE0
003FE0
003FE0
003FE0
003FE0
003FE0
003FE0
003FE0
003FE0
003FE0
003FE0
003FE0
003FE0
003FE0
003FE0
003FE0
003FE0
003FE0
003FE0
003FE0
003FE0
003FE0
003FE0
003FE0
003FE0
003FE0
003FE0
003FE0
003FE0
003FE0
003FE0
003FE0
ENDCHAR
STARTCHAR 020A
ENCODING 522
SWIDTH 270 0
DWIDTH 18 0
BBX 18 68 0 0
BITMAP
07F800
1FFE00
3FFF00
7FFF80
7E1F80
7C0780
F807C0
F807C0
F807C0
000000
000000
000000
000000
000000
0FFC00
0FFC00
0FFC00
0FFC00
0FFC00
0FFC00
0FFC00
0FFC00
0FFC00
0FFC00
0FFC00
0FFC00
0FFC00
0FFC00
0FFC00
0FFC00
0FFC00
0FFC00
0FFC00
0FFC00
0FFC00
0FFC00
0FFC00
0FFC00
0FFC00
0FFC00
0FFC00
0FFC00
0FFC00
0FFC00
0FFC00
0FFC00
0FFC00
0FFC00
0FFC00
0FFC00
0FFC00
0FFC00
0FFC00
0FFC00
0FFC00
0FFC00
0FFC00
0FFC00
0FFC00
0FFC00
0FFC00
0FFC00
0FFC00
0FFC00
0FFC00
0FFC00
0FFC00
0FFC00
ENDCHAR
STARTCHAR 020B
ENCODING 523
SWIDTH 255 0
DWIDTH 17 0
BBX 18 53 0 0
BITMAP
07F800
1FFE00
3FFF00
7FFF80
7E1F80
7C0780
F807C0
F807C0
F807C0
000000
000000
000000
000000
000000
000000
0FF800
0FF800
0FF800
0FF800
0FF800
0FF800
0FF800
0FF800
0FF800
0FF800
0FF800
0FF800
0FF800
0FF800
0FF800
0FF800
0FF800
0FF800
0FF800
0FF800
0FF800
0FF800
0FF800
0FF800
0FF800
0FF800
0FF800
0FF800
0FF800
0FF800
0FF800
0FF800
0FF800
0FF800
0FF800
0FF800
0FF800
0FF800
ENDCHAR
STARTCHAR 020C
ENCODING 524
SWIDTH 570 0
DWIDTH 38 0
BBX 31 72 3 -1
BITMAP
7F87F000
3FC3F800
1FC3F800
1FC1F800
0FE1F800
0FE0FC00
07E0FC00
03F07C00
03F07C00
01F87E00
00F83E00
00F83E00
00000000
00000000
00000000
00000000
00010000
007FFE00
01FFFF80
07FFFFC0
0FFFFFE0
1FFFFFF0
1FFFFFF8
3FFFFFF8
3FF01FFC
7FE00FFC
7FE007FE
7FE007FE
7FC007FE
FFC007FE
FFC007FE
FFC007FE
FFC007FE
FFC007FE
FFC007FE
FFC007FE
FFC007FE
FFC007FE
FFC007FE
FFC007FE
FFC007FE
FFC007FE
FFC007FE
FFC007FE
FFC007FE
FFC007FE
FFC007FE
FFC007FE
FFC007FE
FFC007FE
FFC007FE
FFC007FE
FFC007FE
FFC007FE
FFC007FE
FFC007FE
FFC007FE
FFC007FE
FFC007FE
7FC007FE
7FE007FE
7FE007FE
7FE00FFC
3FF01FFC
3FFFFFF8
1FFFFFF8
1FFFFFF0
0FFFFFE0
07FFFFC0
01FFFF80
007FFE00
00010000
ENDCHAR
STARTCHAR 020D
ENCODING 525
SWIDTH 450 0
DWIDTH 30 0
BBX 28 56 0 -1
BITMAP
FF0FE000
7F87F000
3F87F000
3F83F000
1FC3F000
1FC1F800
0FC1F800
07E0F800
07E0F800
03F0FC00
01F07C00
01F07C00
00000000
00000000
00000000
00000000
00010000
007FF800
01FFFE00
03FFFF00
07FFFF80
07FFFFC0
0FFFFFC0
0FF87FE0
1FF03FE0
1FF03FE0
1FF03FE0
1FF03FE0
1FF03FF0
1FF01FF0
1FF01FF0
1FF01FF0
1FF01FF0
1FF01FF0
1FF01FF0
1FF01FF0
1FF01FF0
1FF01FF0
1FF01FF0
1FF01FF0
1FF01FF0
1FF01FF0
1FF01FF0
1FF03FF0
1FF03FF0
1FF03FE0
1FF03FE0
1FF03FE0
0FF87FE0
0FFFFFC0
07FFFFC0
07FFFF80
03FFFF00
01FFFE00
007FF800
00010000
ENDCHAR
STARTCHAR 020E
ENCODING 526
SWIDTH 570 0
DWIDTH 38 0
BBX 31 69 3 -1
BITMAP
000FF000
003FFC00
007FFE00
00FFFF00
00FC3F00
00F80F00
01F00F80
01F00F80
01F00F80
00000000
00000000
00000000
00000000
00010000
007FFE00
01FFFF80
07FFFFC0
0FFFFFE0
1FFFFFF0
1FFFFFF8
3FFFFFF8
3FF01FFC
7FE00FFC
7FE007FE
7FE007FE
7FC007FE
FFC007FE
FFC007FE
FFC007FE
FFC007FE
FFC007FE
FFC007FE
FFC007FE
FFC007FE
FFC007FE
FFC007FE
FFC007FE
FFC007FE
FFC007FE
FFC007FE
FFC007FE
FFC007FE
FFC007FE
FFC007FE
FFC007FE
FFC007FE
FFC007FE
FFC007FE
FFC007FE
FFC007FE
FFC007FE
FFC007FE
FFC007FE
FFC007FE
FFC007FE
FFC007FE
7FC007FE
7FE007FE
7FE007FE
7FE00FFC
3FF01FFC
3FFFFFF8
1FFFFFF8
1FFFFFF0
0FFFFFE0
07FFFFC0
01FFFF80
007FFE00
00010000
ENDCHAR
STARTCHAR 020F
ENCODING 527
SWIDTH 450 0
DWIDTH 30 0
BBX 25 54 3 -1
BITMAP
00FF0000
03FFC000
07FFE000
0FFFF000
0FC3F000
0F80F000
1F00F800
1F00F800
1F00F800
00000000
00000000
00000000
00000000
00000000
00080000
03FFC000
0FFFF000
1FFFF800
3FFFFC00
3FFFFE00
7FFFFE00
7FC3FF00
FF81FF00
FF81FF00
FF81FF00
FF81FF00
FF81FF80
FF80FF80
FF80FF80
FF80FF80
FF80FF80
FF80FF80
FF80FF80
FF80FF80
FF80FF80
FF80FF80
FF80FF80
FF80FF80
FF80FF80
FF80FF80
FF80FF80
FF81FF80
FF81FF80
FF81FF00
FF81FF00
FF81FF00
7FC3FF00
7FFFFE00
3FFFFE00
3FFFFC00
1FFFF800
0FFFF000
03FFC000
00080000
ENDCHAR
STARTCHAR 0210
ENCODING 528
SWIDTH 555 0
DWIDTH 37 0
BBX 31 71 4 0
BITMAP
7F87F000
3FC3F800
1FC3F800
1FC1F800
0FE1F800
0FE0FC00
07E0FC00
03F07C00
03F07C00
01F87E00
00F83E00
00F83E00
00000000
00000000
00000000
00000000
00000000
FFFFE000
FFFFFC00
FFFFFF00
FFFFFFC0
FFFFFFE0
FFFFFFF0
FFC3FFF0
FFC03FF8
FFC01FF8
FFC00FF8
FFC00FF8
FFC00FFC
FFC00FFC
FFC00FFC
FFC00FFC
FFC00FFC
FFC00FFC
FFC00FFC
FFC00FF8
FFC00FF8
FFC01FF8
FFC03FF8
FFC0FFF0
FFFFFFF0
FFFFFFE0
FFFFFFC0
FFFFFF80
FFFFFE00
FFFFFF00
FFC3FF00
FFC3FF00
FFC1FF00
FFC1FF80
FFC1FF80
FFC1FF80
FFC0FF80
FFC0FFC0
FFC0FFC0
FFC0FFC0
FFC07FE0
FFC07FE0
FFC07FE0
FFC03FE0
FFC03FF0
FFC03FF0
FFC03FF0
FFC01FF8
FFC01FF8
FFC01FF8
FFC00FF8
FFC00FFC
FFC00FFC
FFC00FFC
FFC007FE
ENDCHAR
STARTCHAR 0211
ENCODING 529
SWIDTH 345 0
DWIDTH 23 0
BBX 24 55 -2 0
BITMAP
FF0FE0
7F87F0
3F87F0
3F83F0
1FC3F0
1FC1F8
0FC1F8
07E0F8
07E0F8
03F0FC
01F07C
01F07C
000000
000000
000000
000000
000002
03FE0F
03FE3F
03FE7F
03FEFF
03FEFF
03FFFF
03FFFF
03FFFF
03FFFF
03FFC0
03FF00
03FF00
03FE00
03FE00
03FE00
03FE00
03FE00
03FE00
03FE00
03FE00
03FE00
03FE00
03FE00
03FE00
03FE00
03FE00
03FE00
03FE00
03FE00
03FE00
03FE00
03FE00
03FE00
03FE00
03FE00
03FE00
03FE00
03FE00
ENDCHAR
STARTCHAR 0212
ENCODING 530
SWIDTH 555 0
DWIDTH 37 0
BBX 31 68 4 0
BITMAP
001FE000
007FF800
00FFFC00
01FFFE00
01F87E00
01F01E00
03E01F00
03E01F00
03E01F00
00000000
00000000
00000000
00000000
00000000
FFFFE000
FFFFFC00
FFFFFF00
FFFFFFC0
FFFFFFE0
FFFFFFF0
FFC3FFF0
FFC03FF8
FFC01FF8
FFC00FF8
FFC00FF8
FFC00FFC
FFC00FFC
FFC00FFC
FFC00FFC
FFC00FFC
FFC00FFC
FFC00FFC
FFC00FF8
FFC00FF8
FFC01FF8
FFC03FF8
FFC0FFF0
FFFFFFF0
FFFFFFE0
FFFFFFC0
FFFFFF80
FFFFFE00
FFFFFF00
FFC3FF00
FFC3FF00
FFC1FF00
FFC1FF80
FFC1FF80
FFC1FF80
FFC0FF80
FFC0FFC0
FFC0FFC0
FFC0FFC0
FFC07FE0
FFC07FE0
FFC07FE0
FFC03FE0
FFC03FF0
FFC03FF0
FFC03FF0
FFC01FF8
FFC01FF8
FFC01FF8
FFC00FF8
FFC00FFC
FFC00FFC
FFC00FFC
FFC007FE
ENDCHAR
STARTCHAR 0213
ENCODING 531
SWIDTH 345 0
DWIDTH 23 0
BBX 18 53 4 0
BITMAP
07F800
1FFE00
3FFF00
7FFF80
7E1F80
7C0780
F807C0
F807C0
F807C0
000000
000000
000000
000000
000000
000080
FF83C0
FF8FC0
FF9FC0
FFBFC0
FFBFC0
FFFFC0
FFFFC0
FFFFC0
FFFFC0
FFF000
FFC000
FFC000
FF8000
FF8000
FF8000
FF8000
FF8000
FF8000
FF8000
FF8000
FF8000
FF8000
FF8000
FF8000
FF8000
FF8000
FF8000
FF8000
FF8000
FF8000
FF8000
FF8000
FF8000
FF8000
FF8000
FF8000
FF8000
FF8000
ENDCHAR
ENDFONT
